<svg class="main-svg" xmlns="http://www.w3.org/2000/svg" xmlns:xlink="http://www.w3.org/1999/xlink" width="1000" height="500" viewBox="0 0 1000 500"><rect x="0" y="0" width="1000" height="500" style="fill: rgb(229, 229, 229); fill-opacity: 1;"/><defs id="defs-5de5c7"><g class="clips"><clipPath id="clip5de5c7xyplot" class="plotclip"><rect width="840" height="320"/></clipPath><clipPath class="axesclip" id="clip5de5c7x"><rect x="80" y="0" width="840" height="500"/></clipPath><clipPath class="axesclip" id="clip5de5c7y"><rect x="0" y="100" width="1000" height="320"/></clipPath><clipPath class="axesclip" id="clip5de5c7xy"><rect x="80" y="100" width="840" height="320"/></clipPath></g><g class="gradients"/></defs><g class="bglayer"/><g class="layer-below"><g class="imagelayer"/><g class="shapelayer"/></g><g class="cartesianlayer"><g class="subplot xy"><g class="layer-subplot"><g class="shapelayer"/><g class="imagelayer"/></g><g class="gridlayer"><g class="x"/><g class="y"><path class="ygrid crisp" transform="translate(0,361.81)" d="M80,0h840" style="stroke: rgb(214, 214, 214); stroke-opacity: 1; stroke-width: 1px;"/><path class="ygrid crisp" transform="translate(0,319.58000000000004)" d="M80,0h840" style="stroke: rgb(214, 214, 214); stroke-opacity: 1; stroke-width: 1px;"/><path class="ygrid crisp" transform="translate(0,277.36)" d="M80,0h840" style="stroke: rgb(214, 214, 214); stroke-opacity: 1; stroke-width: 1px;"/><path class="ygrid crisp" transform="translate(0,235.13)" d="M80,0h840" style="stroke: rgb(214, 214, 214); stroke-opacity: 1; stroke-width: 1px;"/><path class="ygrid crisp" transform="translate(0,192.9)" d="M80,0h840" style="stroke: rgb(214, 214, 214); stroke-opacity: 1; stroke-width: 1px;"/><path class="ygrid crisp" transform="translate(0,150.67000000000002)" d="M80,0h840" style="stroke: rgb(214, 214, 214); stroke-opacity: 1; stroke-width: 1px;"/><path class="ygrid crisp" transform="translate(0,108.44)" d="M80,0h840" style="stroke: rgb(214, 214, 214); stroke-opacity: 1; stroke-width: 1px;"/></g></g><g class="zerolinelayer"><path class="yzl zl crisp" transform="translate(0,404.04)" d="M80,0h840" style="stroke: rgb(68, 68, 68); stroke-opacity: 1; stroke-width: 1px;"/></g><path class="xlines-below"/><path class="ylines-below"/><g class="overlines-below"/><g class="xaxislayer-below"/><g class="yaxislayer-below"/><g class="overaxes-below"/><g class="plot" transform="translate(80, 100)" clip-path="url(#clip5de5c7xyplot)"><g class="scatterlayer mlayer"><g class="trace scatter trace2e43750c-5aea-462b-96cf-1a1c1f7cf77f" style="stroke-miterlimit: 2; opacity: 0.5;"><g class="fills"/><g class="errorbars"/><g class="lines"><path class="js-line" d="M0,304L410.55,303.96L444.17,70.94L447.48,71.57L450.8,46.87L457.43,116.55L464.98,16L468.3,131.71L491.03,303.96L674.75,304L706,301.51L707.42,301.51L714.99,300.24L717.36,300.24L721.62,299.06L725.41,303.03L727.31,302.02L728.73,303.03L734.41,301.51L744.35,301.51L745.77,295.81L750.05,300.5L759.05,294.54L765.68,293.27L768.99,301.76L775.62,298.64L778.46,292.6L783.67,298.43L789.83,291.96L792.2,297.67L795.04,299.78L797.88,300.24L801.19,299.73L810.64,298.13L818.22,293.91L824.85,300.66L828.16,300.66L834.32,281.2L837.16,286.31L840,273.17" style="vector-effect: non-scaling-stroke; fill: none; stroke: rgb(3, 127, 140); stroke-opacity: 1; stroke-width: 2px; opacity: 1;"/></g><g class="points"/><g class="text"/></g><g class="trace scatter tracea58c7b39-e445-40ad-991e-20327fed6ceb" style="stroke-miterlimit: 2; opacity: 1;"><g class="fills"/><g class="errorbars"/><g class="lines"><path class="js-line" d="M65.84,304Q76.87,304 80.52,304C82.69,304 83.99,304 85.72,304C87.46,304 88.47,303.99 90.93,303.99C96.85,303.98 107.42,304.74 121.22,303.99C151.3,302.36 218.24,293.81 264.24,288.45C307.2,283.44 375.96,285.58 388.75,272.96C393.5,268.27 388.97,260.83 391.12,255.82C393.18,251.01 398.91,248.27 401.06,243.32C403.43,237.87 402.38,229.62 403.9,224.12C405.12,219.72 407.05,213.7 408.66,212.63C409.29,212.21 409.53,212.63 410.55,212.63C414.85,212.63 438.82,212.63 444.17,212.63C445.85,212.63 446.38,212.63 447.48,212.63C448.59,212.63 449.5,212.63 450.8,212.63C452.63,212.63 455.15,212.63 457.43,212.63C459.86,212.63 462.97,212.63 464.98,212.63C466.31,212.63 466.7,212.63 468.3,212.63C472.49,212.63 484.34,212.63 491.03,212.63C496.32,212.63 499.09,211.74 505.23,212.63C517.3,214.38 550.33,220.1 557.79,228.16C561.8,232.49 560.02,238.36 561.1,243.66C562.23,249.22 563.22,255.56 564.42,260.8C565.45,265.31 566.33,268.71 567.73,273.29C569.48,279.03 572.58,286.89 574.36,292.49C575.73,296.79 575.94,302.73 577.7,303.98C578.62,304.64 579.46,303.86 581.01,303.81C584.61,303.7 593.18,303.72 599.01,303.65C604.52,303.58 608.51,303.47 615.1,303.4C625.58,303.29 648.01,303.37 655.81,303.15C658.96,303.06 660.79,302.88 662.44,302.82C663.43,302.78 663.74,302.78 664.8,302.76C666.97,302.72 670.51,302.66 674.75,302.63C682.26,302.57 702.34,302.77 706,302.56C706.78,302.52 706.76,302.44 707.42,302.4C708.94,302.3 713.18,302.32 714.99,302.24C716,302.19 716.46,302.16 717.36,302.07C718.57,301.95 720.24,301.66 721.62,301.53C722.92,301.41 724.37,301.5 725.41,301.3C726.16,301.15 726.73,300.9 727.31,300.67C727.82,300.46 728.08,300.17 728.73,299.99C729.97,299.64 732.84,299.51 734.41,299.44C735.52,299.39 736.09,299.46 737.25,299.46C739.08,299.45 742.9,299.61 744.35,299.35C745.02,299.23 745.16,298.96 745.77,298.85C746.8,298.67 748.36,298.88 750.05,298.8C752.5,298.69 756.79,298.26 759.05,298.07C760.42,297.95 761.26,297.86 762.36,297.78C763.47,297.69 764.57,297.61 765.68,297.56C766.78,297.51 767.7,297.5 768.99,297.47C770.82,297.43 773.87,297.43 775.62,297.36C776.76,297.32 777.37,297.21 778.46,297.19C779.93,297.17 781.86,297.38 783.67,297.34C785.64,297.3 788.26,296.82 789.83,296.9C790.81,296.95 791.37,297.17 792.2,297.31C793.1,297.46 794.1,297.82 795.04,297.76C795.99,297.7 796.9,297.25 797.88,296.96C798.94,296.64 799.96,296.32 801.19,295.93Q802.73,295.44 806.4,294.23" style="vector-effect: non-scaling-stroke; fill: none; stroke: rgb(0, 0, 0); stroke-opacity: 1; stroke-width: 2px; opacity: 1;"/></g><g class="points"/><g class="text"/></g></g></g><g class="overplot"/><path class="xlines-above crisp" d="M0,0" style="fill: none;"/><path class="ylines-above crisp" d="M0,0" style="fill: none;"/><g class="overlines-above"/><g class="xaxislayer-above"><g class="xtick"><text text-anchor="middle" x="0" y="433" transform="translate(165.15,0)" style="font-family: 'Open Sans', verdana, arial, sans-serif; font-size: 12px; fill: rgb(68, 68, 68); fill-opacity: 1; white-space: pre;">Jan 2015</text></g><g class="xtick"><text text-anchor="middle" x="0" y="433" transform="translate(250.86,0)" style="font-family: 'Open Sans', verdana, arial, sans-serif; font-size: 12px; fill: rgb(68, 68, 68); fill-opacity: 1; white-space: pre;">Jul 2015</text></g><g class="xtick"><text text-anchor="middle" x="0" y="433" transform="translate(337.98,0)" style="font-family: 'Open Sans', verdana, arial, sans-serif; font-size: 12px; fill: rgb(68, 68, 68); fill-opacity: 1; white-space: pre;">Jan 2016</text></g><g class="xtick"><text text-anchor="middle" x="0" y="433" transform="translate(424.16,0)" style="font-family: 'Open Sans', verdana, arial, sans-serif; font-size: 12px; fill: rgb(68, 68, 68); fill-opacity: 1; white-space: pre;">Jul 2016</text></g><g class="xtick"><text text-anchor="middle" x="0" y="433" transform="translate(511.29,0)" style="font-family: 'Open Sans', verdana, arial, sans-serif; font-size: 12px; fill: rgb(68, 68, 68); fill-opacity: 1; white-space: pre;">Jan 2017</text></g><g class="xtick"><text text-anchor="middle" x="0" y="433" transform="translate(596.99,0)" style="font-family: 'Open Sans', verdana, arial, sans-serif; font-size: 12px; fill: rgb(68, 68, 68); fill-opacity: 1; white-space: pre;">Jul 2017</text></g><g class="xtick"><text text-anchor="middle" x="0" y="433" transform="translate(684.11,0)" style="font-family: 'Open Sans', verdana, arial, sans-serif; font-size: 12px; fill: rgb(68, 68, 68); fill-opacity: 1; white-space: pre;">Jan 2018</text></g><g class="xtick"><text text-anchor="middle" x="0" y="433" transform="translate(769.82,0)" style="font-family: 'Open Sans', verdana, arial, sans-serif; font-size: 12px; fill: rgb(68, 68, 68); fill-opacity: 1; white-space: pre;">Jul 2018</text></g><g class="xtick"><text text-anchor="middle" x="0" y="433" transform="translate(856.94,0)" style="font-family: 'Open Sans', verdana, arial, sans-serif; font-size: 12px; fill: rgb(68, 68, 68); fill-opacity: 1; white-space: pre;">Jan 2019</text></g></g><g class="yaxislayer-above"><g class="ytick"><text text-anchor="end" x="79" y="4.199999999999999" transform="translate(0,404.04)" style="font-family: 'Open Sans', verdana, arial, sans-serif; font-size: 12px; fill: rgb(68, 68, 68); fill-opacity: 1; white-space: pre;">0</text></g><g class="ytick"><text text-anchor="end" x="79" y="4.199999999999999" transform="translate(0,361.81)" style="font-family: 'Open Sans', verdana, arial, sans-serif; font-size: 12px; fill: rgb(68, 68, 68); fill-opacity: 1; white-space: pre;">1000</text></g><g class="ytick"><text text-anchor="end" x="79" y="4.199999999999999" transform="translate(0,319.58000000000004)" style="font-family: 'Open Sans', verdana, arial, sans-serif; font-size: 12px; fill: rgb(68, 68, 68); fill-opacity: 1; white-space: pre;">2000</text></g><g class="ytick"><text text-anchor="end" x="79" y="4.199999999999999" transform="translate(0,277.36)" style="font-family: 'Open Sans', verdana, arial, sans-serif; font-size: 12px; fill: rgb(68, 68, 68); fill-opacity: 1; white-space: pre;">3000</text></g><g class="ytick"><text text-anchor="end" x="79" y="4.199999999999999" transform="translate(0,235.13)" style="font-family: 'Open Sans', verdana, arial, sans-serif; font-size: 12px; fill: rgb(68, 68, 68); fill-opacity: 1; white-space: pre;">4000</text></g><g class="ytick"><text text-anchor="end" x="79" y="4.199999999999999" transform="translate(0,192.9)" style="font-family: 'Open Sans', verdana, arial, sans-serif; font-size: 12px; fill: rgb(68, 68, 68); fill-opacity: 1; white-space: pre;">5000</text></g><g class="ytick"><text text-anchor="end" x="79" y="4.199999999999999" transform="translate(0,150.67000000000002)" style="font-family: 'Open Sans', verdana, arial, sans-serif; font-size: 12px; fill: rgb(68, 68, 68); fill-opacity: 1; white-space: pre;">6000</text></g><g class="ytick"><text text-anchor="end" x="79" y="4.199999999999999" transform="translate(0,108.44)" style="font-family: 'Open Sans', verdana, arial, sans-serif; font-size: 12px; fill: rgb(68, 68, 68); fill-opacity: 1; white-space: pre;">7000</text></g></g><g class="overaxes-above"/></g></g><g class="polarlayer"/><g class="ternarylayer"/><g class="geolayer"/><g class="pielayer"/><g class="glimages"/><defs id="topdefs-5de5c7"><g class="clips"/></defs><g class="layer-above"><g class="imagelayer"/><g class="shapelayer"/></g><g class="infolayer"><g class="g-gtitle"><text class="gtitle" x="500" y="50" text-anchor="middle" dy="0em" style="font-family: 'Open Sans', verdana, arial, sans-serif; font-size: 17px; fill: rgb(68, 68, 68); opacity: 1; font-weight: normal; white-space: pre;"><tspan class="line" dy="0em" x="500" y="50"><tspan style="font-weight:bold">Abs Volume</tspan></tspan><tspan class="line" dy="1.3em" x="500" y="50"><tspan style="font-style:italic">15-Workout Average in Black<tspan style="font-style:italic"></tspan></tspan></tspan></text></g><g class="g-xtitle"/><g class="g-ytitle"><text class="ytitle" transform="rotate(-90,42,260)" x="42" y="260" text-anchor="middle" style="font-family: 'Open Sans', verdana, arial, sans-serif; font-size: 14px; fill: rgb(68, 68, 68); opacity: 1; font-weight: normal; white-space: pre;">Volume (lbs)</text></g></g></svg>