<svg class="main-svg" xmlns="http://www.w3.org/2000/svg" xmlns:xlink="http://www.w3.org/1999/xlink" width="1000" height="500" viewBox="0 0 1000 500"><rect x="0" y="0" width="1000" height="500" style="fill: rgb(229, 229, 229); fill-opacity: 1;"/><defs id="defs-c18dee"><g class="clips"><clipPath id="clipc18deexyplot" class="plotclip"><rect width="840" height="320"/></clipPath><clipPath class="axesclip" id="clipc18deex"><rect x="80" y="0" width="840" height="500"/></clipPath><clipPath class="axesclip" id="clipc18deey"><rect x="0" y="100" width="1000" height="320"/></clipPath><clipPath class="axesclip" id="clipc18deexy"><rect x="80" y="100" width="840" height="320"/></clipPath></g><g class="gradients"/></defs><g class="bglayer"/><g class="layer-below"><g class="imagelayer"/><g class="shapelayer"/></g><g class="cartesianlayer"><g class="subplot xy"><g class="layer-subplot"><g class="shapelayer"/><g class="imagelayer"/></g><g class="gridlayer"><g class="x"/><g class="y"><path class="ygrid crisp" transform="translate(0,351.94)" d="M80,0h840" style="stroke: rgb(214, 214, 214); stroke-opacity: 1; stroke-width: 1px;"/><path class="ygrid crisp" transform="translate(0,286.87)" d="M80,0h840" style="stroke: rgb(214, 214, 214); stroke-opacity: 1; stroke-width: 1px;"/><path class="ygrid crisp" transform="translate(0,221.8)" d="M80,0h840" style="stroke: rgb(214, 214, 214); stroke-opacity: 1; stroke-width: 1px;"/><path class="ygrid crisp" transform="translate(0,156.73)" d="M80,0h840" style="stroke: rgb(214, 214, 214); stroke-opacity: 1; stroke-width: 1px;"/></g></g><g class="zerolinelayer"><path class="yzl zl crisp" transform="translate(0,417.01)" d="M80,0h840" style="stroke: rgb(68, 68, 68); stroke-opacity: 1; stroke-width: 1px;"/></g><path class="xlines-below"/><path class="ylines-below"/><g class="overlines-below"/><g class="xaxislayer-below"/><g class="yaxislayer-below"/><g class="overaxes-below"/><g class="plot" transform="translate(80, 100)" clip-path="url(#clipc18deexyplot)"><g class="scatterlayer mlayer"><g class="trace scatter tracec8136274-f528-4ab6-af9e-9ebcc5fac378" style="stroke-miterlimit: 2; opacity: 0.5;"><g class="fills"/><g class="errorbars"/><g class="lines"><path class="js-line" d="M0,295.54L4.18,291.05L10.68,292.16L13.47,284.28L16.25,300.1L17.65,291.64L22.75,248.87L28.33,261.57L32.5,134.43L40.4,134.43L61.29,248.04L81.28,236L89.64,238.21L95.21,199.71L98,272.12L101.25,304L117.03,267.11L131.87,255.98L135.59,289.36L175.06,235.03L192.24,263.46L237.28,279.92L260.98,160L262.84,119.53L264.7,160.2L267.02,66.79L269.8,144.12L281.41,139.37L299.97,240.88L304.15,235.74L312.97,189.28L317.61,210.88L329.22,124.21L332.47,132.35L337.58,136.18L340.83,272.12L344.08,73.85L347.33,16L350.58,165.08L351.51,190.78L353.83,217L357.08,34.14L366.83,221.04L369.62,22.05L374.26,62.79L376.58,205.35L379.37,163.64L383.08,156.81L402.59,219.01L445.79,254.68L449.04,238.64L452.29,232.29L456.01,249.08L462.97,232.08L469.45,256.81L472.7,212.89L480.13,198.33L483.38,180.04L487.1,243.75L505.21,151.2L513.1,162.98L518.21,194.16L522.39,170.87L527.03,167.09L531.21,100.72L535.39,162.6L537.71,165.79L541.43,43.85L577.65,271.4L589.74,247L605.99,164.28L608.31,106.17L613.42,104.42L616.67,203.6L619.46,168L623.17,219.4L628.28,173.14L631.53,224.21L634.78,223.25L638.94,92.2L641.26,223.44L644.51,225.4L648.23,231.19L651.01,198.12L654.73,107.16L657.98,217.12L661.23,202.17L668.66,238.79L670.98,228.79L674.69,257.28L678.41,255.24L681.19,211.87L683.98,303.22L684.91,232.8L687.23,243.46L690.48,195.03L694.2,255.57L697.45,196.97L700.23,190.62L704.41,256.97L707.66,195.2L713.23,255.48L716.95,250.32L719.27,197.02L722.99,187.58L726.24,270.42L731.81,203.92L735.99,198.77L742.02,160.59L746.67,238.02L751.33,144.06L757.83,229.38L761.08,173.82L764.33,189.02L771.76,192.07L775.01,146.66L777.8,152.36L782.9,148.86L788.94,141.44L793.58,179.18L799.16,179.17L804.26,212.37L810.75,179.05L816.32,175.93L821.89,203.4L826.07,186.35L831.64,181.46L834.89,208.13L840,159.35" style="vector-effect: non-scaling-stroke; fill: none; stroke: rgb(166, 67, 31); stroke-opacity: 1; stroke-width: 2px; opacity: 1;"/></g><g class="points"/><g class="text"/></g><g class="trace scatter trace6c88dcf7-ee22-4f39-8d19-6bd2d810a6d9" style="stroke-miterlimit: 2; opacity: 1;"><g class="fills"/><g class="errorbars"/><g class="lines"><path class="js-line" d="M28.33,248.54Q30.89,249.16 32.5,249.11C34.72,249.04 37.13,248.03 40.4,247.51C45.69,246.67 54.39,245.44 61.29,245.1C68.02,244.77 76.16,246.64 81.28,245.44C84.79,244.61 87.1,242.18 89.64,241.1C91.65,240.25 93.72,238.98 95.21,239.22C96.36,239.4 97.15,241.5 98,241.29C99.25,240.98 99.13,235.95 101.25,234.52C104.33,232.45 111.86,233.4 117.03,233.53C122.06,233.66 128.8,237.25 131.87,235.24C134.7,233.39 132.13,226.15 135.59,223.16C141.74,217.84 164.71,219.78 175.06,217.03C182.08,215.16 185.01,211.56 192.24,210.45C203.56,208.71 224.66,213.45 237.28,213.19C246.45,213 257.41,213.88 260.98,210.77C263.03,208.98 262.09,205.19 262.84,203.12C263.39,201.61 264.12,200.92 264.7,199.37C265.56,197.09 266.21,193.65 267.02,190.59C267.9,187.25 267.66,182.89 269.8,180.12C272.18,177.04 276.91,174.64 281.41,173.53C286.72,172.22 296.23,176.79 299.97,174.11C303.26,171.75 301.89,164.32 304.15,160.37C306.3,156.6 310.37,151.1 312.97,150.77C314.66,150.56 315.61,153.01 317.61,153.8C320.52,154.95 326.75,153.69 329.22,155.84C331.55,157.87 330.99,165.64 332.47,165.86C333.84,166.06 336.1,158.47 337.58,158.52C338.82,158.56 339.9,164.12 340.83,163.97C342.26,163.74 342.93,153.94 344.08,149.38C345.11,145.3 345.63,138.75 347.33,137.85C348.24,137.37 349.88,139.28 350.58,138.92C351.26,138.56 350.96,135.92 351.51,135.77C352.05,135.62 353.07,136.97 353.83,137.94C354.93,139.35 355.46,141.8 357.08,143.72C359.31,146.36 364.56,151.61 366.83,151.62C368.04,151.62 368.71,149.17 369.62,149.39C371.25,149.79 373.12,156.01 374.26,159.95C375.59,164.55 375.28,171.96 376.58,175.49C377.33,177.53 378.32,178.51 379.37,179.96C380.47,181.47 381.04,183.43 383.08,184.36C386.84,186.08 394.88,183.18 402.59,184.09C414.24,185.46 439.71,196.42 445.79,195.03C447.67,194.6 448.13,191.99 449.04,192.3C450.75,192.88 450.76,203.36 452.29,207.08C453.33,209.6 454.28,212.41 456.01,212.97C457.8,213.55 460.67,210.24 462.97,210.15C465.15,210.06 467.66,211.64 469.45,212.18C470.72,212.56 471.42,213.22 472.7,213.12C474.7,212.97 478.37,211.67 480.13,209.66C482.15,207.36 481.99,202.13 483.38,199.4C484.44,197.31 485.03,195.71 487.1,194.33C490.67,191.95 500.83,193.18 505.21,189.89C509.24,186.86 510.35,177.02 513.1,176.21C514.76,175.72 516.55,178.56 518.21,178.83C519.64,179.06 521.02,178.73 522.39,178.18C523.97,177.54 525.64,176.35 527.03,174.94C528.63,173.32 529.77,170.71 531.21,168.79C532.56,166.99 534.19,165.16 535.39,163.75C536.27,162.71 536.74,161.36 537.71,161.08C538.73,160.78 539.52,161.82 541.43,162.2C547.26,163.37 568.81,166.01 577.65,165.96C582.76,165.93 585.43,164.34 589.74,164.56C594.78,164.81 603.16,166.11 605.99,168.11C607.45,169.14 607.15,171.3 608.31,171.86C609.56,172.47 612.03,170.72 613.42,171.29C614.82,171.87 615.65,173.98 616.67,175.34C617.66,176.66 618.6,177.53 619.46,179.32C620.87,182.25 621.31,191.32 623.17,191.81C624.54,192.17 626.94,189.01 628.28,186.92C629.87,184.45 630.17,177.88 631.53,177.6C632.48,177.4 633.69,179.72 634.78,181.12C636.16,182.89 637.88,185.11 638.94,187.52C640.11,190.17 639.9,194.78 641.26,196.48C642.11,197.55 643.51,197.23 644.51,198.16C645.9,199.44 646.97,202.64 648.23,204.11C649.14,205.17 649.99,205.71 651.01,206.5C652.14,207.37 653.63,207.92 654.73,209.08C656.01,210.43 656.67,213.44 657.98,214.35C658.94,215.02 660.08,214.26 661.23,214.99C663.46,216.41 666.78,224.83 668.66,225.07C669.58,225.19 670.08,223.26 670.98,223.18C672.04,223.08 673.46,225.22 674.69,225.19C675.94,225.16 677.22,223.36 678.41,222.91C679.37,222.55 680.41,221.92 681.19,222.41C682.68,223.34 683.17,232.27 683.98,232.39C684.31,232.44 684.53,230.93 684.91,230.93C685.51,230.93 686.22,233.78 687.23,234.49C688.13,235.12 689.39,235.42 690.48,235.26C691.71,235.08 693.1,234.14 694.2,233.14C695.47,231.98 696.25,228.87 697.45,228.49C698.32,228.22 699.19,229.38 700.23,229.5C701.47,229.64 703.27,229.8 704.41,228.97C705.95,227.85 706.17,223.99 707.66,222.01C709.12,220.08 711.44,217.97 713.23,217.2C714.5,216.65 715.96,217.42 716.95,216.83C717.99,216.21 718.26,214.29 719.27,213.43C720.28,212.57 721.79,212.26 722.99,211.69C724.11,211.16 724.97,210.44 726.24,210.14C727.81,209.77 730.21,210.74 731.81,210.04C733.48,209.31 734.36,206.94 735.99,205.71C737.73,204.39 740.3,204.03 742.02,202.48C743.92,200.77 745.11,197.88 746.67,195.6C748.22,193.33 749.41,190.6 751.33,188.84C753.16,187.16 755.98,185.79 757.83,185.13C759.05,184.69 760.13,185.25 761.08,184.57C762.45,183.58 762.61,179.43 764.33,178.49C766.12,177.51 769.82,179.35 771.76,179.05C773.09,178.84 773.96,177.76 775.01,177.74C775.97,177.72 776.74,178.8 777.8,178.76C779.26,178.71 781.13,176.44 782.9,176.45C784.83,176.46 787.1,179.42 788.94,179.27C790.63,179.13 791.91,176.26 793.58,176.08C795.31,175.89 797.34,178.34 799.16,178.36Q800.89,178.38 804.26,176.39" style="vector-effect: non-scaling-stroke; fill: none; stroke: rgb(0, 0, 0); stroke-opacity: 1; stroke-width: 2px; opacity: 1;"/></g><g class="points"/><g class="text"/></g></g></g><g class="overplot"/><path class="xlines-above crisp" d="M0,0" style="fill: none;"/><path class="ylines-above crisp" d="M0,0" style="fill: none;"/><g class="overlines-above"/><g class="xaxislayer-above"><g class="xtick"><text text-anchor="middle" x="0" y="433" transform="translate(90.6,0)" style="font-family: 'Open Sans', verdana, arial, sans-serif; font-size: 12px; fill: rgb(68, 68, 68); fill-opacity: 1; white-space: pre;">Jul 2014</text></g><g class="xtick"><text text-anchor="middle" x="0" y="433" transform="translate(176.04000000000002,0)" style="font-family: 'Open Sans', verdana, arial, sans-serif; font-size: 12px; fill: rgb(68, 68, 68); fill-opacity: 1; white-space: pre;">Jan 2015</text></g><g class="xtick"><text text-anchor="middle" x="0" y="433" transform="translate(260.09000000000003,0)" style="font-family: 'Open Sans', verdana, arial, sans-serif; font-size: 12px; fill: rgb(68, 68, 68); fill-opacity: 1; white-space: pre;">Jul 2015</text></g><g class="xtick"><text text-anchor="middle" x="0" y="433" transform="translate(345.53,0)" style="font-family: 'Open Sans', verdana, arial, sans-serif; font-size: 12px; fill: rgb(68, 68, 68); fill-opacity: 1; white-space: pre;">Jan 2016</text></g><g class="xtick"><text text-anchor="middle" x="0" y="433" transform="translate(430.04,0)" style="font-family: 'Open Sans', verdana, arial, sans-serif; font-size: 12px; fill: rgb(68, 68, 68); fill-opacity: 1; white-space: pre;">Jul 2016</text></g><g class="xtick"><text text-anchor="middle" x="0" y="433" transform="translate(515.48,0)" style="font-family: 'Open Sans', verdana, arial, sans-serif; font-size: 12px; fill: rgb(68, 68, 68); fill-opacity: 1; white-space: pre;">Jan 2017</text></g><g class="xtick"><text text-anchor="middle" x="0" y="433" transform="translate(599.52,0)" style="font-family: 'Open Sans', verdana, arial, sans-serif; font-size: 12px; fill: rgb(68, 68, 68); fill-opacity: 1; white-space: pre;">Jul 2017</text></g><g class="xtick"><text text-anchor="middle" x="0" y="433" transform="translate(684.96,0)" style="font-family: 'Open Sans', verdana, arial, sans-serif; font-size: 12px; fill: rgb(68, 68, 68); fill-opacity: 1; white-space: pre;">Jan 2018</text></g><g class="xtick"><text text-anchor="middle" x="0" y="433" transform="translate(769.01,0)" style="font-family: 'Open Sans', verdana, arial, sans-serif; font-size: 12px; fill: rgb(68, 68, 68); fill-opacity: 1; white-space: pre;">Jul 2018</text></g><g class="xtick"><text text-anchor="middle" x="0" y="433" transform="translate(854.45,0)" style="font-family: 'Open Sans', verdana, arial, sans-serif; font-size: 12px; fill: rgb(68, 68, 68); fill-opacity: 1; white-space: pre;">Jan 2019</text></g></g><g class="yaxislayer-above"><g class="ytick"><text text-anchor="end" x="79" y="4.199999999999999" transform="translate(0,417.01)" style="font-family: 'Open Sans', verdana, arial, sans-serif; font-size: 12px; fill: rgb(68, 68, 68); fill-opacity: 1; white-space: pre;">0</text></g><g class="ytick"><text text-anchor="end" x="79" y="4.199999999999999" transform="translate(0,351.94)" style="font-family: 'Open Sans', verdana, arial, sans-serif; font-size: 12px; fill: rgb(68, 68, 68); fill-opacity: 1; white-space: pre;">5k</text></g><g class="ytick"><text text-anchor="end" x="79" y="4.199999999999999" transform="translate(0,286.87)" style="font-family: 'Open Sans', verdana, arial, sans-serif; font-size: 12px; fill: rgb(68, 68, 68); fill-opacity: 1; white-space: pre;">10k</text></g><g class="ytick"><text text-anchor="end" x="79" y="4.199999999999999" transform="translate(0,221.8)" style="font-family: 'Open Sans', verdana, arial, sans-serif; font-size: 12px; fill: rgb(68, 68, 68); fill-opacity: 1; white-space: pre;">15k</text></g><g class="ytick"><text text-anchor="end" x="79" y="4.199999999999999" transform="translate(0,156.73)" style="font-family: 'Open Sans', verdana, arial, sans-serif; font-size: 12px; fill: rgb(68, 68, 68); fill-opacity: 1; white-space: pre;">20k</text></g></g><g class="overaxes-above"/></g></g><g class="polarlayer"/><g class="ternarylayer"/><g class="geolayer"/><g class="pielayer"/><g class="glimages"/><defs id="topdefs-c18dee"><g class="clips"/></defs><g class="layer-above"><g class="imagelayer"/><g class="shapelayer"/></g><g class="infolayer"><g class="g-gtitle"><text class="gtitle" x="500" y="50" text-anchor="middle" dy="0em" style="font-family: 'Open Sans', verdana, arial, sans-serif; font-size: 17px; fill: rgb(68, 68, 68); opacity: 1; font-weight: normal; white-space: pre;"><tspan class="line" dy="0em" x="500" y="50"><tspan style="font-weight:bold">Chest Volume Peaked in the Summer of 2016, But Never Recovered Due to Injury</tspan></tspan><tspan class="line" dy="1.3em" x="500" y="50"><tspan style="font-style:italic">Chest Volume Lifted Over Time, 15-Workout Mean in Black</tspan></tspan></text></g><g class="g-xtitle"/><g class="g-ytitle"><text class="ytitle" transform="rotate(-90,42,260)" x="42" y="260" text-anchor="middle" style="font-family: 'Open Sans', verdana, arial, sans-serif; font-size: 14px; fill: rgb(68, 68, 68); opacity: 1; font-weight: normal; white-space: pre;">Volume (lbs)</text></g></g></svg>