<svg class="main-svg" xmlns="http://www.w3.org/2000/svg" xmlns:xlink="http://www.w3.org/1999/xlink" width="1000" height="500" viewBox="0 0 1000 500"><rect x="0" y="0" width="1000" height="500" style="fill: rgb(229, 229, 229); fill-opacity: 1;"/><defs id="defs-567acd"><g class="clips"><clipPath id="clip567acdxyplot" class="plotclip"><rect width="840" height="320"/></clipPath><clipPath class="axesclip" id="clip567acdx"><rect x="80" y="0" width="840" height="500"/></clipPath><clipPath class="axesclip" id="clip567acdy"><rect x="0" y="100" width="1000" height="320"/></clipPath><clipPath class="axesclip" id="clip567acdxy"><rect x="80" y="100" width="840" height="320"/></clipPath></g><g class="gradients"/></defs><g class="bglayer"/><g class="layer-below"><g class="imagelayer"/><g class="shapelayer"/></g><g class="cartesianlayer"><g class="subplot xy"><g class="layer-subplot"><g class="shapelayer"/><g class="imagelayer"/></g><g class="gridlayer"><g class="x"/><g class="y"><path class="ygrid crisp" transform="translate(0,347.53)" d="M80,0h840" style="stroke: rgb(214, 214, 214); stroke-opacity: 1; stroke-width: 1px;"/><path class="ygrid crisp" transform="translate(0,291.06)" d="M80,0h840" style="stroke: rgb(214, 214, 214); stroke-opacity: 1; stroke-width: 1px;"/><path class="ygrid crisp" transform="translate(0,234.59)" d="M80,0h840" style="stroke: rgb(214, 214, 214); stroke-opacity: 1; stroke-width: 1px;"/><path class="ygrid crisp" transform="translate(0,178.12)" d="M80,0h840" style="stroke: rgb(214, 214, 214); stroke-opacity: 1; stroke-width: 1px;"/><path class="ygrid crisp" transform="translate(0,121.65)" d="M80,0h840" style="stroke: rgb(214, 214, 214); stroke-opacity: 1; stroke-width: 1px;"/></g></g><g class="zerolinelayer"><path class="yzl zl crisp" transform="translate(0,404)" d="M80,0h840" style="stroke: rgb(68, 68, 68); stroke-opacity: 1; stroke-width: 1px;"/></g><path class="xlines-below"/><path class="ylines-below"/><g class="overlines-below"/><g class="xaxislayer-below"/><g class="yaxislayer-below"/><g class="overaxes-below"/><g class="plot" transform="translate(80, 100)" clip-path="url(#clip567acdxyplot)"><g class="scatterlayer mlayer"><g class="trace scatter trace3b38afdc-90a9-4998-97b4-71c5750dcb93" style="stroke-miterlimit: 2; opacity: 0.5;"><g class="fills"/><g class="errorbars"/><g class="lines"><path class="js-line" d="M0,134.59L0,168.47L2.98,241.88L8.94,49.88L8.94,49.88L32.77,304L35.74,236.24L35.74,32.94L35.74,224.94L44.68,304L44.68,16L44.68,303.44L50.64,281.41L50.64,284.24L50.64,134.59L56.6,304L74.47,304L74.47,128.94L74.47,303.55L83.4,304L89.36,304L89.36,230.59L89.36,284.24L95.32,195.58L95.32,303.55L107.23,247.53L113.19,304L116.17,230.59L131.06,304L134.04,16L134.04,303.32L137.02,304L137.02,134.59L148.94,123.29L148.94,304L148.94,303.89L157.87,304L157.87,134.59L172.77,304L193.62,304L211.49,168.47L211.49,222.68L214.47,143.06L214.47,207.44L214.47,198.4L262.13,209.13L262.13,222.68L271.06,143.06L271.06,188.8L524.38,289.88L524.38,264.47L578,253.18L578,276.89L578,264.47L580.98,258.82L580.98,191.06L583.95,303.55L583.95,212.52L601.83,253.18L601.83,241.88L601.83,303.44L601.83,303.44L604.8,247.53L604.8,303.89L610.76,247.53L613.74,159.44L613.74,303.44L613.74,202.35L613.74,253.18L616.72,302.98L616.72,303.55L616.72,219.29L616.72,241.88L622.68,303.89L631.61,304L631.61,241.88L631.61,236.24L634.59,303.32L634.59,145.88L634.59,195.58L643.53,247.53L643.53,241.88L652.46,304L655.44,303.89L753.74,253.18L753.74,247.53L753.74,290.45L801.4,157.18L801.4,195.58L837.02,253.18L837.02,106.35L840,304" style="vector-effect: non-scaling-stroke; fill: none; stroke: rgb(166, 67, 31); stroke-opacity: 1; stroke-width: 2px; opacity: 1;"/></g><g class="points"/><g class="text"/></g><g class="trace scatter trace11411da6-730a-40f0-9161-da1a0ee5cb5b" style="stroke-miterlimit: 2; opacity: 1;"><g class="fills"/><g class="errorbars"/><g class="lines"><path class="js-line" d="M35.74,162.03Q35.74,169.33 35.74,172.01C35.74,173.81 35.02,176.18 35.74,176.53C36.89,177.08 43.07,168.6 44.68,169.37C46.57,170.28 44.68,179.83 44.68,185.19C44.68,190.74 44.68,196.48 44.68,202.13C44.68,207.78 43.48,218.78 44.68,219.07C45.74,219.32 49.8,210.91 50.64,207.4C51.26,204.81 50.64,200.24 50.64,200.24C50.64,200.24 50.64,214.07 50.64,218.29C50.64,220.57 49.73,222.65 50.64,223.56C51.6,224.52 54.52,222.59 56.6,223.56C60.28,225.28 65.53,232.52 68.51,237.86C71.5,243.24 73.71,255.86 74.47,255.74C74.94,255.66 74.47,250.43 74.47,248.55C74.47,247.33 74.47,245.54 74.47,245.54C74.47,245.54 74.16,246.49 74.47,246.83C75.29,247.72 81.02,246.01 83.4,247.58C86.24,249.46 88.6,259.07 89.36,258.88C89.83,258.76 89.36,253.98 89.36,253.98C89.36,253.98 89.36,253.98 89.36,253.98C89.36,253.98 94.89,234.72 95.32,234.78C95.44,234.8 95.32,235.55 95.32,236.29C95.32,238.34 93.37,245.96 95.32,247.91C97.29,249.89 104.23,249.55 107.23,247.94C110.09,246.4 111.71,242.22 113.19,238.91C114.73,235.47 113.72,230.57 116.17,227.61C119.08,224.09 127.98,220.51 131.06,220.46C132.43,220.44 133.45,220.87 134.04,221.78C134.92,223.14 134.04,226.87 134.04,229C134.04,230.68 133.78,233.48 134.04,233.52C134.43,233.58 136.57,226.54 137.02,223.38C137.4,220.71 137.02,215.85 137.02,215.85C137.02,215.85 137.02,215.85 137.02,215.85C137.02,215.85 147.13,221.96 148.94,220.75C150.46,219.73 148.94,211.71 148.94,211.71C148.94,211.71 147.11,221.81 148.94,224.59C150.53,227.01 156.6,229.27 157.87,228.43C158.81,227.81 157.87,225.15 157.87,223.05C157.87,220.08 155.94,214.48 157.87,212.32C160.15,209.77 167.39,210.59 172.77,210.63C179.14,210.68 187,211.88 193.62,213.34C199.87,214.72 209.16,220.66 211.49,218.95C212.98,217.86 211.49,213.77 211.49,211.27C211.49,208.87 211.49,206.52 211.49,204.24C211.49,202.07 210.89,198.12 211.49,197.91C212.02,197.73 213.95,200.23 214.47,201.75C215.04,203.42 214.47,207.62 214.47,207.62C214.47,207.62 214.47,200.47 214.47,196.89C214.47,193.31 214.47,188.19 214.47,186.16C214.47,185.35 214.47,185.07 214.47,184.47C214.47,183.77 213.85,182.86 214.47,182.21C217.31,179.23 259.29,182.93 262.13,179.95C262.75,179.3 262.13,177.69 262.13,177.69C262.13,177.69 260.86,184.61 262.13,187.48C263.54,190.66 269.88,192.92 271.06,195.58C271.83,197.33 271.06,199.09 271.06,200.77C271.06,202.36 271.06,203.82 271.06,205.4C271.06,207.05 271.06,208.86 271.06,210.45C271.06,211.87 271.06,214.48 271.06,214.48C271.06,214.48 270.68,213.64 271.06,213.27C276.52,207.95 515.47,210.43 524.38,219.57C525.43,220.65 523.46,222 524.38,223.1C528.01,227.43 573.97,227.88 578,232.7C579.18,234.11 578,235.61 578,237.33C578,239.5 577.37,242.62 578,244.68C578.54,246.44 580.51,247.56 580.98,249.12C581.41,250.54 580.6,252.04 580.98,253.56C581.43,255.38 583.66,259.24 583.95,259.17C584.07,259.14 583.95,258.32 583.95,258.04C583.95,257.88 583.95,257.66 583.95,257.66C583.95,257.66 583.17,260.15 583.95,261.01C585.75,262.99 600.64,263.86 601.83,262.78C602.13,262.51 601.83,261.65 601.83,261.65C601.83,261.65 601.83,263.6 601.83,264.66C601.83,265.84 601.83,268.42 601.83,268.42C601.83,268.42 601.83,258.82 601.83,258.82C601.83,258.82 601.83,260.66 601.83,260.66C601.83,260.66 601.83,258.03 601.83,258.03C601.83,258.03 601.7,258.8 601.83,258.85C602.13,258.96 604.51,255.36 604.8,255.47C604.92,255.51 604.64,255.92 604.8,256.22C605.28,257.14 609.11,259.17 610.76,260.29C611.92,261.08 613.31,261.51 613.74,262.32C614.06,262.93 613.74,264.37 613.74,264.37C613.74,264.37 613.74,262.71 613.74,261.73C613.74,260.51 613.74,257.63 613.74,257.63C613.74,257.63 613.74,257.64 613.74,257.66C613.74,257.87 613.35,261.29 613.74,261.42C614.2,261.57 616.44,258.15 616.72,257.29C616.83,256.96 616.72,256.53 616.72,256.53C616.72,256.53 616.72,266.13 616.72,266.13C616.72,266.13 616.72,259.62 616.72,256.75C616.72,254.31 615.84,251.93 616.72,249.98C617.67,247.86 620.29,245.68 622.68,244.71C625.21,243.68 631.11,244.78 631.61,244.25C631.71,244.14 631.61,244.07 631.61,243.88C631.61,243.29 631.22,241.38 631.61,240.18C632.07,238.77 634.52,236.06 634.59,236.08C634.6,236.08 634.59,236.09 634.59,236.11C634.59,236.37 634.59,240.02 634.59,241.75C634.59,243.24 634.59,245.89 634.59,245.89C634.59,245.89 633.94,243.49 634.59,242.51C635.7,240.84 642.64,238.15 643.53,238.74C643.91,238.99 643.53,239.82 643.53,240.51C643.53,241.5 642.99,243.92 643.53,244.13C644.55,244.53 652.03,234.21 652.46,234.38C652.53,234.41 652.39,234.59 652.46,234.76C652.68,235.35 653.4,237.07 655.44,238.07C665.04,242.77 748.34,239.42 753.74,245.23C754.81,246.38 753.74,249.07 753.74,249.07C753.74,249.07 753.74,246.81 753.74,246.05C753.74,245.58 753.42,245.31 753.74,244.92C755.84,242.38 801.4,235.89 801.4,235.89Q801.4,235.89 801.4,235.89" style="vector-effect: non-scaling-stroke; fill: none; stroke: rgb(0, 0, 0); stroke-opacity: 1; stroke-width: 2px; opacity: 1;"/></g><g class="points"/><g class="text"/></g></g></g><g class="overplot"/><path class="xlines-above crisp" d="M0,0" style="fill: none;"/><path class="ylines-above crisp" d="M0,0" style="fill: none;"/><g class="overlines-above"/><g class="xaxislayer-above"><g class="xtick"><text text-anchor="middle" x="0" y="433" transform="translate(150.99,0)" style="font-family: 'Open Sans', verdana, arial, sans-serif; font-size: 12px; fill: rgb(68, 68, 68); fill-opacity: 1; white-space: pre;">Jul 2014</text></g><g class="xtick"><text text-anchor="middle" x="0" y="433" transform="translate(243.33,0)" style="font-family: 'Open Sans', verdana, arial, sans-serif; font-size: 12px; fill: rgb(68, 68, 68); fill-opacity: 1; white-space: pre;">Aug 2014</text></g><g class="xtick"><text text-anchor="middle" x="0" y="433" transform="translate(335.66999999999996,0)" style="font-family: 'Open Sans', verdana, arial, sans-serif; font-size: 12px; fill: rgb(68, 68, 68); fill-opacity: 1; white-space: pre;">Sep 2014</text></g><g class="xtick"><text text-anchor="middle" x="0" y="433" transform="translate(425.04,0)" style="font-family: 'Open Sans', verdana, arial, sans-serif; font-size: 12px; fill: rgb(68, 68, 68); fill-opacity: 1; white-space: pre;">Oct 2014</text></g><g class="xtick"><text text-anchor="middle" x="0" y="433" transform="translate(517.38,0)" style="font-family: 'Open Sans', verdana, arial, sans-serif; font-size: 12px; fill: rgb(68, 68, 68); fill-opacity: 1; white-space: pre;">Nov 2014</text></g><g class="xtick"><text text-anchor="middle" x="0" y="433" transform="translate(606.74,0)" style="font-family: 'Open Sans', verdana, arial, sans-serif; font-size: 12px; fill: rgb(68, 68, 68); fill-opacity: 1; white-space: pre;">Dec 2014</text></g><g class="xtick"><text text-anchor="middle" x="0" y="433" transform="translate(699.08,0)" style="font-family: 'Open Sans', verdana, arial, sans-serif; font-size: 12px; fill: rgb(68, 68, 68); fill-opacity: 1; white-space: pre;">Jan 2015</text></g><g class="xtick"><text text-anchor="middle" x="0" y="433" transform="translate(791.42,0)" style="font-family: 'Open Sans', verdana, arial, sans-serif; font-size: 12px; fill: rgb(68, 68, 68); fill-opacity: 1; white-space: pre;">Feb 2015</text></g><g class="xtick"><text text-anchor="middle" x="0" y="433" transform="translate(874.82,0)" style="font-family: 'Open Sans', verdana, arial, sans-serif; font-size: 12px; fill: rgb(68, 68, 68); fill-opacity: 1; white-space: pre;">Mar 2015</text></g></g><g class="yaxislayer-above"><g class="ytick"><text text-anchor="end" x="79" y="4.199999999999999" transform="translate(0,404)" style="font-family: 'Open Sans', verdana, arial, sans-serif; font-size: 12px; fill: rgb(68, 68, 68); fill-opacity: 1; white-space: pre;">0</text></g><g class="ytick"><text text-anchor="end" x="79" y="4.199999999999999" transform="translate(0,347.53)" style="font-family: 'Open Sans', verdana, arial, sans-serif; font-size: 12px; fill: rgb(68, 68, 68); fill-opacity: 1; white-space: pre;">500</text></g><g class="ytick"><text text-anchor="end" x="79" y="4.199999999999999" transform="translate(0,291.06)" style="font-family: 'Open Sans', verdana, arial, sans-serif; font-size: 12px; fill: rgb(68, 68, 68); fill-opacity: 1; white-space: pre;">1000</text></g><g class="ytick"><text text-anchor="end" x="79" y="4.199999999999999" transform="translate(0,234.59)" style="font-family: 'Open Sans', verdana, arial, sans-serif; font-size: 12px; fill: rgb(68, 68, 68); fill-opacity: 1; white-space: pre;">1500</text></g><g class="ytick"><text text-anchor="end" x="79" y="4.199999999999999" transform="translate(0,178.12)" style="font-family: 'Open Sans', verdana, arial, sans-serif; font-size: 12px; fill: rgb(68, 68, 68); fill-opacity: 1; white-space: pre;">2000</text></g><g class="ytick"><text text-anchor="end" x="79" y="4.199999999999999" transform="translate(0,121.65)" style="font-family: 'Open Sans', verdana, arial, sans-serif; font-size: 12px; fill: rgb(68, 68, 68); fill-opacity: 1; white-space: pre;">2500</text></g></g><g class="overaxes-above"/></g></g><g class="polarlayer"/><g class="ternarylayer"/><g class="geolayer"/><g class="pielayer"/><g class="glimages"/><defs id="topdefs-567acd"><g class="clips"/></defs><g class="layer-above"><g class="imagelayer"/><g class="shapelayer"/></g><g class="infolayer"><g class="g-gtitle"><text class="gtitle" x="500" y="50" text-anchor="middle" dy="0em" style="font-family: 'Open Sans', verdana, arial, sans-serif; font-size: 17px; fill: rgb(68, 68, 68); opacity: 1; font-weight: normal; white-space: pre;"><tspan class="line" dy="0em" x="500" y="50"><tspan style="font-weight:bold">Chest Volume Peaked in the Summer of 2016, But Never Recovered Due to Injury</tspan></tspan><tspan class="line" dy="1.3em" x="500" y="50"><tspan style="font-style:italic">Chest Volume Lifted Over Time, 15-Workout Mean in Black</tspan></tspan></text></g><g class="g-xtitle"/><g class="g-ytitle"><text class="ytitle" transform="rotate(-90,42,260)" x="42" y="260" text-anchor="middle" style="font-family: 'Open Sans', verdana, arial, sans-serif; font-size: 14px; fill: rgb(68, 68, 68); opacity: 1; font-weight: normal; white-space: pre;">Volume (lbs)</text></g></g></svg>