<svg class="main-svg" xmlns="http://www.w3.org/2000/svg" xmlns:xlink="http://www.w3.org/1999/xlink" width="1000" height="500" viewBox="0 0 1000 500"><rect x="0" y="0" width="1000" height="500" style="fill: rgb(229, 229, 229); fill-opacity: 1;"/><defs id="defs-817415"><g class="clips"><clipPath id="clip817415xyplot" class="plotclip"><rect width="840" height="320"/></clipPath><clipPath class="axesclip" id="clip817415x"><rect x="80" y="0" width="840" height="500"/></clipPath><clipPath class="axesclip" id="clip817415y"><rect x="0" y="100" width="1000" height="320"/></clipPath><clipPath class="axesclip" id="clip817415xy"><rect x="80" y="100" width="840" height="320"/></clipPath></g><g class="gradients"/></defs><g class="bglayer"/><g class="layer-below"><g class="imagelayer"/><g class="shapelayer"/></g><g class="cartesianlayer"><g class="subplot xy"><g class="layer-subplot"><g class="shapelayer"/><g class="imagelayer"/></g><g class="gridlayer"><g class="x"/><g class="y"><path class="ygrid crisp" transform="translate(0,353.31)" d="M80,0h840" style="stroke: rgb(214, 214, 214); stroke-opacity: 1; stroke-width: 1px;"/><path class="ygrid crisp" transform="translate(0,294.36)" d="M80,0h840" style="stroke: rgb(214, 214, 214); stroke-opacity: 1; stroke-width: 1px;"/><path class="ygrid crisp" transform="translate(0,235.41)" d="M80,0h840" style="stroke: rgb(214, 214, 214); stroke-opacity: 1; stroke-width: 1px;"/><path class="ygrid crisp" transform="translate(0,176.45)" d="M80,0h840" style="stroke: rgb(214, 214, 214); stroke-opacity: 1; stroke-width: 1px;"/><path class="ygrid crisp" transform="translate(0,117.5)" d="M80,0h840" style="stroke: rgb(214, 214, 214); stroke-opacity: 1; stroke-width: 1px;"/></g></g><g class="zerolinelayer"><path class="yzl zl crisp" transform="translate(0,412.26)" d="M80,0h840" style="stroke: rgb(68, 68, 68); stroke-opacity: 1; stroke-width: 1px;"/></g><path class="xlines-below"/><path class="ylines-below"/><g class="overlines-below"/><g class="xaxislayer-below"/><g class="yaxislayer-below"/><g class="overaxes-below"/><g class="plot" transform="translate(80, 100)" clip-path="url(#clip817415xyplot)"><g class="scatterlayer mlayer"><g class="trace scatter traced6dfc502-6972-4c17-be12-6b5079628cf6" style="stroke-miterlimit: 2; opacity: 0.5;"><g class="fills"/><g class="errorbars"/><g class="lines"><path class="js-line" d="M0,236.21L5.16,248.71L6.88,244.91L24.07,244.91L110.04,292.22L114.62,304L115.77,303.71L118.63,303.12L159.29,235.33L164.45,227.96L217.16,241.52L234.92,258.26L324.33,223.36L328.92,216.37L352.98,226.9L373.02,276.45L381.04,169.01L386.77,158.66L389.06,148.2L397.08,142.74L404.53,169.42L409.69,167.24L417.71,138.17L422.29,116.72L426.88,263.18L430.31,83.82L433.18,46.38L438.34,125.12L441.2,29.94L444.64,32.68L449.22,16L453.23,69.14L456.67,65.67L461.83,32.24L466.41,122.73L469.85,98.65L474.43,99.1L477.3,94.1L483.03,217.23L486.47,261.85L495.06,262L499.07,258.96L503.66,292.56L589.03,176.41L630.86,259.2L683,302.59L690.45,297.82L695.03,299.71L699.05,295.46L745.48,226.78L757.51,222.06L763.82,228.25L770.12,220.3L778.71,224.86L790.72,229.87L795.88,176.49L807.34,290.33L831.98,256.26L840,278.66" style="vector-effect: non-scaling-stroke; fill: none; stroke: rgb(128, 128, 128); stroke-opacity: 1; stroke-width: 2px; opacity: 1;"/></g><g class="points"/><g class="text"/></g><g class="trace scatter trace339a3fa1-7202-46b4-b8cf-fcbd0df9353d" style="stroke-miterlimit: 2; opacity: 1;"><g class="fills"/><g class="errorbars"/><g class="lines"><path class="js-line" d="M118.63,253.83Q152.41,259.15 159.29,256.51C162.22,255.38 161.41,252.68 164.45,251.2C172.58,247.23 204.38,248.42 217.16,245.45C224.79,243.68 226.57,240.95 234.92,239C253.14,234.74 313.43,236.57 324.33,229.04C327.98,226.52 326.05,222.64 328.92,220.07C333.51,215.96 345.44,214.44 352.98,210.97C360.09,207.69 368.03,203.69 373.02,199.97C376.52,197.36 378.42,192.59 381.04,192.07C382.98,191.69 385.43,195.11 386.77,194.41C388.53,193.48 387.66,187.55 389.06,183.9C390.78,179.42 394.12,173.41 397.08,169.78C399.39,166.94 402.51,166.05 404.53,163.23C406.88,159.95 407.59,154.9 409.69,150.8C411.93,146.44 415.64,142.65 417.71,137.85C419.95,132.64 420.31,124.79 422.29,120.49C423.62,117.6 425.51,116.04 426.88,113.83C428.16,111.76 429.29,109.85 430.31,107.63C431.41,105.23 431.57,101.36 433.18,99.9C434.48,98.73 437.01,99.55 438.34,98.56C439.69,97.55 440.16,95.38 441.2,93.85C442.26,92.29 443.28,90.56 444.64,89.3C445.97,88.07 447.88,86.05 449.22,86.37C450.83,86.75 451.66,92.21 453.23,93.07C454.27,93.64 455.61,92.31 456.67,92.98C458.72,94.29 460.25,100.69 461.83,104.86C463.52,109.34 465.01,114.58 466.41,119.03C467.65,122.97 468.48,126.64 469.85,130.19C471.17,133.6 473.23,136.27 474.43,139.96C475.86,144.37 476.01,149.77 477.3,155.06C478.77,161.09 481.45,168.13 483.03,174.16C484.43,179.5 484.58,184.43 486.47,189.41C488.49,194.73 492.96,199.5 495.06,205.01C497.17,210.55 497.19,218.17 499.07,222.56C500.35,225.55 500.39,227.53 503.66,229.5C514.16,235.81 565.67,234.2 589.03,237.72C605.51,240.2 616.12,243.62 630.86,246.33C647.25,249.34 673.45,253.66 683,254.75C686.59,255.16 688.31,255.65 690.45,255.25C692.21,254.92 693.68,254.25 695.03,253.12C696.62,251.8 696.41,248.71 699.05,247.42C705.86,244.08 735.07,250.31 745.48,249.51C750.83,249.1 754.35,246.07 757.51,247.09Q760.26,247.98 763.82,253.91" style="vector-effect: non-scaling-stroke; fill: none; stroke: rgb(0, 0, 0); stroke-opacity: 1; stroke-width: 2px; opacity: 1;"/></g><g class="points"/><g class="text"/></g></g></g><g class="overplot"/><path class="xlines-above crisp" d="M0,0" style="fill: none;"/><path class="ylines-above crisp" d="M0,0" style="fill: none;"/><g class="overlines-above"/><g class="xaxislayer-above"><g class="xtick"><text text-anchor="middle" x="0" y="433" transform="translate(91.94,0)" style="font-family: 'Open Sans', verdana, arial, sans-serif; font-size: 12px; fill: rgb(68, 68, 68); fill-opacity: 1; white-space: pre;">Jul 2014</text></g><g class="xtick"><text text-anchor="middle" x="0" y="433" transform="translate(197.37,0)" style="font-family: 'Open Sans', verdana, arial, sans-serif; font-size: 12px; fill: rgb(68, 68, 68); fill-opacity: 1; white-space: pre;">Jan 2015</text></g><g class="xtick"><text text-anchor="middle" x="0" y="433" transform="translate(301.08000000000004,0)" style="font-family: 'Open Sans', verdana, arial, sans-serif; font-size: 12px; fill: rgb(68, 68, 68); fill-opacity: 1; white-space: pre;">Jul 2015</text></g><g class="xtick"><text text-anchor="middle" x="0" y="433" transform="translate(406.51,0)" style="font-family: 'Open Sans', verdana, arial, sans-serif; font-size: 12px; fill: rgb(68, 68, 68); fill-opacity: 1; white-space: pre;">Jan 2016</text></g><g class="xtick"><text text-anchor="middle" x="0" y="433" transform="translate(510.79,0)" style="font-family: 'Open Sans', verdana, arial, sans-serif; font-size: 12px; fill: rgb(68, 68, 68); fill-opacity: 1; white-space: pre;">Jul 2016</text></g><g class="xtick"><text text-anchor="middle" x="0" y="433" transform="translate(616.22,0)" style="font-family: 'Open Sans', verdana, arial, sans-serif; font-size: 12px; fill: rgb(68, 68, 68); fill-opacity: 1; white-space: pre;">Jan 2017</text></g><g class="xtick"><text text-anchor="middle" x="0" y="433" transform="translate(719.93,0)" style="font-family: 'Open Sans', verdana, arial, sans-serif; font-size: 12px; fill: rgb(68, 68, 68); fill-opacity: 1; white-space: pre;">Jul 2017</text></g><g class="xtick"><text text-anchor="middle" x="0" y="433" transform="translate(825.36,0)" style="font-family: 'Open Sans', verdana, arial, sans-serif; font-size: 12px; fill: rgb(68, 68, 68); fill-opacity: 1; white-space: pre;">Jan 2018</text></g></g><g class="yaxislayer-above"><g class="ytick"><text text-anchor="end" x="79" y="4.199999999999999" transform="translate(0,412.26)" style="font-family: 'Open Sans', verdana, arial, sans-serif; font-size: 12px; fill: rgb(68, 68, 68); fill-opacity: 1; white-space: pre;">0</text></g><g class="ytick"><text text-anchor="end" x="79" y="4.199999999999999" transform="translate(0,353.31)" style="font-family: 'Open Sans', verdana, arial, sans-serif; font-size: 12px; fill: rgb(68, 68, 68); fill-opacity: 1; white-space: pre;">10k</text></g><g class="ytick"><text text-anchor="end" x="79" y="4.199999999999999" transform="translate(0,294.36)" style="font-family: 'Open Sans', verdana, arial, sans-serif; font-size: 12px; fill: rgb(68, 68, 68); fill-opacity: 1; white-space: pre;">20k</text></g><g class="ytick"><text text-anchor="end" x="79" y="4.199999999999999" transform="translate(0,235.41)" style="font-family: 'Open Sans', verdana, arial, sans-serif; font-size: 12px; fill: rgb(68, 68, 68); fill-opacity: 1; white-space: pre;">30k</text></g><g class="ytick"><text text-anchor="end" x="79" y="4.199999999999999" transform="translate(0,176.45)" style="font-family: 'Open Sans', verdana, arial, sans-serif; font-size: 12px; fill: rgb(68, 68, 68); fill-opacity: 1; white-space: pre;">40k</text></g><g class="ytick"><text text-anchor="end" x="79" y="4.199999999999999" transform="translate(0,117.5)" style="font-family: 'Open Sans', verdana, arial, sans-serif; font-size: 12px; fill: rgb(68, 68, 68); fill-opacity: 1; white-space: pre;">50k</text></g></g><g class="overaxes-above"/></g></g><g class="polarlayer"/><g class="ternarylayer"/><g class="geolayer"/><g class="pielayer"/><g class="glimages"/><defs id="topdefs-817415"><g class="clips"/></defs><g class="layer-above"><g class="imagelayer"/><g class="shapelayer"/></g><g class="infolayer"><g class="g-gtitle"><text class="gtitle" x="500" y="50" text-anchor="middle" dy="0em" style="font-family: 'Open Sans', verdana, arial, sans-serif; font-size: 17px; fill: rgb(68, 68, 68); opacity: 1; font-weight: normal; white-space: pre;"><tspan class="line" dy="0em" x="500" y="50"><tspan style="font-weight:bold">Legs Volume</tspan></tspan><tspan class="line" dy="1.3em" x="500" y="50"><tspan style="font-style:italic">15-Workout Average in Black<tspan style="font-style:italic"></tspan></tspan></tspan></text></g><g class="g-xtitle"/><g class="g-ytitle"><text class="ytitle" transform="rotate(-90,42,260)" x="42" y="260" text-anchor="middle" style="font-family: 'Open Sans', verdana, arial, sans-serif; font-size: 14px; fill: rgb(68, 68, 68); opacity: 1; font-weight: normal; white-space: pre;">Volume (lbs)</text></g></g></svg>