<svg class="main-svg" xmlns="http://www.w3.org/2000/svg" xmlns:xlink="http://www.w3.org/1999/xlink" width="1000" height="500" viewBox="0 0 1000 500"><rect x="0" y="0" width="1000" height="500" style="fill: rgb(229, 229, 229); fill-opacity: 1;"/><defs id="defs-052665"><g class="clips"><clipPath id="clip052665xyplot" class="plotclip"><rect width="840" height="320"/></clipPath><clipPath class="axesclip" id="clip052665x"><rect x="80" y="0" width="840" height="500"/></clipPath><clipPath class="axesclip" id="clip052665y"><rect x="0" y="100" width="1000" height="320"/></clipPath><clipPath class="axesclip" id="clip052665xy"><rect x="80" y="100" width="840" height="320"/></clipPath></g><g class="gradients"/></defs><g class="bglayer"/><g class="layer-below"><g class="imagelayer"/><g class="shapelayer"/></g><g class="cartesianlayer"><g class="subplot xy"><g class="layer-subplot"><g class="shapelayer"/><g class="imagelayer"/></g><g class="gridlayer"><g class="x"/><g class="y"><path class="ygrid crisp" transform="translate(0,347.53)" d="M80,0h840" style="stroke: rgb(214, 214, 214); stroke-opacity: 1; stroke-width: 1px;"/><path class="ygrid crisp" transform="translate(0,291.06)" d="M80,0h840" style="stroke: rgb(214, 214, 214); stroke-opacity: 1; stroke-width: 1px;"/><path class="ygrid crisp" transform="translate(0,234.59)" d="M80,0h840" style="stroke: rgb(214, 214, 214); stroke-opacity: 1; stroke-width: 1px;"/><path class="ygrid crisp" transform="translate(0,178.12)" d="M80,0h840" style="stroke: rgb(214, 214, 214); stroke-opacity: 1; stroke-width: 1px;"/><path class="ygrid crisp" transform="translate(0,121.65)" d="M80,0h840" style="stroke: rgb(214, 214, 214); stroke-opacity: 1; stroke-width: 1px;"/></g></g><g class="zerolinelayer"><path class="yzl zl crisp" transform="translate(0,404)" d="M80,0h840" style="stroke: rgb(68, 68, 68); stroke-opacity: 1; stroke-width: 1px;"/></g><path class="xlines-below"/><path class="ylines-below"/><g class="overlines-below"/><g class="xaxislayer-below"/><g class="yaxislayer-below"/><g class="overaxes-below"/><g class="plot" transform="translate(80, 100)" clip-path="url(#clip052665xyplot)"><g class="scatterlayer mlayer"><g class="trace scatter tracefdf8cbff-8a99-44ce-b692-fe7c83d5af93" style="stroke-miterlimit: 2; opacity: 0.5;"><g class="fills"/><g class="errorbars"/><g class="lines"><path class="js-line" d="M0,134.59L0,303.1L29.58,254.31L44.37,16L44.37,302.87L44.37,303.32L50.28,304L50.28,302.87L56.2,304L70.99,236.24L70.99,263.34L73.94,303.66L88.73,304L94.65,304L94.65,195.58L94.65,303.21L97.61,304L106.48,270.12L112.39,304L133.1,304L133.1,16L133.1,303.55L136.06,168.47L136.06,134.59L147.89,253.18L147.89,304L150.85,304L156.76,134.59L171.55,304L180.42,304L180.42,303.55L183.38,248.09L183.38,287.06L195.21,304L201.13,304L212.96,175.25L260.28,209.13L269.15,198.4L390.42,143.06L390.42,222.68L393.38,213.65L573.93,253.18L573.93,264.47L579.84,304L579.84,168.47L597.59,241.88L597.59,268.42L606.46,303.89L609.42,303.21L840,304" style="vector-effect: non-scaling-stroke; fill: none; stroke: rgb(128, 128, 128); stroke-opacity: 1; stroke-width: 2px; opacity: 1;"/></g><g class="points"/><g class="text"/></g><g class="trace scatter trace20cf1e89-733a-4761-bb98-83384fadfab1" style="stroke-miterlimit: 2; opacity: 1;"><g class="fills"/><g class="errorbars"/><g class="lines"><path class="js-line" d="M50.28,253.65Q49.82,256.18 50.28,257.72C51.03,260.23 53.2,265.08 56.2,266.7C59.72,268.6 69.95,265.72 70.99,266.76C71.27,267.04 70.95,267.25 70.99,267.81C71.18,270.24 70.46,284.01 73.94,287.01C76.97,289.63 84.91,287.07 88.73,287.09C91.15,287.1 94.65,287.13 94.65,287.13C94.65,287.13 94.65,287.13 94.65,287.13C94.65,287.13 92.85,269.86 94.65,268.01C95.36,267.28 96.4,267.66 97.61,267.93C99.82,268.43 103.96,272.87 106.48,272.42C108.83,272 111.34,268.76 112.39,266.1C113.59,263.06 110.96,257.29 112.39,254.83C113.5,252.92 115.78,252.21 118.31,251.44C122.04,250.3 131.44,248.83 133.1,250.38C133.95,251.17 133.1,253.94 133.1,254.22C133.1,254.26 133.1,254.28 133.1,254.28C133.1,254.28 133.1,254.28 133.1,254.28C133.1,254.28 135.53,249.29 136.06,246.37C136.67,242.99 134.16,236.98 136.06,235.08C138.01,233.13 147.89,235.08 147.89,235.08C147.89,235.08 147.89,235.08 147.89,235.08C147.89,235.08 147.89,235.03 147.89,235.03C147.89,235.03 146.56,253.73 147.89,254.2C148.55,254.43 149.51,251.35 150.85,250.55C152.37,249.65 155.68,248.55 156.76,249.45C158.09,250.55 155.35,255.63 156.76,258.48C158.78,262.57 167.17,269.51 171.55,269.78C174.81,269.98 179.19,266.73 180.42,264.58C181.3,263.04 180.42,260.91 180.42,259.31C180.42,257.98 180.21,257.18 180.42,255.66C180.78,253.01 182.97,247.92 183.38,244.93C183.66,242.84 182.35,240.24 183.38,239.51C184.94,238.4 192.18,241.43 195.21,243.65C197.9,245.62 198.4,250.55 201.13,251.56C204.15,252.68 207.66,249.5 212.96,248.92C223.43,247.77 250.75,248.91 260.28,248.92C264.41,248.92 264.5,249.1 269.15,248.93C286.37,248.3 388.2,242.31 390.42,239.92C390.55,239.78 390.35,239.69 390.42,239.51C390.65,238.94 391.3,237.39 393.38,236.5C406.96,230.7 573.49,234.58 573.93,234.13C573.93,234.13 573.93,234.12 573.93,234.12C573.99,234.1 578.98,239.89 579.84,242.65C580.51,244.81 579.84,246.81 579.84,248.98Q579.84,251.26 579.84,256.01" style="vector-effect: non-scaling-stroke; fill: none; stroke: rgb(0, 0, 0); stroke-opacity: 1; stroke-width: 2px; opacity: 1;"/></g><g class="points"/><g class="text"/></g></g></g><g class="overplot"/><path class="xlines-above crisp" d="M0,0" style="fill: none;"/><path class="ylines-above crisp" d="M0,0" style="fill: none;"/><g class="overlines-above"/><g class="xaxislayer-above"><g class="xtick"><text text-anchor="middle" x="0" y="433" transform="translate(150.49,0)" style="font-family: 'Open Sans', verdana, arial, sans-serif; font-size: 12px; fill: rgb(68, 68, 68); fill-opacity: 1; white-space: pre;">Jul 2014</text></g><g class="xtick"><text text-anchor="middle" x="0" y="433" transform="translate(242.18,0)" style="font-family: 'Open Sans', verdana, arial, sans-serif; font-size: 12px; fill: rgb(68, 68, 68); fill-opacity: 1; white-space: pre;">Aug 2014</text></g><g class="xtick"><text text-anchor="middle" x="0" y="433" transform="translate(333.87,0)" style="font-family: 'Open Sans', verdana, arial, sans-serif; font-size: 12px; fill: rgb(68, 68, 68); fill-opacity: 1; white-space: pre;">Sep 2014</text></g><g class="xtick"><text text-anchor="middle" x="0" y="433" transform="translate(422.61,0)" style="font-family: 'Open Sans', verdana, arial, sans-serif; font-size: 12px; fill: rgb(68, 68, 68); fill-opacity: 1; white-space: pre;">Oct 2014</text></g><g class="xtick"><text text-anchor="middle" x="0" y="433" transform="translate(514.3,0)" style="font-family: 'Open Sans', verdana, arial, sans-serif; font-size: 12px; fill: rgb(68, 68, 68); fill-opacity: 1; white-space: pre;">Nov 2014</text></g><g class="xtick"><text text-anchor="middle" x="0" y="433" transform="translate(603.03,0)" style="font-family: 'Open Sans', verdana, arial, sans-serif; font-size: 12px; fill: rgb(68, 68, 68); fill-opacity: 1; white-space: pre;">Dec 2014</text></g><g class="xtick"><text text-anchor="middle" x="0" y="433" transform="translate(694.72,0)" style="font-family: 'Open Sans', verdana, arial, sans-serif; font-size: 12px; fill: rgb(68, 68, 68); fill-opacity: 1; white-space: pre;">Jan 2015</text></g><g class="xtick"><text text-anchor="middle" x="0" y="433" transform="translate(786.41,0)" style="font-family: 'Open Sans', verdana, arial, sans-serif; font-size: 12px; fill: rgb(68, 68, 68); fill-opacity: 1; white-space: pre;">Feb 2015</text></g><g class="xtick"><text text-anchor="middle" x="0" y="433" transform="translate(869.23,0)" style="font-family: 'Open Sans', verdana, arial, sans-serif; font-size: 12px; fill: rgb(68, 68, 68); fill-opacity: 1; white-space: pre;">Mar 2015</text></g></g><g class="yaxislayer-above"><g class="ytick"><text text-anchor="end" x="79" y="4.199999999999999" transform="translate(0,404)" style="font-family: 'Open Sans', verdana, arial, sans-serif; font-size: 12px; fill: rgb(68, 68, 68); fill-opacity: 1; white-space: pre;">0</text></g><g class="ytick"><text text-anchor="end" x="79" y="4.199999999999999" transform="translate(0,347.53)" style="font-family: 'Open Sans', verdana, arial, sans-serif; font-size: 12px; fill: rgb(68, 68, 68); fill-opacity: 1; white-space: pre;">500</text></g><g class="ytick"><text text-anchor="end" x="79" y="4.199999999999999" transform="translate(0,291.06)" style="font-family: 'Open Sans', verdana, arial, sans-serif; font-size: 12px; fill: rgb(68, 68, 68); fill-opacity: 1; white-space: pre;">1000</text></g><g class="ytick"><text text-anchor="end" x="79" y="4.199999999999999" transform="translate(0,234.59)" style="font-family: 'Open Sans', verdana, arial, sans-serif; font-size: 12px; fill: rgb(68, 68, 68); fill-opacity: 1; white-space: pre;">1500</text></g><g class="ytick"><text text-anchor="end" x="79" y="4.199999999999999" transform="translate(0,178.12)" style="font-family: 'Open Sans', verdana, arial, sans-serif; font-size: 12px; fill: rgb(68, 68, 68); fill-opacity: 1; white-space: pre;">2000</text></g><g class="ytick"><text text-anchor="end" x="79" y="4.199999999999999" transform="translate(0,121.65)" style="font-family: 'Open Sans', verdana, arial, sans-serif; font-size: 12px; fill: rgb(68, 68, 68); fill-opacity: 1; white-space: pre;">2500</text></g></g><g class="overaxes-above"/></g></g><g class="polarlayer"/><g class="ternarylayer"/><g class="geolayer"/><g class="pielayer"/><g class="glimages"/><defs id="topdefs-052665"><g class="clips"/></defs><g class="layer-above"><g class="imagelayer"/><g class="shapelayer"/></g><g class="infolayer"><g class="g-gtitle"><text class="gtitle" x="500" y="50" text-anchor="middle" dy="0em" style="font-family: 'Open Sans', verdana, arial, sans-serif; font-size: 17px; fill: rgb(68, 68, 68); opacity: 1; font-weight: normal; white-space: pre;"><tspan class="line" dy="0em" x="500" y="50"><tspan style="font-weight:bold">Legs Volume</tspan></tspan><tspan class="line" dy="1.3em" x="500" y="50"><tspan style="font-style:italic">15-Workout Average in Black<tspan style="font-style:italic"></tspan></tspan></tspan></text></g><g class="g-xtitle"/><g class="g-ytitle"><text class="ytitle" transform="rotate(-90,42,260)" x="42" y="260" text-anchor="middle" style="font-family: 'Open Sans', verdana, arial, sans-serif; font-size: 14px; fill: rgb(68, 68, 68); opacity: 1; font-weight: normal; white-space: pre;">Volume (lbs)</text></g></g></svg>