<svg class="main-svg" xmlns="http://www.w3.org/2000/svg" xmlns:xlink="http://www.w3.org/1999/xlink" width="700" height="500" viewBox="0 0 700 500"><rect x="0" y="0" width="700" height="500" style="fill: rgb(229, 229, 229); fill-opacity: 1;"/><defs id="defs-4d2503"><g class="clips"><clipPath id="clip4d2503xyplot" class="plotclip"><rect width="494" height="320"/></clipPath><clipPath class="axesclip" id="clip4d2503x"><rect x="80" y="0" width="494" height="500"/></clipPath><clipPath class="axesclip" id="clip4d2503y"><rect x="0" y="100" width="700" height="320"/></clipPath><clipPath class="axesclip" id="clip4d2503xy"><rect x="80" y="100" width="494" height="320"/></clipPath></g><g class="gradients"/></defs><g class="bglayer"/><g class="layer-below"><g class="imagelayer"/><g class="shapelayer"/></g><g class="cartesianlayer"><g class="subplot xy"><g class="layer-subplot"><g class="shapelayer"/><g class="imagelayer"/></g><g class="gridlayer"><g class="x"><path class="xgrid crisp" transform="translate(136.36,0)" d="M0,100v320" style="stroke: rgb(214, 214, 214); stroke-opacity: 1; stroke-width: 1px;"/><path class="xgrid crisp" transform="translate(235.81,0)" d="M0,100v320" style="stroke: rgb(214, 214, 214); stroke-opacity: 1; stroke-width: 1px;"/><path class="xgrid crisp" transform="translate(335.53999999999996,0)" d="M0,100v320" style="stroke: rgb(214, 214, 214); stroke-opacity: 1; stroke-width: 1px;"/><path class="xgrid crisp" transform="translate(434.99,0)" d="M0,100v320" style="stroke: rgb(214, 214, 214); stroke-opacity: 1; stroke-width: 1px;"/><path class="xgrid crisp" transform="translate(534.45,0)" d="M0,100v320" style="stroke: rgb(214, 214, 214); stroke-opacity: 1; stroke-width: 1px;"/></g><g class="y"><path class="ygrid crisp" transform="translate(0,334.1)" d="M80,0h494" style="stroke: rgb(214, 214, 214); stroke-opacity: 1; stroke-width: 1px;"/><path class="ygrid crisp" transform="translate(0,264.19)" d="M80,0h494" style="stroke: rgb(214, 214, 214); stroke-opacity: 1; stroke-width: 1px;"/><path class="ygrid crisp" transform="translate(0,194.29000000000002)" d="M80,0h494" style="stroke: rgb(214, 214, 214); stroke-opacity: 1; stroke-width: 1px;"/><path class="ygrid crisp" transform="translate(0,124.39)" d="M80,0h494" style="stroke: rgb(214, 214, 214); stroke-opacity: 1; stroke-width: 1px;"/></g></g><g class="zerolinelayer"><path class="yzl zl crisp" transform="translate(0,404)" d="M80,0h494" style="stroke: rgb(68, 68, 68); stroke-opacity: 1; stroke-width: 1px;"/></g><path class="xlines-below"/><path class="ylines-below"/><g class="overlines-below"/><g class="xaxislayer-below"/><g class="yaxislayer-below"/><g class="overaxes-below"/><g class="plot" transform="translate(80, 100)" clip-path="url(#clip4d2503xyplot)"><g class="scatterlayer mlayer"><g class="trace scatter tracea47260f9-09c7-4eb7-a616-2dbc1755b6e2" style="stroke-miterlimit: 2; opacity: 1;"><g class="fills"/><g class="errorbars"/><g class="lines"><path class="js-line" d="M3.81,242.49Q4.78,235.89 5.72,234.1C6.26,233.07 7.04,232.83 7.63,232C8.33,231.02 8.93,228.48 9.54,228.5C10.2,228.52 10.78,231.38 11.44,232.7C12.05,233.93 12.78,236.25 13.35,236.19C14.09,236.11 14.56,231.76 15.26,229.9C15.85,228.34 16.64,225.62 17.17,225.71C18.44,225.94 18.28,252.24 19.07,252.27C19.63,252.29 20.29,239.01 20.98,238.99C21.58,238.98 22.34,244.79 22.89,248.78C23.74,254.95 23.98,266.23 24.8,272.54C25.35,276.76 25.45,281.99 26.7,283.03C27.23,283.47 28.08,282.54 28.61,283.03C30.38,284.65 29.72,303.96 30.52,304C31.07,304.03 31.22,295.2 32.42,294.21C32.95,293.78 33.69,294.21 34.33,294.21C34.97,294.21 35.6,294.21 36.24,294.21C36.88,294.21 37.51,294.21 38.15,294.21C38.78,294.21 39.52,293.78 40.05,294.21C41.21,295.15 41.33,303.3 41.97,303.3C42.61,303.3 42.72,295.16 43.88,294.21C44.41,293.78 45.15,294.21 45.79,294.21C46.42,294.21 47.16,294.7 47.69,294.21C49.49,292.56 48.93,279.44 49.6,272.54C50.21,266.21 50.82,259.95 51.51,254.37C52.1,249.59 52.85,246.13 53.42,241.09C54.17,234.46 54.14,222.56 55.32,218.02C55.85,216 56.7,213.74 57.23,213.83C58.38,214.03 58.48,228.53 59.14,235.5C59.76,242.01 60.44,247.81 61.05,254.37C61.71,261.51 62.22,270.16 62.95,276.74C63.53,281.95 63.92,287.47 64.86,290.72C65.4,292.58 65.92,294.36 66.77,294.91C67.32,295.26 68.15,295.32 68.68,294.91C69.71,294.12 70,290.5 70.58,287.92C71.29,284.79 71.73,280.37 72.49,277.44C73.06,275.26 73.87,274.43 74.4,271.84C75.51,266.41 74.31,247.82 76.29,245.98C76.83,245.48 77.67,245.57 78.2,245.98C79.24,246.77 79.52,250.39 80.11,252.97C80.82,256.1 81.43,259.66 82.02,263.46C82.72,267.93 83.35,272.55 83.92,278.14C84.67,285.54 83.85,302.16 85.83,304C86.37,304.5 87.1,304 87.74,304C88.37,304 89.01,304 89.64,304C90.28,304 90.91,304 91.55,304C92.19,304 92.82,304 93.46,304C94.1,304 94.73,304 95.37,304C96,304 96.74,304.46 97.27,304C98.7,302.75 98.56,294.79 99.18,290.02C99.83,285.02 99.58,275.97 101.09,274.64C101.62,274.17 102.36,274.64 103,274.64C103.63,274.64 104.27,274.64 104.9,274.64C105.54,274.64 106.28,275.11 106.81,274.64C108.35,273.27 107.78,258.68 108.72,258.56C109.26,258.49 109.73,262.85 110.63,263.46C111.17,263.83 111.9,263.46 112.53,263.46C113.17,263.46 113.8,263.46 114.44,263.46C115.08,263.46 115.81,262.95 116.35,263.46C118.5,265.48 117.34,286.09 118.25,293.51C118.79,297.93 118.91,302.96 120.16,304C120.69,304.44 121.43,304 122.07,304C122.71,304 123.34,304 123.98,304C124.61,304 125.25,304 125.88,304C126.52,304 127.15,304 127.79,304C128.43,304 129.17,304.43 129.7,304C130.86,303.05 130.45,295.85 131.61,294.91C132.14,294.48 132.97,295.28 133.51,294.91C134.41,294.3 134.52,290.63 135.42,290.02C135.96,289.65 136.69,290.02 137.33,290.02C137.97,290.02 138.71,289.59 139.24,290.02C140.4,290.97 139.99,298.16 141.15,299.11C141.68,299.54 142.52,298.74 143.06,299.11C143.96,299.72 144.07,303.39 144.97,304C145.51,304.37 146.24,304 146.88,304C147.51,304 148.24,304.52 148.78,304C151.25,301.65 150.07,278.23 150.69,264.85C151.34,250.77 151.98,236.34 152.6,221.51C153.25,205.86 153.7,186.3 154.51,173.28C155.06,164.4 155.69,157.58 156.41,150.91C156.99,145.5 157.78,136.21 158.32,136.23C159.2,136.27 159.55,163.12 160.23,175.38C160.83,186.25 161.53,195.31 162.13,206.14C162.8,218.24 161.59,242.25 164.04,244.58C164.59,245.1 165.42,244.12 165.95,244.58C167.42,245.87 166.39,257.97 167.86,259.26C168.39,259.72 169.23,258.81 169.76,259.26C171.12,260.43 170.45,271.33 171.67,271.84C172.2,272.06 173.05,270.24 173.58,270.45C174.74,270.92 174.91,281.65 175.49,281.63C176.21,281.61 176.69,269.5 177.38,264.16C177.97,259.61 178.76,257.2 179.29,251.57C180.35,240.3 180.3,213.24 181.2,200.54C181.74,192.94 182.37,182.39 183.1,182.37C183.68,182.35 184.2,190.61 185.01,193.55C185.56,195.55 186.37,196.4 186.92,198.45C187.77,201.64 187.87,208.19 188.83,211.03C189.36,212.62 190.03,213.54 190.73,214.52C191.32,215.35 192.11,216.8 192.64,216.62C194.27,216.06 193.95,199.48 194.55,190.06C195.23,179.37 195.84,167.61 196.46,155.81C197.12,143.2 195.97,119.92 198.36,116.66C198.91,115.92 199.73,116.69 200.27,115.96C202.47,112.99 201.56,93.87 202.18,82.41C202.83,70.37 203.27,55.41 204.08,45.36C204.63,38.44 204.95,28.05 205.99,27.88C206.52,27.79 207.36,30.26 207.9,32.08C208.8,35.11 209.22,40.07 209.81,44.66C210.51,50.15 210.85,58.22 211.71,62.83C212.25,65.74 213.09,66.6 213.62,69.83C214.75,76.71 214.79,102.67 215.53,102.68C216.1,102.69 216.17,83.43 217.44,83.11C217.97,82.98 218.64,85.17 219.34,85.9C219.93,86.51 220.71,86.33 221.25,87.3C223.11,90.69 221.74,111.09 223.16,115.96C223.69,117.78 224.54,117.71 225.07,119.46C226.32,123.62 226.35,134.21 226.97,141.83C227.62,149.8 228.31,157.07 228.88,166.29C229.62,178.25 229.59,199.27 230.79,207.53C231.32,211.15 232.12,212.26 232.69,215.22C233.45,219.17 234.02,223.99 234.6,229.2C235.33,235.78 235.47,246.64 236.51,251.57C237.04,254.1 237.67,257.07 238.42,257.17C238.99,257.25 239.79,254.24 240.32,254.37C241.59,254.69 240.85,273.48 242.24,273.94C242.77,274.12 243.62,273.01 244.15,271.84C245.46,268.93 245.42,260.13 246.06,254.37C246.69,248.72 246.8,237.88 247.97,237.59C248.5,237.46 249.34,240.52 249.87,240.39C251,240.12 250.55,227.69 251.78,225.01C252.31,223.86 253.16,222.73 253.69,222.91C255.34,223.48 254.89,241.84 255.59,250.17C256.18,257.24 256.92,269.76 257.5,269.75C258.23,269.74 258.58,246.67 259.41,238.29C259.96,232.69 260.73,229.32 261.32,224.31C262.01,218.5 262.4,210.45 263.22,205.44C263.77,202.06 264.59,200.56 265.13,197.05C266.02,191.29 266.39,173.98 267.04,173.98C267.67,173.98 268.17,189.62 268.95,195.65C269.51,200 269.69,206.36 270.85,206.83C271.38,207.04 272.22,206.42 272.76,205.44C274.68,201.96 273.99,175.39 274.67,175.38C275.27,175.37 275.97,198.46 276.56,198.45C277.25,198.44 277.45,167.07 278.47,166.99C279,166.95 279.83,171.93 280.38,175.38C281.24,180.77 281.68,189.09 282.29,196.35C282.95,204.19 283.5,220.81 284.19,220.82C284.78,220.83 285.33,202.67 286.1,202.64C286.67,202.62 287.41,212.44 288.01,212.43C288.69,212.42 289.33,199.83 289.92,199.84C290.62,199.85 291.14,217.31 291.82,217.32C292.42,217.33 293.13,204.03 293.73,204.04C294.41,204.05 294.95,215.63 295.64,220.82C296.24,225.32 296.86,229.48 297.54,233.4C298.14,236.87 298.89,243.21 299.45,243.18C300.25,243.14 300.7,222.91 301.36,222.91C301.97,222.91 302.5,240.35 303.27,240.39C303.83,240.42 304.54,231.3 305.17,231.3C305.81,231.3 306.38,240.36 307.08,240.39C307.67,240.42 308.09,235.37 308.99,234.1C309.53,233.34 310.37,233.58 310.9,232.7C312.15,230.61 312.14,223.65 312.8,219.42C313.41,215.53 314.05,208.24 314.71,208.23C315.33,208.22 316.06,214.18 316.62,218.02C317.41,223.41 317.91,230.9 318.53,237.59C319.18,244.63 319.09,258.91 320.43,259.26C320.96,259.4 321.7,256.47 322.34,256.47C322.98,256.47 323.72,259.41 324.25,259.26C325.93,258.79 325.48,236.31 326.15,225.71C326.76,216.15 327.43,207.71 328.06,198.45C328.71,188.85 328.79,174.99 329.97,169.09C330.5,166.45 331.08,164.86 331.88,163.5C332.43,162.56 333.25,161.22 333.78,161.4C335.38,161.95 334.72,181.2 335.69,187.26C336.23,190.61 337.03,192.02 337.6,194.95C338.35,198.76 338.96,202.85 339.51,208.23C340.35,216.48 340.65,230.85 341.42,239.69C341.98,246.16 342.24,256.26 343.33,256.47C343.86,256.57 344.71,252.86 345.24,252.97C346.39,253.2 345.91,271.52 347.15,271.84C347.68,271.97 348.52,270.47 349.05,269.05C350.25,265.8 350.36,257.85 350.96,251.57C351.65,244.26 352.06,234.24 352.87,227.81C353.43,223.37 354.18,220.61 354.78,216.62C355.46,212.06 355.91,206.03 356.68,201.94C357.24,198.95 358.04,197.35 358.59,194.25C359.41,189.63 359.8,176.79 360.5,176.78C361.09,176.77 361.66,185.8 362.41,189.36C362.98,192.05 363.76,196.39 364.31,196.35C365.12,196.29 365.17,184.22 366.22,180.97C366.75,179.32 367.6,177.37 368.13,177.48C369.4,177.75 369.21,200.5 370.03,200.54C370.58,200.57 371.35,193.86 371.94,190.06C372.64,185.59 372.75,175.64 373.85,175.38C374.38,175.25 375.23,176.72 375.75,178.17C377.02,181.67 377,197.75 377.65,197.75C378.27,197.75 378.66,184.03 379.56,179.57C380.1,176.9 380.9,173.24 381.47,173.28C382.22,173.33 382.7,180.94 383.37,184.47C383.98,187.66 384.31,193.29 385.28,193.55C385.82,193.7 386.55,191.46 387.19,191.46C387.83,191.46 388.46,193.55 389.1,193.55C389.73,193.55 390.47,192.64 391,191.46C392.36,188.4 392.15,177.94 392.91,172.58C393.48,168.56 394.24,166.01 394.82,162.1C395.55,157.17 396.11,151.03 396.73,145.32C397.38,139.39 397.82,127.2 398.63,127.15C399.18,127.12 399.83,133.03 400.54,135.53C401.13,137.6 401.53,140.19 402.45,141.13C402.99,141.68 403.71,141.72 404.36,141.83C404.98,141.94 405.72,141.33 406.26,141.83C408.32,143.76 407.08,169.67 408.17,169.79C408.7,169.85 409.34,165.26 410.08,163.5C410.65,162.13 411.45,159.88 411.98,160C413.39,160.31 412.95,188.59 413.89,188.66C414.43,188.7 415.25,183.31 415.8,179.57C416.66,173.66 416.76,161.93 417.71,156.5C418.24,153.46 418.96,149.52 419.61,149.51C420.23,149.5 420.99,155.88 421.52,155.81C422.91,155.63 422.76,110.37 423.43,110.37C424.04,110.37 423.82,142.53 425.34,148.82C425.87,151 426.62,151.55 427.24,153.01C427.9,154.57 428.62,155.53 429.15,157.9C430.4,163.52 429.01,184.52 431.06,187.26C431.6,187.98 432.44,188.29 432.97,187.96C434.53,186.99 434.25,170.49 434.87,170.49C435.52,170.49 435.85,185.37 436.78,190.06C437.32,192.77 438.12,196.39 438.69,196.35C439.44,196.3 439.94,185.18 440.61,185.17C441.22,185.16 441.97,194.28 442.51,194.25C443.37,194.2 443.78,178.87 444.42,171.18C445.06,163.49 445.72,148.12 446.33,148.12C447,148.12 447.57,176.07 448.24,176.08C448.84,176.08 448.51,156.62 450.14,153.71C450.67,152.76 451.52,152.07 452.05,152.31C453.55,152.98 453,166.78 453.96,171.18C454.49,173.64 455.33,176.85 455.86,176.78C457.03,176.63 456.93,155.15 457.77,147.42C458.32,142.33 459.14,140.09 459.68,134.83C460.58,126.11 460.7,108.6 461.59,99.88C462.13,94.62 462.94,92.38 463.49,87.3C464.32,79.57 464.76,57.94 465.4,57.94C466.04,57.94 466.52,79.2 467.31,87.3C467.87,93.04 468.66,96.18 469.22,101.98C470.02,110.35 470.34,132.72 471.12,132.74C471.68,132.76 472.44,116.65 473.03,116.66C473.73,116.67 474.31,139.73 474.93,139.73C475.57,139.73 475.61,119.98 476.83,115.26C477.36,113.22 477.96,112.03 478.74,111.07C479.3,110.38 480.01,109.67 480.65,109.67C481.29,109.67 482.03,110.25 482.56,111.07C483.61,112.7 483.93,120.2 484.46,120.16C485.53,120.08 485.02,88.74 486.37,81.71C486.9,78.96 487.75,79.04 488.28,76.12Q489.98,66.81 490.19,16" style="vector-effect: non-scaling-stroke; fill: none; stroke: rgb(31, 119, 180); stroke-opacity: 1; stroke-width: 2px; opacity: 1;"/></g><g class="points"/><g class="text"/></g><g class="trace scatter tracea5ad75fd-b08a-474b-bb3b-0c85efb81f26" style="stroke-miterlimit: 2; opacity: 1;"><g class="fills"/><g class="errorbars"/><g class="lines"><path class="js-line" d="M13.35,242.49Q14.54,244.74 15.26,245.51C15.84,246.14 16.64,246.11 17.17,246.91C18.15,248.37 18.31,252.49 19.07,254.6C19.64,256.17 20.19,257.69 20.98,258.56C21.54,259.18 22.35,259.04 22.89,259.73C23.79,260.86 23.99,264.15 24.8,265.55C25.35,266.5 26.17,266.61 26.7,267.65C27.65,269.51 27.7,274.5 28.61,276.5C29.15,277.69 29.9,278.17 30.52,279.07C31.17,280.03 31.84,280.94 32.42,282.1C33.13,283.51 33.64,285.52 34.33,286.99C34.93,288.27 35.44,290.01 36.24,290.49C36.8,290.82 37.52,290.53 38.15,290.49C38.79,290.45 39.52,290.7 40.05,290.25C41.04,289.42 41.35,286.15 41.97,283.96C42.64,281.59 43.25,279.01 43.88,276.5C44.52,273.96 44.82,270.28 45.79,268.82C46.32,268.02 47.02,267.64 47.69,267.42C48.29,267.22 49.04,267.1 49.6,267.42C50.39,267.87 50.72,270.23 51.51,270.68C52.07,271 52.86,270.99 53.42,270.68C54.19,270.25 54.55,268.08 55.32,267.65C55.88,267.34 56.59,267.65 57.23,267.65C57.87,267.65 58.55,267.91 59.14,267.65C59.85,267.33 60.34,265.97 61.05,265.55C61.64,265.2 62.41,265.56 62.95,265.09C63.84,264.32 64.29,262.08 64.86,260.19C65.6,257.74 66.1,251.58 66.77,251.57C67.38,251.56 68.02,256.48 68.68,258.8C69.3,260.98 69.97,262.9 70.58,265.09C71.24,267.46 71.86,270.04 72.49,272.54C73.13,275.08 73.43,278.77 74.4,280.23C74.93,281.02 75.62,281.41 76.29,281.63C76.89,281.83 77.56,281.63 78.2,281.63C78.84,281.63 79.47,281.63 80.11,281.63C80.75,281.63 81.46,281.32 82.02,281.63C82.79,282.06 83.15,284.23 83.92,284.66C84.48,284.97 85.19,284.66 85.83,284.66C86.47,284.66 87.16,284.93 87.74,284.66C88.47,284.32 88.97,283.01 89.64,282.33C90.25,281.71 90.99,280.56 91.55,280.7C92.35,280.9 92.89,283.71 93.46,285.59C94.2,288.03 94.24,293.3 95.37,294.21C95.9,294.63 96.74,294.64 97.27,294.21C98.49,293.2 98.31,286.62 99.18,284.19C99.72,282.67 100.29,281.18 101.09,280.7C101.65,280.37 102.36,280.7 103,280.7C103.63,280.7 104.27,280.7 104.9,280.7C105.54,280.7 106.17,280.7 106.81,280.7C107.45,280.7 108.08,280.7 108.72,280.7C109.36,280.7 109.99,280.7 110.63,280.7C111.26,280.7 111.9,280.7 112.53,280.7C113.17,280.7 113.8,280.7 114.44,280.7C115.08,280.7 115.81,280.34 116.35,280.7C117.23,281.29 117.63,283.76 118.25,285.36C118.9,287.02 119.44,290.42 120.16,290.49C120.74,290.55 121.3,287.89 122.07,287.46C122.63,287.15 123.38,287.68 123.98,287.46C124.66,287.21 125.35,285.65 125.88,285.83C126.95,286.2 126.92,293.41 127.79,295.84C128.33,297.36 128.9,298.86 129.7,299.34C130.26,299.67 130.97,299.34 131.61,299.34C132.24,299.34 132.88,299.34 133.51,299.34C134.15,299.34 134.78,299.34 135.42,299.34C136.06,299.34 136.69,299.34 137.33,299.34C137.97,299.34 138.71,299.8 139.24,299.34C140.63,298.14 140.53,290.75 141.15,286.29C141.8,281.6 142.44,276.79 143.06,271.84C143.71,266.63 144.16,260.09 144.97,255.77C145.53,252.79 146.17,250.52 146.88,248.31C147.46,246.49 148.07,243.49 148.78,243.42C149.37,243.36 150.09,246.49 150.69,246.45C151.37,246.4 151.83,243.27 152.6,242.25C153.17,241.5 153.97,241.48 154.51,240.62C155.45,239.11 155.35,234 156.41,233.17C156.94,232.76 157.68,233.17 158.32,233.17C158.96,233.17 159.59,233.17 160.23,233.17C160.86,233.17 161.58,233.51 162.13,233.17C162.95,232.67 163.4,230.68 164.04,229.44C164.68,228.2 165.36,227.12 165.95,225.71C166.66,224.01 167.28,219.85 167.86,219.88C168.57,219.92 168.85,228.54 169.76,228.74C170.3,228.86 171.11,226.07 171.67,226.17C172.47,226.31 172.97,230.28 173.58,232.47C174.24,234.84 174.46,238.78 175.49,239.92C176.02,240.5 176.74,240.5 177.38,240.62C178.01,240.73 178.76,241.07 179.29,240.62C180.6,239.51 180.42,232.16 181.2,228.97C181.76,226.67 182.23,224.36 183.1,223.15C183.64,222.4 184.48,222.65 185.01,221.75C186.37,219.43 186.25,211.11 186.92,206.14C187.53,201.59 188.22,197.67 188.83,193.09C189.5,188.01 190.1,182.41 190.73,177.01C191.37,171.54 192.01,166.06 192.64,160.47C193.29,154.72 193.89,148.65 194.55,142.99C195.17,137.64 195.67,131.61 196.46,127.38C197.02,124.42 197.66,119.96 198.36,119.92C198.95,119.89 199.61,125.03 200.27,125.05C200.89,125.07 201.65,122.67 202.18,120.62C203.23,116.56 203.16,106.32 204.08,101.75C204.62,99.06 205.45,98.13 205.99,95.46C206.89,91 206.9,77.41 207.9,77.28C208.43,77.21 209.17,82.17 209.81,82.17C210.44,82.17 210.84,78.26 211.71,77.51C212.25,77.04 213.09,76.74 213.62,77.05C214.6,77.61 214.71,81.81 215.53,83.34C216.08,84.38 216.91,84.47 217.44,85.67C218.56,88.21 218.76,94.05 219.34,98.95C220.06,104.99 220.55,113.04 221.25,119.22C221.84,124.45 222.55,128.67 223.16,133.67C223.82,139.05 224.29,145.84 225.07,150.45C225.63,153.74 226.37,155.84 226.97,158.83C227.65,162.23 228.27,165.96 228.88,169.79C229.55,174 230.2,178.26 230.79,183.07C231.49,188.75 231.7,197.48 232.69,201.71C233.22,203.99 234.03,204.86 234.6,206.83C235.35,209.4 235.73,213.46 236.51,215.92C237.07,217.69 237.88,218.42 238.42,220.35C239.33,223.63 239.36,230.95 240.32,234.1C240.86,235.87 241.58,236.82 242.24,238.06C242.86,239.21 243.61,239.86 244.15,241.32C245.07,243.81 245.1,249.69 246.06,252.04C246.6,253.35 247.43,254.94 247.97,254.83C248.92,254.63 248.96,246.8 249.87,244.35C250.41,242.89 251.22,242.46 251.78,241.09C252.59,239.11 252.63,234.04 253.69,233.4C254.22,233.08 255.06,234.17 255.59,233.86C256.6,233.27 256.66,228.72 257.5,227.11C258.05,226.06 258.85,225.81 259.41,224.78C260.22,223.29 260.71,220.85 261.32,218.72C261.99,216.37 262.45,213.29 263.22,211.26C263.78,209.77 264.55,207.48 265.13,207.53C265.86,207.6 266.48,214.1 267.04,214.06C267.84,214 267.75,200.72 268.95,200.31C269.48,200.13 270.15,201.83 270.85,202.17C271.44,202.46 272.22,202.73 272.76,202.41C273.64,201.9 274.07,199.42 274.67,197.75C275.34,195.88 275.59,192.41 276.56,191.69C277.09,191.3 277.89,191.42 278.47,191.69C279.2,192.03 279.85,192.83 280.38,194.02C281.46,196.44 281.52,206.32 282.29,206.37C282.85,206.41 283.57,200.07 284.19,200.08C284.85,200.09 285.3,207.18 286.1,207.3C286.66,207.39 287.32,204.35 288.01,204.27C288.61,204.2 289.37,205.25 289.92,206.14C290.76,207.52 291.24,209.93 291.82,212.19C292.54,215 292.87,221.62 293.73,221.75C294.28,221.83 295.1,218.16 295.64,218.25C296.53,218.39 296.61,228.56 297.54,228.74C298.08,228.84 298.73,226.48 299.45,225.71C300.03,225.08 300.78,224.94 301.36,224.31C302.08,223.54 302.54,222 303.27,221.28C303.85,220.71 304.64,219.88 305.17,220.12C306.32,220.64 306.39,227.39 307.08,230.6C307.68,233.37 307.91,237.45 308.99,238.29C309.52,238.7 310.27,238.21 310.9,238.29C311.54,238.37 312.27,239.06 312.8,238.76C313.75,238.24 314.05,234.78 314.71,232.93C315.32,231.22 315.98,229.65 316.62,228.04C317.25,226.47 317.83,224.74 318.53,223.38C319.12,222.23 319.88,221.63 320.43,220.35C321.23,218.5 321.57,215.07 322.34,213.13C322.9,211.71 323.47,209.92 324.25,209.63C324.81,209.42 325.51,210.22 326.15,210.33C326.78,210.44 327.47,210.09 328.06,210.33C328.76,210.61 329.43,211.25 329.97,212.19C330.9,213.81 331.2,217.51 331.88,219.88C332.48,221.97 333.07,225.65 333.78,225.71C334.37,225.76 334.87,222.55 335.69,221.98C336.24,221.59 337.07,222.2 337.6,221.75C338.59,220.92 338.73,215.58 339.51,215.46C340.07,215.37 340.79,218.26 341.42,218.25C342.07,218.24 342.72,215.19 343.33,215.22C343.99,215.25 344.61,217.68 345.24,218.95C345.88,220.25 346.35,222.11 347.15,222.91C347.7,223.47 348.42,223.87 349.05,223.84C349.69,223.81 350.35,222.61 350.96,222.68C351.63,222.76 352.26,224.59 352.87,224.54C353.54,224.49 354.18,222.94 354.78,221.98C355.46,220.88 356.07,219.58 356.68,218.25C357.35,216.8 357.93,215.07 358.59,213.59C359.21,212.21 359.93,211.18 360.5,209.63C361.25,207.61 361.75,204.73 362.41,202.41C363.03,200.24 363.72,198.42 364.31,196.12C365.01,193.38 365.32,187.21 366.22,187.03C366.76,186.92 367.54,189.88 368.13,189.83C368.82,189.77 369.25,186.59 370.03,185.63C370.59,184.94 371.29,184.26 371.94,184.23C372.57,184.2 373.21,185.4 373.85,185.4C374.48,185.4 375.2,184.05 375.75,184.23C376.57,184.5 376.91,187.65 377.65,188.89C378.22,189.85 379.01,191.33 379.56,191.22C380.38,191.06 380.86,187.12 381.47,184.93C382.13,182.56 382.32,178.11 383.37,177.48C383.9,177.16 384.64,177.82 385.28,177.94C385.91,178.05 386.66,178.56 387.19,178.17C388.48,177.2 387.8,167.86 389.1,166.76C389.63,166.32 390.38,166.87 391,166.76C391.65,166.65 392.26,166.22 392.91,166.06C393.54,165.91 394.29,166.28 394.82,165.83C395.81,165 396.02,159.58 396.73,159.53C397.31,159.49 397.8,162.97 398.63,163.5C399.18,163.85 400,163.88 400.54,163.5C401.49,162.82 401.83,157.89 402.45,157.9C403.1,157.91 403.77,164.21 404.36,164.19C405.05,164.16 405.5,157.94 406.26,155.57C406.82,153.82 407.39,152.21 408.17,151.15C408.73,150.39 409.49,149.43 410.08,149.51C410.77,149.6 411.41,152.38 411.98,152.31C412.72,152.22 413.32,146.91 413.89,146.95C414.64,147.01 414.9,154.46 415.8,156.74C416.34,158.1 417.07,159.76 417.71,159.77C418.34,159.78 419.08,156.86 419.61,156.97C420.57,157.17 420.74,167.63 421.52,167.69C422.08,167.74 422.75,162.37 423.43,162.33C424.03,162.3 424.51,165.7 425.34,166.29C425.89,166.68 426.64,166.28 427.24,166.52C427.91,166.79 428.62,167.11 429.15,167.92C430.15,169.44 430.47,176.1 431.06,176.08C431.77,176.06 431.69,165.74 432.97,164.19C433.5,163.55 434.23,163.57 434.87,163.5C435.5,163.43 436.25,163.22 436.78,163.73C438.16,165.08 437.44,176.26 438.69,176.78C439.22,177 440.02,175.28 440.61,175.38C441.31,175.5 441.96,178.26 442.51,178.17C443.33,178.03 443.4,171.48 444.42,170.95C444.95,170.67 445.72,171.3 446.33,171.65C447,172.04 447.71,173.48 448.24,173.28C449.55,172.77 449.4,162.34 450.14,157.9C450.71,154.46 451.32,151.46 452.05,148.82C452.63,146.71 453.42,145.59 453.96,143.22C454.84,139.36 455.12,127.64 455.86,127.61C456.43,127.59 457.08,136.9 457.77,136.93C458.37,136.95 458.8,131.65 459.68,130.17C460.22,129.26 461,129.06 461.59,128.31C462.29,127.41 462.71,125.57 463.49,125.05C464.05,124.68 464.87,125.29 465.4,124.82C466.5,123.83 466.23,117.88 467.31,116.66C467.84,116.06 468.62,116.34 469.22,115.96C469.9,115.53 470.59,115.07 471.12,114.1C472.11,112.29 471.93,105.55 473.03,105.01C473.56,104.75 474.41,106.21 474.93,105.94C476.15,105.32 475.71,95.17 476.83,94.76C477.36,94.57 478.21,96.58 478.74,96.39Q479.82,96.01 480.65,86.14" style="vector-effect: non-scaling-stroke; fill: none; stroke: rgb(255, 127, 14); stroke-opacity: 1; stroke-width: 2px; opacity: 1;"/></g><g class="points"/><g class="text"/></g><g class="trace scatter trace32a21db0-cff1-42ef-b3d9-c43390d4683f" style="stroke-miterlimit: 2; opacity: 1;"><g class="fills"/><g class="errorbars"/><g class="lines"><path class="js-line" d="M24.8,266.2Q26.12,267.97 26.7,267.88C27.41,267.77 27.85,264.91 28.61,264.65C29.18,264.46 29.92,265.54 30.52,265.42C31.21,265.28 31.78,264.11 32.42,263.48C33.05,262.86 33.72,261.62 34.33,261.67C35,261.72 35.54,263.51 36.24,264.13C36.83,264.66 37.6,264.63 38.15,265.29C38.99,266.3 39.23,269.13 40.05,270.21C40.6,270.94 41.29,271.39 41.97,271.64C42.58,271.86 43.33,271.38 43.88,271.77C44.74,272.38 45.04,275.05 45.79,276.17C46.36,277.01 47.03,278.04 47.69,278.11C48.3,278.17 48.99,276.76 49.6,276.82C50.27,276.89 50.9,278.81 51.51,278.76C52.18,278.7 52.84,277.11 53.42,276.04C54.14,274.7 54.43,271.85 55.32,271.25C55.86,270.88 56.59,271.25 57.23,271.25C57.87,271.25 58.5,271.25 59.14,271.25C59.78,271.25 60.46,271.01 61.05,271.25C61.74,271.53 62.26,272.78 62.95,273.06C63.54,273.3 64.22,273.06 64.86,273.06C65.5,273.06 66.13,273.06 66.77,273.06C67.41,273.06 68.04,273.06 68.68,273.06C69.31,273.06 69.95,273.04 70.58,273.06C71.22,273.08 71.89,272.94 72.49,273.19C73.18,273.48 73.71,274.61 74.4,274.87C74.99,275.09 75.72,275.16 76.29,274.87C77.03,274.5 77.49,272.42 78.2,272.28C78.79,272.17 79.54,272.85 80.11,273.45C80.87,274.25 81.41,275.71 82.02,276.94C82.68,278.25 83.29,279.7 83.92,281.09C84.56,282.5 85.21,285.37 85.83,285.36C86.48,285.35 86.97,281.76 87.74,280.57C88.3,279.71 88.94,278.92 89.64,278.63C90.23,278.38 90.91,278.63 91.55,278.63C92.19,278.63 92.86,278.4 93.46,278.63C94.15,278.89 94.68,280.05 95.37,280.31C95.96,280.53 96.64,280.31 97.27,280.31C97.91,280.31 98.57,280.12 99.18,280.31C99.85,280.52 100.48,281.1 101.09,281.61C101.76,282.16 102.39,282.82 103,283.55C103.67,284.36 104.32,285.2 104.9,286.27C105.62,287.61 105.92,290.46 106.81,291.06C107.35,291.43 108.12,291.29 108.72,291.06C109.41,290.8 109.94,289.63 110.63,289.37C111.22,289.14 111.91,289.51 112.53,289.37C113.18,289.22 113.79,288.62 114.44,288.47C115.06,288.33 115.71,288.47 116.35,288.47C116.98,288.47 117.62,288.47 118.25,288.47C118.89,288.47 119.52,288.47 120.16,288.47C120.8,288.47 121.43,288.47 122.07,288.47C122.71,288.47 123.34,288.47 123.98,288.47C124.61,288.47 125.25,288.47 125.88,288.47C126.52,288.47 127.25,288.83 127.79,288.47C128.67,287.88 129.08,285.41 129.7,283.81C130.35,282.13 131.04,280.61 131.61,278.63C132.35,276.08 132.72,272.08 133.51,269.7C134.07,268.02 134.72,266.76 135.42,265.55C136.01,264.52 136.76,262.75 137.33,262.83C138.09,262.94 138.31,267.87 139.24,268.4C139.78,268.71 140.55,268.32 141.15,268.01C141.84,267.65 142.49,267 143.06,266.2C143.81,265.15 144.12,262.6 144.97,262.06C145.52,261.71 146.24,262.06 146.88,262.06C147.51,262.06 148.15,262.06 148.78,262.06C149.42,262.06 150.1,262.32 150.69,262.06C151.4,261.75 151.96,260.68 152.6,259.99C153.24,259.3 153.91,258.72 154.51,257.92C155.2,256.99 155.74,255.65 156.41,254.68C157.01,253.81 157.78,253.48 158.32,252.35C159.28,250.33 159.4,245.29 160.23,242.9C160.78,241.32 161.31,239.65 162.13,239.15C162.68,238.81 163.43,239.35 164.04,239.15C164.72,238.92 165.27,237.95 165.95,237.72C166.56,237.52 167.33,238.15 167.86,237.72C169.01,236.79 169.02,231.43 169.76,228.92C170.33,226.98 171.03,225.54 171.67,223.87C172.3,222.22 173.01,220.85 173.58,218.95C174.32,216.49 174.83,213.03 175.49,210.28C176.1,207.75 176.78,205.58 177.38,203.03C178.05,200.22 178.49,196.45 179.29,194.1C179.85,192.46 180.56,191.39 181.2,190.08C181.83,188.8 182.44,187.49 183.1,186.33C183.71,185.26 184.35,184.26 185.01,183.35C185.62,182.51 186.33,181.93 186.92,181.02C187.63,179.92 188.27,178.7 188.83,177.14C189.6,175 190.1,171.89 190.73,169.24C191.37,166.55 191.87,163.3 192.64,161.09C193.2,159.48 193.96,158.56 194.55,157.07C195.25,155.3 195.83,153.12 196.46,151.12C197.1,149.11 197.76,147.19 198.36,145.04C199.03,142.65 199.57,139.68 200.27,137.4C200.86,135.49 201.46,133.7 202.18,132.22C202.76,131.02 203.47,130.22 204.08,129.11C204.74,127.9 205.24,125.38 205.99,125.23C206.56,125.12 207.29,126.28 207.9,126.91C208.57,127.6 209.25,128.23 209.81,129.24C210.6,130.67 210.96,133.41 211.71,134.94C212.28,136.1 212.94,137.71 213.62,137.79C214.22,137.86 214.89,135.97 215.53,135.97C216.17,135.97 216.75,137.62 217.44,137.79C218.03,137.94 218.81,136.95 219.34,137.27C220.46,137.95 220.3,144.12 221.25,145.94C221.79,146.97 222.45,147.73 223.16,148.01C223.75,148.24 224.53,147.53 225.07,147.88C225.98,148.46 226.38,151.08 226.97,152.93C227.67,155.11 228.21,157.89 228.88,160.18C229.49,162.27 230.19,164 230.79,166.14C231.47,168.57 232.11,171.13 232.69,174.03C233.4,177.55 233.97,181.87 234.6,185.81C235.24,189.77 235.22,196.19 236.51,197.72C237.04,198.35 237.8,198.1 238.42,198.37C239.07,198.65 239.68,199.06 240.32,199.4C240.96,199.75 241.71,199.73 242.24,200.44C243.33,201.89 243.13,207.69 244.15,209.37C244.68,210.24 245.53,210.07 246.06,210.93C247.05,212.52 247.09,217.29 247.97,219.21C248.51,220.39 249.14,221.3 249.87,221.8C250.45,222.2 251.19,222.48 251.78,222.32C252.48,222.13 253.13,220.26 253.69,220.38C254.48,220.55 254.78,225.34 255.59,225.55C256.14,225.69 256.82,224.21 257.5,223.87C258.1,223.57 258.85,223.88 259.41,223.48C260.19,222.92 260.58,220.43 261.32,220.25C261.89,220.11 262.57,221.36 263.22,221.41C263.84,221.46 264.58,221.15 265.13,220.63C265.94,219.86 266.39,217.93 267.04,216.62C267.67,215.34 268.14,213.23 268.95,212.87C269.5,212.63 270.31,213.66 270.85,213.39C271.73,212.94 272.03,208.56 272.76,208.47C273.34,208.4 273.98,210.44 274.67,211.18C275.26,211.82 275.91,212.28 276.56,212.74C277.18,213.18 277.91,214.06 278.47,213.9C279.24,213.68 279.61,210.37 280.38,210.15C280.94,209.99 281.66,210.89 282.29,211.31C282.94,211.75 283.57,212.78 284.19,212.74C284.84,212.7 285.52,211.7 286.1,210.93C286.82,209.97 287.29,207.42 288.01,207.3C288.59,207.2 289.26,208.58 289.92,209.11C290.54,209.61 291.24,209.82 291.82,210.41C292.53,211.13 293.03,212.49 293.73,213.26C294.32,213.91 295.08,214.08 295.64,214.81C296.41,215.82 296.78,218.01 297.54,219.08C298.11,219.88 298.79,220.84 299.45,220.89C300.07,220.94 300.79,219.46 301.36,219.6C302.12,219.79 302.49,222.47 303.27,223.22C303.83,223.76 304.63,224.35 305.17,224.13C306.04,223.78 306.31,219.22 307.08,219.08C307.65,218.98 308.4,221.36 308.99,221.28C309.7,221.19 310.09,218.11 310.9,217.4C311.45,216.91 312.18,216.68 312.8,216.75C313.45,216.82 314.05,217.78 314.71,217.92C315.32,218.05 316.05,217.4 316.62,217.66C317.38,218 317.94,219.43 318.53,220.5C319.22,221.75 319.6,224.45 320.43,224.78C320.98,225 321.77,223.82 322.34,224C323.09,224.24 323.48,226.53 324.25,226.98C324.81,227.31 325.52,227.09 326.15,227.11C326.79,227.13 327.44,227.23 328.06,227.11C328.71,226.98 329.35,226.68 329.97,226.33C330.63,225.96 331.28,225.49 331.88,224.91C332.56,224.26 333.08,223.13 333.78,222.58C334.37,222.12 335.12,222.18 335.69,221.67C336.44,221 336.95,219.57 337.6,218.56C338.23,217.59 338.79,215.88 339.51,215.72C340.09,215.59 340.79,216.46 341.42,216.88C342.07,217.32 342.7,218.33 343.33,218.3C343.98,218.27 344.69,217.44 345.24,216.62C346.08,215.37 346.36,212.44 347.15,211.06C347.71,210.09 348.48,209.79 349.05,208.85C349.8,207.61 350.1,204.93 350.96,204.06C351.51,203.51 352.26,203.66 352.87,203.29C353.54,202.87 354.22,201.49 354.78,201.61C355.55,201.78 355.84,205.48 356.68,205.88C357.23,206.14 357.95,205.53 358.59,205.36C359.23,205.19 359.92,204.65 360.5,204.84C361.22,205.07 361.69,206.73 362.41,207.17C362.99,207.52 363.69,207.64 364.31,207.56C364.96,207.48 365.61,207.04 366.22,206.65C366.88,206.23 367.55,205.78 368.13,205.1C368.86,204.24 369.47,203.1 370.03,201.73C370.8,199.86 371.23,196.82 371.94,194.74C372.53,193.01 373.17,191.49 373.85,190.08C374.45,188.85 375.2,188.14 375.75,186.72C376.57,184.59 376.62,179.8 377.65,178.3C378.18,177.52 378.97,177.59 379.56,177.01C380.27,176.32 380.72,174.71 381.47,174.29C382.04,173.97 382.76,174.37 383.37,174.16C384.04,173.93 384.62,173.17 385.28,172.87C385.89,172.59 386.57,172.6 387.19,172.35C387.84,172.09 388.44,171.5 389.1,171.31C389.72,171.13 390.43,170.9 391,171.18C391.76,171.55 392.32,174.08 392.91,174.03C393.6,173.97 394.07,170.86 394.82,169.76C395.39,168.92 396.08,168.43 396.73,167.82C397.35,167.23 398.05,166.85 398.63,166.14C399.34,165.28 399.92,164.02 400.54,162.9C401.19,161.73 401.86,159.23 402.45,159.28C403.16,159.33 403.53,164.62 404.36,164.84C404.91,164.98 405.7,163.93 406.26,163.16C407.03,162.1 407.56,158.74 408.17,158.76C408.84,158.79 409.3,164.18 410.08,164.32C410.64,164.42 411.26,162.28 411.98,161.99C412.56,161.76 413.25,162.16 413.89,162.25C414.53,162.34 415.23,162.77 415.8,162.51C416.56,162.17 417.08,159.65 417.71,159.66C418.35,159.67 418.84,162.4 419.61,162.77C420.17,163.04 420.89,162.64 421.52,162.51C422.16,162.38 422.84,162.35 423.43,161.99C424.13,161.56 424.78,159.8 425.34,159.92C426.14,160.09 426.46,163.98 427.24,165.36C427.8,166.36 428.5,167.67 429.15,167.69C429.78,167.71 430.42,165.63 431.06,165.62C431.69,165.61 432.3,167.48 432.97,167.56C433.58,167.63 434.21,166.58 434.87,166.39C435.48,166.22 436.24,166.77 436.78,166.39C437.7,165.75 438.1,163.11 438.69,161.22C439.39,158.99 439.56,154.55 440.61,153.84C441.14,153.49 441.98,154.49 442.51,154.1C443.83,153.12 443.68,142.23 444.42,142.19C445,142.16 445.42,147.79 446.33,149.31C446.87,150.22 447.55,150.92 448.24,151.12C448.83,151.29 449.59,151.16 450.14,150.73C450.96,150.09 451.24,147.16 452.05,146.85C452.61,146.64 453.41,147.85 453.96,147.62C454.81,147.27 454.99,143.59 455.86,143.09C456.4,142.78 457.17,143.52 457.77,143.35C458.45,143.16 459.15,142.67 459.68,141.8C460.71,140.11 460.65,132.97 461.59,132.74C462.13,132.61 462.95,135.2 463.49,135.07C464.4,134.86 464.64,128.98 465.4,126.65C465.97,124.92 466.77,124.17 467.31,122.25Q468.23,118.97 469.22,108.4" style="vector-effect: non-scaling-stroke; fill: none; stroke: rgb(44, 160, 44); stroke-opacity: 1; stroke-width: 2px; opacity: 1;"/></g><g class="points"/><g class="text"/></g></g></g><g class="overplot"/><path class="xlines-above crisp" d="M0,0" style="fill: none;"/><path class="ylines-above crisp" d="M0,0" style="fill: none;"/><g class="overlines-above"/><g class="xaxislayer-above"><g class="xtick"><text text-anchor="middle" x="0" y="433" transform="translate(136.36,0)" style="font-family: 'Open Sans', verdana, arial, sans-serif; font-size: 12px; fill: rgb(68, 68, 68); fill-opacity: 1; white-space: pre;">2015</text></g><g class="xtick"><text text-anchor="middle" x="0" y="433" transform="translate(235.81,0)" style="font-family: 'Open Sans', verdana, arial, sans-serif; font-size: 12px; fill: rgb(68, 68, 68); fill-opacity: 1; white-space: pre;">2016</text></g><g class="xtick"><text text-anchor="middle" x="0" y="433" transform="translate(335.53999999999996,0)" style="font-family: 'Open Sans', verdana, arial, sans-serif; font-size: 12px; fill: rgb(68, 68, 68); fill-opacity: 1; white-space: pre;">2017</text></g><g class="xtick"><text text-anchor="middle" x="0" y="433" transform="translate(434.99,0)" style="font-family: 'Open Sans', verdana, arial, sans-serif; font-size: 12px; fill: rgb(68, 68, 68); fill-opacity: 1; white-space: pre;">2018</text></g><g class="xtick"><text text-anchor="middle" x="0" y="433" transform="translate(534.45,0)" style="font-family: 'Open Sans', verdana, arial, sans-serif; font-size: 12px; fill: rgb(68, 68, 68); fill-opacity: 1; white-space: pre;">2019</text></g></g><g class="yaxislayer-above"><g class="ytick"><text text-anchor="end" x="79" y="4.199999999999999" transform="translate(0,404)" style="font-family: 'Open Sans', verdana, arial, sans-serif; font-size: 12px; fill: rgb(68, 68, 68); fill-opacity: 1; white-space: pre;">0</text></g><g class="ytick"><text text-anchor="end" x="79" y="4.199999999999999" transform="translate(0,334.1)" style="font-family: 'Open Sans', verdana, arial, sans-serif; font-size: 12px; fill: rgb(68, 68, 68); fill-opacity: 1; white-space: pre;">20</text></g><g class="ytick"><text text-anchor="end" x="79" y="4.199999999999999" transform="translate(0,264.19)" style="font-family: 'Open Sans', verdana, arial, sans-serif; font-size: 12px; fill: rgb(68, 68, 68); fill-opacity: 1; white-space: pre;">40</text></g><g class="ytick"><text text-anchor="end" x="79" y="4.199999999999999" transform="translate(0,194.29000000000002)" style="font-family: 'Open Sans', verdana, arial, sans-serif; font-size: 12px; fill: rgb(68, 68, 68); fill-opacity: 1; white-space: pre;">60</text></g><g class="ytick"><text text-anchor="end" x="79" y="4.199999999999999" transform="translate(0,124.39)" style="font-family: 'Open Sans', verdana, arial, sans-serif; font-size: 12px; fill: rgb(68, 68, 68); fill-opacity: 1; white-space: pre;">80</text></g></g><g class="overaxes-above"/></g></g><g class="polarlayer"/><g class="ternarylayer"/><g class="geolayer"/><g class="pielayer"/><g class="glimages"/><defs id="topdefs-4d2503"><g class="clips"/><clipPath id="legend4d2503"><rect width="104" height="67" x="0" y="0"/></clipPath></defs><g class="layer-above"><g class="imagelayer"/><g class="shapelayer"/></g><g class="infolayer"><g class="legend" pointer-events="all" transform="translate(583.88, 100)"><rect class="bg" shape-rendering="crispEdges" style="stroke: rgb(68, 68, 68); stroke-opacity: 1; fill: rgb(229, 229, 229); fill-opacity: 1; stroke-width: 0px;" width="104" height="67" x="0" y="0"/><g class="scrollbox" transform="translate(0, 0)" clip-path="url(#legend4d2503)"><g class="groups"><g class="traces" transform="translate(0, 14.5)" style="opacity: 1;"><text class="legendtext user-select-none" text-anchor="start" x="40" y="4.680000000000001" style="font-family: 'Open Sans', verdana, arial, sans-serif; font-size: 12px; fill: rgb(68, 68, 68); fill-opacity: 1; white-space: pre;">5 Weeks</text><rect class="legendtoggle" pointer-events="all" style="cursor: pointer; fill: rgb(0, 0, 0); fill-opacity: 0;" x="0" y="-9.5" width="144" height="19"/><g class="layers" style="opacity: 1;"><g class="legendfill"/><g class="legendlines"><path class="js-line" d="M5,0h30" style="fill: none; stroke: rgb(31, 119, 180); stroke-opacity: 1; stroke-width: 2px;"/></g><g class="legendsymbols"><g class="legendpoints"/></g></g></g><g class="traces" transform="translate(0, 33.5)" style="opacity: 1;"><text class="legendtext user-select-none" text-anchor="start" x="40" y="4.680000000000001" style="font-family: 'Open Sans', verdana, arial, sans-serif; font-size: 12px; fill: rgb(68, 68, 68); fill-opacity: 1; white-space: pre;">15 Weeks</text><rect class="legendtoggle" pointer-events="all" style="cursor: pointer; fill: rgb(0, 0, 0); fill-opacity: 0;" x="0" y="-9.5" width="144" height="19"/><g class="layers" style="opacity: 1;"><g class="legendfill"/><g class="legendlines"><path class="js-line" d="M5,0h30" style="fill: none; stroke: rgb(255, 127, 14); stroke-opacity: 1; stroke-width: 2px;"/></g><g class="legendsymbols"><g class="legendpoints"/></g></g></g><g class="traces" transform="translate(0, 52.5)" style="opacity: 1;"><text class="legendtext user-select-none" text-anchor="start" x="40" y="4.680000000000001" style="font-family: 'Open Sans', verdana, arial, sans-serif; font-size: 12px; fill: rgb(68, 68, 68); fill-opacity: 1; white-space: pre;">27 Weeks</text><rect class="legendtoggle" pointer-events="all" x="0" y="-9.5" width="144" height="19" style="cursor: pointer; fill: rgb(0, 0, 0); fill-opacity: 0;"/><g class="layers" style="opacity: 1;"><g class="legendfill"/><g class="legendlines"><path class="js-line" d="M5,0h30" style="fill: none; stroke: rgb(44, 160, 44); stroke-opacity: 1; stroke-width: 2px;"/></g><g class="legendsymbols"><g class="legendpoints"/></g></g></g></g></g><rect class="scrollbar" rx="20" ry="3" width="0" height="0" style="fill: rgb(128, 139, 164); fill-opacity: 1;" x="0" y="0"/></g><g class="g-gtitle"><text class="gtitle" x="350" y="50" text-anchor="middle" dy="0em" style="font-family: 'Open Sans', verdana, arial, sans-serif; font-size: 17px; fill: rgb(68, 68, 68); opacity: 1; font-weight: normal; white-space: pre;"><tspan class="line" dy="0em" x="350" y="50"><tspan style="font-weight:bold">After June 2018, Workouts Per Week Declines Slightly</tspan></tspan><tspan class="line" dy="1.3em" x="350" y="50"><tspan style="font-style:italic">Workouts per Week, Centered Rolling Averages</tspan></tspan><tspan class="line" dy="2.6em" x="350" y="50"><tspan style="font-style:italic"></tspan></tspan></text></g><g class="g-xtitle"><text class="xtitle" x="327" y="472" text-anchor="middle" style="font-family: 'Open Sans', verdana, arial, sans-serif; font-size: 14px; fill: rgb(68, 68, 68); opacity: 1; font-weight: normal; white-space: pre;">Week of Year</text></g><g class="g-ytitle"><text class="ytitle" transform="rotate(-90,42,260)" x="42" y="260" text-anchor="middle" style="font-family: 'Open Sans', verdana, arial, sans-serif; font-size: 14px; fill: rgb(68, 68, 68); opacity: 1; font-weight: normal; white-space: pre;">Number of Workouts per Week</text></g></g></svg>