<svg class="main-svg" xmlns="http://www.w3.org/2000/svg" xmlns:xlink="http://www.w3.org/1999/xlink" width="700" height="500" viewBox="0 0 700 500"><rect x="0" y="0" width="700" height="500" style="fill: rgb(229, 229, 229); fill-opacity: 1;"/><defs id="defs-8231b7"><g class="clips"><clipPath id="clip8231b7xyplot" class="plotclip"><rect width="494" height="320"/></clipPath><clipPath class="axesclip" id="clip8231b7x"><rect x="80" y="0" width="494" height="500"/></clipPath><clipPath class="axesclip" id="clip8231b7y"><rect x="0" y="100" width="700" height="320"/></clipPath><clipPath class="axesclip" id="clip8231b7xy"><rect x="80" y="100" width="494" height="320"/></clipPath></g><g class="gradients"/></defs><g class="bglayer"/><g class="layer-below"><g class="imagelayer"/><g class="shapelayer"/></g><g class="cartesianlayer"><g class="subplot xy"><g class="layer-subplot"><g class="shapelayer"/><g class="imagelayer"/></g><g class="gridlayer"><g class="x"><path class="xgrid crisp" transform="translate(136.36,0)" d="M0,100v320" style="stroke: rgb(214, 214, 214); stroke-opacity: 1; stroke-width: 1px;"/><path class="xgrid crisp" transform="translate(235.81,0)" d="M0,100v320" style="stroke: rgb(214, 214, 214); stroke-opacity: 1; stroke-width: 1px;"/><path class="xgrid crisp" transform="translate(335.53999999999996,0)" d="M0,100v320" style="stroke: rgb(214, 214, 214); stroke-opacity: 1; stroke-width: 1px;"/><path class="xgrid crisp" transform="translate(434.99,0)" d="M0,100v320" style="stroke: rgb(214, 214, 214); stroke-opacity: 1; stroke-width: 1px;"/><path class="xgrid crisp" transform="translate(534.45,0)" d="M0,100v320" style="stroke: rgb(214, 214, 214); stroke-opacity: 1; stroke-width: 1px;"/></g><g class="y"><path class="ygrid crisp" transform="translate(0,366.11)" d="M80,0h494" style="stroke: rgb(214, 214, 214); stroke-opacity: 1; stroke-width: 1px;"/><path class="ygrid crisp" transform="translate(0,328.21000000000004)" d="M80,0h494" style="stroke: rgb(214, 214, 214); stroke-opacity: 1; stroke-width: 1px;"/><path class="ygrid crisp" transform="translate(0,290.32)" d="M80,0h494" style="stroke: rgb(214, 214, 214); stroke-opacity: 1; stroke-width: 1px;"/><path class="ygrid crisp" transform="translate(0,252.42)" d="M80,0h494" style="stroke: rgb(214, 214, 214); stroke-opacity: 1; stroke-width: 1px;"/><path class="ygrid crisp" transform="translate(0,214.53)" d="M80,0h494" style="stroke: rgb(214, 214, 214); stroke-opacity: 1; stroke-width: 1px;"/><path class="ygrid crisp" transform="translate(0,176.63)" d="M80,0h494" style="stroke: rgb(214, 214, 214); stroke-opacity: 1; stroke-width: 1px;"/><path class="ygrid crisp" transform="translate(0,138.74)" d="M80,0h494" style="stroke: rgb(214, 214, 214); stroke-opacity: 1; stroke-width: 1px;"/></g></g><g class="zerolinelayer"><path class="yzl zl crisp" transform="translate(0,404)" d="M80,0h494" style="stroke: rgb(68, 68, 68); stroke-opacity: 1; stroke-width: 1px;"/></g><path class="xlines-below"/><path class="ylines-below"/><g class="overlines-below"/><g class="xaxislayer-below"/><g class="yaxislayer-below"/><g class="overaxes-below"/><g class="plot" transform="translate(80, 100)" clip-path="url(#clip8231b7xyplot)"><g class="scatterlayer mlayer"><g class="trace scatter trace855934cd-11fc-4197-9112-6fb94fffc1f0" style="stroke-miterlimit: 2; opacity: 1;"><g class="fills"/><g class="errorbars"/><g class="lines"><path class="js-line" d="M3.81,106.95Q5.08,86.74 5.72,76.63C6.36,66.53 6.84,54.68 7.63,46.32C8.19,40.39 8.9,36.21 9.54,31.16C10.17,26.11 10.81,16 11.44,16C12.08,16 12.71,31.16 13.35,31.16C13.99,31.16 14.7,15.98 15.26,16C16.05,16.02 16.62,33.93 17.17,46.32C18.03,65.89 17.89,106.52 19.07,122.11C19.6,129.11 20.44,130.84 20.98,137.26C21.91,148.34 22.32,165.65 22.89,182.74C23.63,204.79 23.63,242.94 24.8,258.53C25.33,265.53 25.2,272.36 26.7,273.68C27.23,274.15 28.07,273.17 28.61,273.68C30.77,275.71 29.88,304 30.52,304C31.15,304 30.26,275.71 32.42,273.68C32.96,273.17 33.69,273.68 34.33,273.68C34.97,273.68 35.6,273.68 36.24,273.68C36.88,273.68 37.51,273.68 38.15,273.68C38.78,273.68 39.52,273.22 40.05,273.68C41.54,275 41.33,288.84 41.97,288.84C42.61,288.84 42.38,275 43.88,273.68C44.41,273.21 45.15,273.68 45.79,273.68C46.42,273.68 47.14,274.21 47.69,273.68C50.37,271.11 48.88,241.83 49.6,228.21C50.18,217.08 50.95,209.74 51.51,197.89C52.3,181.15 52.73,156.02 53.42,137.26C54.02,121.01 54.61,105.41 55.32,91.79C55.9,80.66 56.65,61.46 57.23,61.47C57.95,61.48 58.5,91.79 59.14,106.95C59.78,122.11 60.48,135.34 61.05,152.42C61.79,174.47 62.09,208.64 62.95,228.21C63.5,240.6 64.22,248.42 64.86,258.53C65.5,268.63 64.61,286.81 66.77,288.84C67.31,289.35 68.15,289.31 68.68,288.84C70.18,287.52 69.94,278.73 70.58,273.68C71.21,268.63 71.96,265.28 72.49,258.53C73.55,245.07 73.71,216.65 74.4,197.89C74.99,181.64 73.6,155 76.29,152.42C76.84,151.89 77.67,151.95 78.2,152.42C79.7,153.74 79.47,162.53 80.11,167.58C80.75,172.63 81.49,175.74 82.02,182.74C83.19,198.34 83.18,236.48 83.92,258.53C84.49,275.61 83.14,301.42 85.83,304C86.38,304.53 87.1,304 87.74,304C88.37,304 89.01,304 89.64,304C90.28,304 90.91,304 91.55,304C92.19,304 92.82,304 93.46,304C94.1,304 94.73,304 95.37,304C96,304 96.73,304.51 97.27,304C99.42,301.98 98.54,283.79 99.18,273.68C99.82,263.58 98.93,245.4 101.09,243.37C101.63,242.86 102.36,243.37 103,243.37C103.63,243.37 104.27,243.37 104.9,243.37C105.54,243.37 106.28,243.84 106.81,243.37C108.31,242.05 107.22,229.53 108.72,228.21C109.25,227.74 109.99,228.21 110.63,228.21C111.26,228.21 111.9,228.21 112.53,228.21C113.17,228.21 113.8,228.21 114.44,228.21C115.08,228.21 115.8,227.68 116.35,228.21C119.04,230.79 117.54,260.06 118.25,273.68C118.83,284.81 118,301.97 120.16,304C120.7,304.51 121.43,304 122.07,304C122.71,304 123.34,304 123.98,304C124.61,304 125.25,304 125.88,304C126.52,304 127.15,304 127.79,304C128.43,304 129.17,304.47 129.7,304C131.2,302.68 130.12,290.16 131.61,288.84C132.14,288.38 132.98,289.3 133.51,288.84C135,287.52 133.92,275 135.42,273.68C135.95,273.21 136.69,273.68 137.33,273.68C137.97,273.68 138.71,273.21 139.24,273.68C140.74,275 139.65,287.52 141.15,288.84C141.68,289.31 142.53,288.37 143.06,288.84C144.56,290.16 143.47,302.68 144.97,304C145.5,304.47 146.24,304 146.88,304C147.51,304 148.22,304.54 148.78,304C151.92,300.96 150,262.13 150.69,243.37C151.29,227.12 151.96,213.05 152.6,197.89C153.24,182.73 153.8,166.04 154.51,152.42C155.09,141.29 155.62,130.47 156.41,122.11C156.97,116.18 157.79,106.93 158.32,106.95C159.38,107 159.44,150.84 160.23,167.58C160.79,179.42 161.5,187.79 162.13,197.89C162.77,208 161.88,226.18 164.04,228.21C164.58,228.72 165.42,227.74 165.95,228.21C167.45,229.53 166.37,242.05 167.86,243.37C168.39,243.83 169.23,242.91 169.76,243.37C171.25,244.69 171.03,258.53 171.67,258.53C172.31,258.53 172.08,244.69 173.58,243.37C174.11,242.9 174.95,243.88 175.49,243.37C177.65,241.34 176.59,221.41 177.38,213.05C177.94,207.12 178.76,204.64 179.29,197.89C180.35,184.43 180.41,154 181.2,137.26C181.76,125.42 182.47,106.95 183.1,106.95C183.74,106.95 184.22,128.9 185.01,137.26C185.57,143.19 186.28,147.37 186.92,152.42C187.56,157.47 187.34,166.26 188.83,167.58C189.36,168.04 190.1,167.58 190.73,167.58C191.37,167.58 192.1,168.09 192.64,167.58C194.8,165.55 193.97,148.39 194.55,137.26C195.27,123.64 195.82,106.95 196.46,91.79C197.09,76.63 195.67,48.9 198.36,46.32C198.91,45.79 199.63,46.32 200.27,46.32C200.91,46.32 201.64,46.83 202.18,46.32C204.34,44.29 201.92,18.03 204.08,16C204.62,15.49 205.35,16 205.99,16C206.63,16 207.37,15.53 207.9,16C209.4,17.32 209.17,26.11 209.81,31.16C210.44,36.21 210.21,45 211.71,46.32C212.24,46.79 213.09,45.85 213.62,46.32C215.12,47.64 214.89,61.47 215.53,61.47C216.17,61.47 215.95,47.64 217.44,46.32C217.97,45.86 218.71,46.32 219.34,46.32C219.98,46.32 220.71,45.81 221.25,46.32C223.41,48.35 222.37,68.27 223.16,76.63C223.72,82.56 224.43,86.74 225.07,91.79C225.7,96.84 225.47,105.63 226.97,106.95C227.5,107.42 228.33,106.42 228.88,106.95C231.57,109.53 229.86,152.38 230.79,152.42C231.33,152.44 232.05,142.31 232.69,137.26C233.32,132.21 233.1,123.43 234.6,122.11C235.13,121.64 235.97,121.6 236.51,122.11C238.67,124.14 237.78,152.42 238.42,152.42C239.05,152.42 239.68,122.11 240.32,122.11C240.96,122.11 241.45,144.06 242.24,152.42C242.8,158.35 242.65,166.26 244.15,167.58C244.68,168.05 245.53,168.05 246.06,167.58C247.56,166.26 247.41,152.4 247.97,152.42C248.76,152.44 249.08,182.72 249.87,182.74C250.43,182.76 250.28,168.9 251.78,167.58C252.31,167.11 253.14,167.05 253.69,167.58C256.38,170.16 254.88,199.43 255.59,213.05C256.17,224.18 256.92,243.38 257.5,243.37C258.22,243.36 258.48,208.97 259.41,197.89C259.95,191.47 260.69,187.79 261.32,182.74C261.96,177.69 262.59,172.63 263.22,167.58C263.86,162.53 264.57,158.35 265.13,152.42C265.92,144.06 266.4,122.11 267.04,122.11C267.68,122.11 268.32,142.32 268.95,152.42C269.59,162.53 268.69,180.71 270.85,182.74C271.39,183.25 272.22,183.25 272.76,182.74C274.92,180.71 274.04,152.42 274.67,152.42C275.3,152.42 275.93,182.74 276.56,182.74C277.19,182.74 276.31,154.45 278.47,152.42C279.01,151.91 279.85,151.95 280.38,152.42C281.88,153.74 281.73,161.65 282.29,167.58C283.08,175.94 283.56,197.89 284.19,197.89C284.83,197.89 285.31,167.6 286.1,167.58C286.66,167.56 287.37,182.74 288.01,182.74C288.65,182.74 289.36,167.56 289.92,167.58C290.71,167.6 291.03,197.87 291.82,197.89C292.38,197.91 293.09,182.74 293.73,182.74C294.37,182.74 295,197.89 295.64,197.89C296.27,197.89 296.91,182.74 297.54,182.74C298.18,182.74 298.89,197.91 299.45,197.89C300.24,197.87 300.57,167.6 301.36,167.58C301.92,167.56 301.78,181.42 303.27,182.74C303.8,183.2 304.63,182.23 305.17,182.74C307.32,184.76 306.29,213.03 307.08,213.05C307.64,213.07 307.49,199.21 308.99,197.89C309.52,197.42 310.37,198.36 310.9,197.89C312.4,196.57 312.17,187.79 312.8,182.74C313.44,177.69 314.07,167.58 314.71,167.58C315.35,167.58 316.06,176.81 316.62,182.74C317.41,191.1 317.9,202.95 318.53,213.05C319.17,223.16 319.64,243.35 320.43,243.37C320.99,243.39 320.84,229.53 322.34,228.21C322.87,227.74 323.69,228.75 324.25,228.21C327.39,225.16 325.52,187.79 326.15,167.58C326.79,147.37 327.42,127.16 328.06,106.95C328.7,86.74 328.91,59.78 329.97,46.32C330.5,39.57 330.39,32.48 331.88,31.16C332.41,30.7 333.24,30.65 333.78,31.16C335.93,33.18 334.9,53.11 335.69,61.47C336.25,67.4 336.96,71.58 337.6,76.63C338.24,81.68 338.98,85.04 339.51,91.79C340.57,105.25 340.36,138.96 341.42,152.42C341.95,159.17 342.69,162.53 343.33,167.58C343.97,172.63 344.68,176.81 345.24,182.74C346.03,191.1 345,211.03 347.15,213.05C347.69,213.56 348.51,213.56 349.05,213.05C351.2,211.03 350.32,192.84 350.96,182.74C351.6,172.63 352.08,160.78 352.87,152.42C353.43,146.49 353.29,138.58 354.78,137.26C355.31,136.8 356.15,137.72 356.68,137.26C358.17,135.94 358.03,128.04 358.59,122.11C359.38,113.75 359.71,91.81 360.5,91.79C361.06,91.77 361.77,101.9 362.41,106.95C363.04,112 363.68,122.11 364.31,122.11C364.95,122.11 365.58,106.95 366.22,106.95C366.86,106.95 367.57,116.18 368.13,122.11C368.92,130.47 367.87,150.39 370.03,152.42C370.57,152.93 371.4,152.93 371.94,152.42C374.1,150.39 373.06,130.47 373.85,122.11C374.41,116.18 375.12,106.95 375.75,106.95C376.38,106.95 376.15,120.79 377.65,122.11C378.18,122.58 379.02,122.62 379.56,122.11C381.72,120.08 380.68,91.81 381.47,91.79C382.03,91.77 381.87,105.63 383.37,106.95C383.9,107.42 384.64,106.95 385.28,106.95C385.92,106.95 386.55,106.95 387.19,106.95C387.83,106.95 388.56,106.44 389.1,106.95C391.26,108.98 390.37,137.26 391,137.26C391.64,137.26 392.12,106.97 392.91,106.95C393.47,106.93 394.26,122.13 394.82,122.11C395.61,122.09 395.94,100.15 396.73,91.79C397.29,85.86 397.13,77.95 398.63,76.63C399.16,76.16 400,76.12 400.54,76.63C402.7,78.66 400.29,104.92 402.45,106.95C402.99,107.46 403.82,106.44 404.36,106.95C406.52,108.98 405.63,127.16 406.26,137.26C406.9,147.37 407.38,167.56 408.17,167.58C408.73,167.6 409.44,157.47 410.08,152.42C410.71,147.37 411.42,137.24 411.98,137.26C412.77,137.28 413.1,167.56 413.89,167.58C414.45,167.6 415.24,158.35 415.8,152.42C416.59,144.06 415.56,124.13 417.71,122.11C418.25,121.6 419.08,121.65 419.61,122.11C421.1,123.43 420.99,137.28 421.52,137.26C422.58,137.21 422.74,76.63 423.43,76.63C424.03,76.63 422.66,119.54 425.34,122.11C425.89,122.64 426.61,122.11 427.24,122.11C427.88,122.11 428.61,121.6 429.15,122.11C431.31,124.14 428.9,150.39 431.06,152.42C431.6,152.93 432.44,152.89 432.97,152.42C434.47,151.1 434.24,137.26 434.87,137.26C435.51,137.26 436.14,147.37 436.78,152.42C437.42,157.47 438.05,167.58 438.69,167.58C439.33,167.58 439.97,152.42 440.61,152.42C441.25,152.42 441.95,167.6 442.51,167.58C443.3,167.56 443.63,145.62 444.42,137.26C444.98,131.33 445.77,122.09 446.33,122.11C447.12,122.13 447.45,152.4 448.24,152.42C448.8,152.44 449.51,137.26 450.14,137.26C450.78,137.26 451.49,146.49 452.05,152.42C452.84,160.78 453.17,174.38 453.96,182.74C454.52,188.67 455.23,197.89 455.86,197.89C456.5,197.89 457.13,187.79 457.77,182.74C458.41,177.69 459.04,172.63 459.68,167.58C460.32,162.53 460.95,157.47 461.59,152.42C462.22,147.37 462.85,142.31 463.49,137.26C464.12,132.21 464.76,122.11 465.4,122.11C466.04,122.11 466.67,132.21 467.31,137.26C467.95,142.31 468.58,147.37 469.22,152.42C469.85,157.47 469.62,166.26 471.12,167.58C471.65,168.05 472.5,167.11 473.03,167.58C474.53,168.9 474.3,182.74 474.93,182.74C475.56,182.74 475.33,168.9 476.83,167.58C477.36,167.11 478.1,167.58 478.74,167.58C479.38,167.58 480.01,167.58 480.65,167.58C481.29,167.58 481.92,167.58 482.56,167.58C483.19,167.58 483.92,168.09 484.46,167.58C486.61,165.56 484.21,139.29 486.37,137.26C486.91,136.75 487.75,136.79 488.28,137.26Q489.78,138.58 490.19,152.42" style="vector-effect: non-scaling-stroke; fill: none; stroke: rgb(31, 119, 180); stroke-opacity: 1; stroke-width: 2px; opacity: 1;"/></g><g class="points"/><g class="text"/></g><g class="trace scatter trace971abc25-6e72-4340-96d2-e4119be47350" style="stroke-miterlimit: 2; opacity: 1;"><g class="fills"/><g class="errorbars"/><g class="lines"><path class="js-line" d="M13.35,106.95Q14.48,114.29 15.26,117.05C15.82,119.05 16.64,119.81 17.17,122.11C18.2,126.56 18.28,136.76 19.07,142.32C19.63,146.28 20.34,149.05 20.98,152.42C21.62,155.79 22.33,158.57 22.89,162.53C23.68,168.1 24.11,176.49 24.8,182.74C25.4,188.16 26.13,192.19 26.7,197.89C27.44,205.23 27.87,215.81 28.61,223.16C29.18,228.86 29.81,233.79 30.52,238.32C31.1,242.04 31.86,244.46 32.42,248.42C33.2,253.99 33.3,264.18 34.33,268.63C34.86,270.92 35.33,273.05 36.24,273.68C36.78,274.05 37.61,274.05 38.15,273.68C39.06,273.05 39.51,270.81 40.05,268.63C40.96,264.97 41.39,259.17 41.97,253.47C42.71,246.13 43.14,235.55 43.88,228.21C44.45,222.51 45.08,217.58 45.79,213.05C46.37,209.33 46.47,203.96 47.69,202.95C48.22,202.51 49.07,202.51 49.6,202.95C50.82,203.96 50.29,212.04 51.51,213.05C52.04,213.49 52.88,213.42 53.42,213.05C54.33,212.42 54.41,208.63 55.32,208C55.86,207.63 56.59,208 57.23,208C57.87,208 58.5,208 59.14,208C59.78,208 60.41,208 61.05,208C61.68,208 62.42,208.5 62.95,208C64.9,206.19 64.12,190.08 64.86,182.74C65.43,177.04 66.13,167.58 66.77,167.58C67.41,167.58 68.04,177.69 68.68,182.74C69.31,187.79 70.01,192.19 70.58,197.89C71.32,205.23 71.75,215.81 72.49,223.16C73.06,228.86 73.69,233.79 74.4,238.32C74.98,242.04 75.07,247.41 76.29,248.42C76.82,248.86 77.56,248.42 78.2,248.42C78.84,248.42 79.47,248.42 80.11,248.42C80.75,248.42 81.48,248.05 82.02,248.42C82.93,249.05 83.01,252.84 83.92,253.47C84.46,253.84 85.19,253.47 85.83,253.47C86.47,253.47 87.2,253.84 87.74,253.47C88.65,252.84 89.01,250.1 89.64,248.42C90.28,246.74 91.02,243.29 91.55,243.37C92.69,243.53 92.72,261.29 93.46,268.63C94.03,274.33 93.88,282.47 95.37,283.79C95.9,284.25 96.74,284.25 97.27,283.79C98.76,282.47 98.47,273.16 99.18,268.63C99.77,264.91 99.87,259.54 101.09,258.53C101.62,258.09 102.36,258.53 103,258.53C103.63,258.53 104.27,258.53 104.9,258.53C105.54,258.53 106.17,258.53 106.81,258.53C107.45,258.53 108.08,258.53 108.72,258.53C109.36,258.53 109.99,258.53 110.63,258.53C111.26,258.53 111.9,258.53 112.53,258.53C113.17,258.53 113.8,258.53 114.44,258.53C115.08,258.53 115.82,258.09 116.35,258.53C117.57,259.54 117.62,265.26 118.25,268.63C118.89,272 119.38,278.67 120.16,278.74C120.72,278.79 121.16,274.31 122.07,273.68C122.61,273.31 123.44,274.05 123.98,273.68C124.89,273.05 125.34,268.57 125.88,268.63C126.79,268.74 127.08,279.26 127.79,283.79C128.38,287.51 128.48,292.88 129.7,293.89C130.23,294.33 130.97,293.89 131.61,293.89C132.24,293.89 132.88,293.89 133.51,293.89C134.15,293.89 134.78,293.89 135.42,293.89C136.06,293.89 136.69,293.89 137.33,293.89C137.97,293.89 138.71,294.38 139.24,293.89C140.98,292.31 140.46,279.93 141.15,273.68C141.75,268.26 142.42,263.58 143.06,258.53C143.7,253.48 144.26,247.9 144.97,243.37C145.56,239.65 146.11,236.02 146.88,233.26C147.44,231.26 148.15,228.21 148.78,228.21C149.42,228.21 150.05,233.26 150.69,233.26C151.33,233.26 151.69,228.84 152.6,228.21C153.14,227.84 153.98,228.65 154.51,228.21C155.73,227.2 155.19,219.12 156.41,218.11C156.94,217.67 157.68,218.11 158.32,218.11C158.96,218.11 159.59,218.11 160.23,218.11C160.86,218.11 161.6,218.55 162.13,218.11C163.35,217.1 163.4,211.37 164.04,208C164.68,204.63 165.31,201.26 165.95,197.89C166.59,194.52 167.28,187.77 167.86,187.79C168.57,187.81 168.85,202.84 169.76,202.95C170.3,203.01 171.03,199.58 171.67,197.89C172.31,196.21 173.02,192.79 173.58,192.84C174.36,192.91 174.27,201.94 175.49,202.95C176.01,203.38 176.75,202.95 177.38,202.95C178.01,202.95 178.76,203.42 179.29,202.95C180.79,201.63 180.56,192.84 181.2,187.79C181.83,182.74 181.6,173.95 183.1,172.63C183.63,172.16 184.48,173.12 185.01,172.63C186.75,171.05 186.23,158.67 186.92,152.42C187.52,147 188.23,142.68 188.83,137.26C189.52,131.01 189.94,122.61 190.73,117.05C191.29,113.09 192,110.32 192.64,106.95C193.28,103.58 193.91,100.21 194.55,96.84C195.19,93.47 195.83,90.11 196.46,86.74C197.1,83.37 197.58,76.7 198.36,76.63C198.92,76.58 199.63,80 200.27,81.68C200.91,83.37 201.65,86.81 202.18,86.74C203.21,86.6 203.29,72.1 204.08,66.53C204.64,62.57 205.43,60.38 205.99,56.42C206.78,50.85 206.87,36.35 207.9,36.21C208.43,36.14 209.18,39.58 209.81,41.26C210.45,42.95 210.8,45.69 211.71,46.32C212.25,46.69 213.09,45.88 213.62,46.32C214.84,47.33 214.31,55.41 215.53,56.42C216.06,56.86 216.9,56.05 217.44,56.42C218.35,57.05 218.81,59.18 219.34,61.47C220.37,65.92 220.22,77.23 221.25,81.68C221.78,83.98 222.52,85.05 223.16,86.74C223.8,88.42 224.16,91.16 225.07,91.79C225.61,92.16 226.44,91.35 226.97,91.79C228.19,92.8 228.1,99.13 228.88,101.89C229.44,103.89 230.25,104.77 230.79,106.95C231.7,110.61 231.78,118.45 232.69,122.11C233.23,124.29 233.96,125.48 234.6,127.16C235.24,128.84 235.87,130.53 236.51,132.21C237.15,133.89 237.88,135.08 238.42,137.26C239.33,140.92 238.82,151.1 240.32,152.42C240.85,152.89 241.6,152.42 242.24,152.42C242.88,152.42 243.62,151.95 244.15,152.42C245.65,153.74 245.42,162.53 246.06,167.58C246.7,172.63 247.33,182.74 247.97,182.74C248.6,182.74 248.37,168.9 249.87,167.58C250.4,167.11 251.14,167.58 251.78,167.58C252.42,167.58 253.16,167.14 253.69,167.58C254.91,168.59 254.81,177.61 255.59,177.68C256.15,177.73 256.86,172.63 257.5,172.63C258.14,172.63 258.5,177.05 259.41,177.68C259.95,178.05 260.78,178.05 261.32,177.68C262.23,177.05 262.31,173.26 263.22,172.63C263.76,172.26 264.6,172.19 265.13,172.63C266.35,173.64 266.45,182.76 267.04,182.74C267.75,182.72 268.04,167.69 268.95,167.58C269.49,167.52 269.94,172 270.85,172.63C271.39,173 272.22,173 272.76,172.63C273.67,172 274.11,169.58 274.67,167.58C275.44,164.82 275.79,157.54 276.56,157.47C277.12,157.42 277.83,160.84 278.47,162.53C279.11,164.21 279.84,165.4 280.38,167.58C281.29,171.24 281.38,182.63 282.29,182.74C282.83,182.8 283.56,177.68 284.19,177.68C284.83,177.68 285.54,182.79 286.1,182.74C286.88,182.67 286.79,173.64 288.01,172.63C288.54,172.19 289.38,172.26 289.92,172.63C290.83,173.26 291.26,175.68 291.82,177.68C292.59,180.44 292.95,187.72 293.73,187.79C294.29,187.84 295.08,182.69 295.64,182.74C296.42,182.81 296.76,192.77 297.54,192.84C298.1,192.89 298.54,188.42 299.45,187.79C299.99,187.42 300.82,188.16 301.36,187.79C302.27,187.16 302.36,183.37 303.27,182.74C303.81,182.37 304.64,182.3 305.17,182.74C306.39,183.75 306.44,189.47 307.08,192.84C307.72,196.21 307.77,201.94 308.99,202.95C309.52,203.39 310.36,203.32 310.9,202.95C311.81,202.32 312.16,199.58 312.8,197.89C313.43,196.21 314.07,194.52 314.71,192.84C315.35,191.16 316.08,189.97 316.62,187.79C317.53,184.13 317.82,177.16 318.53,172.63C319.11,168.91 319.85,166.25 320.43,162.53C321.14,158 321.43,151.03 322.34,147.37C322.88,145.19 323.62,144 324.25,142.32C324.89,140.63 325.51,138.95 326.15,137.26C326.78,135.58 327.42,133.89 328.06,132.21C328.7,130.53 329.41,127.11 329.97,127.16C330.75,127.23 331.11,134.5 331.88,137.26C332.44,139.26 333.15,142.32 333.78,142.32C334.42,142.32 335.05,138.95 335.69,137.26C336.33,135.58 337.06,134.39 337.6,132.21C338.51,128.55 338.6,117.16 339.51,117.05C340.05,116.99 340.78,122.11 341.42,122.11C342.06,122.11 342.77,117 343.33,117.05C344.11,117.12 344.65,123.44 345.24,127.16C345.95,131.69 345.66,141 347.15,142.32C347.68,142.78 348.42,142.32 349.05,142.32C349.69,142.32 350.32,142.32 350.96,142.32C351.6,142.32 352.33,141.95 352.87,142.32C353.78,142.95 354.14,145.69 354.78,147.37C355.41,149.05 355.77,151.79 356.68,152.42C357.22,152.79 358.06,152.86 358.59,152.42C359.81,151.41 359.72,145.08 360.5,142.32C361.06,140.32 361.85,139.26 362.41,137.26C363.18,134.5 363.68,130.53 364.31,127.16C364.95,123.79 365.44,117.12 366.22,117.05C366.78,117 367.22,121.48 368.13,122.11C368.67,122.48 369.49,122.48 370.03,122.11C370.94,121.48 371.03,117.68 371.94,117.05C372.48,116.68 373.32,117.49 373.85,117.05C375.07,116.04 375.12,106.95 375.75,106.95C376.38,106.95 377.02,113.68 377.65,117.05C378.29,120.42 378.34,126.15 379.56,127.16C380.09,127.6 380.94,127.63 381.47,127.16C382.97,125.84 381.87,113.32 383.37,112C383.9,111.53 384.74,112.37 385.28,112C386.19,111.37 386.55,108.63 387.19,106.95C387.83,105.26 388.19,102.52 389.1,101.89C389.64,101.52 390.46,101.52 391,101.89C391.91,102.52 392.27,105.26 392.91,106.95C393.55,108.63 393.91,111.37 394.82,112C395.36,112.37 396.19,111.63 396.73,112C397.64,112.63 398,115.37 398.63,117.05C399.27,118.74 399.9,122.11 400.54,122.11C401.18,122.11 401.91,116.99 402.45,117.05C403.36,117.16 403.45,132.1 404.36,132.21C404.9,132.27 405.63,128.84 406.26,127.16C406.9,125.48 407.53,123.79 408.17,122.11C408.81,120.42 409.52,117 410.08,117.05C410.86,117.12 411.35,127.16 411.98,127.16C412.62,127.16 413.33,117.02 413.89,117.05C414.68,117.09 414.06,135.68 415.8,137.26C416.33,137.75 417.17,137.63 417.71,137.26C418.62,136.63 419.05,132.16 419.61,132.21C420.38,132.28 420.88,142.32 421.52,142.32C422.16,142.32 422.65,132.28 423.43,132.21C423.99,132.16 424.7,137.26 425.34,137.26C425.97,137.26 426.61,132.21 427.24,132.21C427.88,132.21 428.59,135.26 429.15,137.26C429.93,140.02 430.47,147.39 431.06,147.37C431.77,147.35 431.48,133.53 432.97,132.21C433.5,131.75 434.24,132.21 434.87,132.21C435.51,132.21 436.25,131.74 436.78,132.21C438.28,133.53 437.19,146.05 438.69,147.37C439.22,147.84 440.08,146.93 440.61,147.37C441.83,148.39 441.73,157.4 442.51,157.47C443.07,157.52 443.78,152.42 444.42,152.42C445.06,152.42 445.77,155.47 446.33,157.47C447.11,160.23 447.66,167.6 448.24,167.58C448.95,167.56 449.23,152.53 450.14,152.42C450.68,152.36 451.41,157.47 452.05,157.47C452.69,157.47 453.32,154.1 453.96,152.42C454.59,150.74 455.3,147.32 455.86,147.37C456.63,147.44 456.99,157.4 457.77,157.47C458.33,157.52 459.04,152.42 459.68,152.42C460.32,152.42 460.96,155.79 461.59,157.47C462.23,159.16 462.85,160.84 463.49,162.53C464.12,164.21 464.76,167.58 465.4,167.58C466.04,167.58 466.4,163.16 467.31,162.53C467.85,162.16 468.58,162.53 469.22,162.53C469.85,162.53 470.58,162.9 471.12,162.53C472.03,161.9 472.12,158.1 473.03,157.47C473.57,157.1 474.41,157.91 474.93,157.47C476.15,156.46 476.05,147.44 476.83,147.37C477.39,147.32 478.18,150.42 478.74,152.42Q479.52,155.18 480.65,162.53" style="vector-effect: non-scaling-stroke; fill: none; stroke: rgb(255, 127, 14); stroke-opacity: 1; stroke-width: 2px; opacity: 1;"/></g><g class="points"/><g class="text"/></g><g class="trace scatter trace58e87a63-e233-4877-af64-a5339c2bd1b3" style="stroke-miterlimit: 2; opacity: 1;"><g class="fills"/><g class="errorbars"/><g class="lines"><path class="js-line" d="M24.8,183.3Q26.07,188.91 26.7,188.91C27.34,188.91 27.86,183.4 28.61,183.3C29.18,183.22 29.98,186.21 30.52,186.11C31.39,185.95 31.55,177.84 32.42,177.68C32.96,177.58 33.76,179.35 34.33,180.49C35.08,182 35.65,184.03 36.24,186.11C36.95,188.62 37.58,191.35 38.15,194.53C38.89,198.6 39.31,204.49 40.05,208.56C40.63,211.74 41.26,214.47 41.97,216.98C42.56,219.06 43.33,220.27 43.88,222.6C44.73,226.19 44.71,233.81 45.79,236.63C46.32,238.01 47.06,239.44 47.69,239.44C48.33,239.44 48.96,236.63 49.6,236.63C50.24,236.63 50.98,239.56 51.51,239.44C52.59,239.19 52.69,229.47 53.42,225.4C53.99,222.22 54.2,217.88 55.32,216.98C55.85,216.56 56.59,216.98 57.23,216.98C57.87,216.98 58.5,216.98 59.14,216.98C59.78,216.98 60.51,216.6 61.05,216.98C62,217.66 62,221.92 62.95,222.6C63.49,222.98 64.22,222.6 64.86,222.6C65.5,222.6 66.13,222.6 66.77,222.6C67.41,222.6 68.04,222.6 68.68,222.6C69.31,222.6 70.01,222.3 70.58,222.6C71.34,223 71.85,224.47 72.49,225.4C73.13,226.34 73.64,227.81 74.4,228.21C74.96,228.51 75.76,228.59 76.29,228.21C77.23,227.54 77.45,222.7 78.2,222.6C78.77,222.52 79.56,224.15 80.11,225.4C80.98,227.4 81.45,230.64 82.02,233.82C82.76,237.89 83.18,243.79 83.92,247.86C84.49,251.04 84.96,256.12 85.83,256.28C86.38,256.38 87.17,254.61 87.74,253.47C88.49,251.96 88.7,248.54 89.64,247.86C90.18,247.48 90.91,247.86 91.55,247.86C92.19,247.86 92.89,247.56 93.46,247.86C94.22,248.26 94.61,250.27 95.37,250.67C95.94,250.97 96.64,250.67 97.27,250.67C97.91,250.67 98.61,250.37 99.18,250.67C99.94,251.07 100.45,252.54 101.09,253.47C101.73,254.41 102.47,254.9 103,256.28C104.08,259.1 104.16,266.25 104.9,270.32C105.47,273.5 105.69,277.84 106.81,278.74C107.34,279.16 108.15,279.04 108.72,278.74C109.48,278.34 109.87,276.33 110.63,275.93C111.2,275.63 111.96,276.23 112.53,275.93C113.29,275.53 113.68,273.52 114.44,273.12C115.01,272.82 115.71,273.12 116.35,273.12C116.98,273.12 117.62,273.12 118.25,273.12C118.89,273.12 119.52,273.12 120.16,273.12C120.8,273.12 121.43,273.12 122.07,273.12C122.71,273.12 123.34,273.12 123.98,273.12C124.61,273.12 125.25,273.12 125.88,273.12C126.52,273.12 127.25,273.5 127.79,273.12C128.74,272.44 128.95,269.02 129.7,267.51C130.27,266.37 131.07,265.95 131.61,264.7C132.48,262.7 132.8,258.79 133.51,256.28C134.1,254.2 134.67,252.18 135.42,250.67C135.99,249.53 136.78,247.76 137.33,247.86C138.2,248.02 138.37,254.28 139.24,256.28C139.79,257.53 140.51,259.09 141.15,259.09C141.79,259.09 142.49,257.42 143.06,256.28C143.81,254.77 144.02,251.35 144.97,250.67C145.51,250.29 146.24,250.67 146.88,250.67C147.51,250.67 148.15,250.67 148.78,250.67C149.42,250.67 150.15,251.05 150.69,250.67C151.64,249.99 151.96,246.92 152.6,245.05C153.24,243.18 153.88,241.31 154.51,239.44C155.15,237.57 155.66,235.33 156.41,233.82C156.98,232.68 157.79,232.34 158.32,231.02C159.3,228.59 159.54,223.26 160.23,219.79C160.83,216.77 161.01,212.27 162.13,211.37C162.66,210.95 163.4,211.37 164.04,211.37C164.68,211.37 165.31,211.37 165.95,211.37C166.59,211.37 167.33,211.82 167.86,211.37C169.15,210.28 169.13,203.88 169.76,200.14C170.4,196.4 170.89,191.98 171.67,188.91C172.23,186.69 173.02,185.52 173.58,183.3C174.36,180.23 174.81,175.54 175.49,172.07C176.08,169.05 176.79,166.67 177.38,163.65C178.06,160.18 178,153.51 179.29,152.42C179.82,151.97 180.63,152.72 181.2,152.42C181.96,152.02 182.46,150.55 183.1,149.61C183.73,148.68 184.37,147.74 185.01,146.81C185.65,145.87 186.35,145.14 186.92,144C187.67,142.49 188.24,140.47 188.83,138.39C189.54,135.88 190.09,132.77 190.73,129.96C191.36,127.15 191.93,124.05 192.64,121.54C193.23,119.46 193.91,117.8 194.55,115.93C195.19,114.06 195.87,112.4 196.46,110.32C197.17,107.81 197.72,104.7 198.36,101.89C198.99,99.08 199.56,95.98 200.27,93.47C200.86,91.39 201.24,88.54 202.18,87.86C202.71,87.48 203.51,88.16 204.08,87.86C204.84,87.46 205.35,85.99 205.99,85.05C206.63,84.12 207.26,82.25 207.9,82.25C208.54,82.25 209.18,84.12 209.81,85.05C210.45,85.99 211.08,86.92 211.71,87.86C212.35,88.8 213.07,90.77 213.62,90.67C214.49,90.51 214.41,83.15 215.53,82.25C216.06,81.83 216.9,82.63 217.44,82.25C218.39,81.57 218.75,76.6 219.34,76.63C220.05,76.67 220.54,82.54 221.25,85.05C221.84,87.13 222.41,90.57 223.16,90.67C223.73,90.75 224.5,87.78 225.07,87.86C225.82,87.96 226.38,91.39 226.97,93.47C227.68,95.98 228.17,99.38 228.88,101.89C229.47,103.97 230.15,105.64 230.79,107.51C231.42,109.38 232.13,110.9 232.69,113.12C233.47,116.2 233.96,120.61 234.6,124.35C235.24,128.09 235.22,134.49 236.51,135.58C237.04,136.03 237.78,135.58 238.42,135.58C239.05,135.58 239.69,135.58 240.32,135.58C240.96,135.58 241.71,135.16 242.24,135.58C243.37,136.48 243.28,142 244.15,144C244.7,145.25 245.51,145.56 246.06,146.81C246.93,148.81 247.26,152.72 247.97,155.23C248.56,157.31 248.93,160.16 249.87,160.84C250.41,161.22 251.21,161.14 251.78,160.84C252.54,160.44 253.12,157.96 253.69,158.04C254.44,158.14 254.65,162.97 255.59,163.65C256.13,164.03 256.96,163.27 257.5,163.65C258.45,164.33 258.77,169.26 259.41,169.26C260.05,169.26 260.68,163.65 261.32,163.65C261.95,163.65 262.47,167.75 263.22,169.26C263.79,170.4 264.49,171.13 265.13,172.07C265.77,173.01 266.4,174.88 267.04,174.88C267.68,174.88 268.38,171.99 268.95,172.07C269.7,172.17 270.1,177.58 270.85,177.68C271.42,177.76 272.12,174.88 272.76,174.88C273.4,174.88 273.91,177.28 274.67,177.68C275.23,177.98 276,177.38 276.56,177.68C277.32,178.08 277.9,180.57 278.47,180.49C279.22,180.39 279.63,174.98 280.38,174.88C280.95,174.8 281.66,176.75 282.29,177.68C282.93,178.62 283.56,180.49 284.19,180.49C284.83,180.49 285.53,178.82 286.1,177.68C286.85,176.17 287.26,172.17 288.01,172.07C288.58,171.99 289.28,173.94 289.92,174.88C290.55,175.81 291.19,176.75 291.82,177.68C292.46,178.62 293.09,179.55 293.73,180.49C294.37,181.43 295.07,182.16 295.64,183.3C296.39,184.81 296.79,187.4 297.54,188.91C298.11,190.05 298.88,191.8 299.45,191.72C300.2,191.62 300.61,186.21 301.36,186.11C301.93,186.03 302.63,188.91 303.27,188.91C303.9,188.91 304.64,187.43 305.17,186.11C306.15,183.68 306.1,177.31 307.08,174.88C307.61,173.55 308.44,173.32 308.99,172.07C309.86,170.07 309.78,164.55 310.9,163.65C311.43,163.23 312.23,163.95 312.8,163.65C313.56,163.25 314.07,161.78 314.71,160.84C315.35,159.91 315.98,158.97 316.62,158.04C317.26,157.1 317.96,155.15 318.53,155.23C319.28,155.33 319.68,160.74 320.43,160.84C321,160.92 321.7,158.04 322.34,158.04C322.98,158.04 323.49,160.44 324.25,160.84C324.82,161.14 325.52,160.84 326.15,160.84C326.79,160.84 327.49,161.14 328.06,160.84C328.82,160.44 329.33,158.97 329.97,158.04C330.61,157.1 331.24,156.17 331.88,155.23C332.51,154.29 333.02,152.82 333.78,152.42C334.35,152.12 335.16,152.84 335.69,152.42C336.81,151.52 336.89,146.51 337.6,144C338.19,141.92 338.56,139.07 339.51,138.39C340.05,138.01 340.85,138.09 341.42,138.39C342.18,138.79 342.57,140.79 343.33,141.19C343.9,141.49 344.71,141.61 345.24,141.19C346.36,140.29 346.44,135.28 347.15,132.77C347.74,130.69 348.42,129.03 349.05,127.16C349.69,125.29 350.01,122.22 350.96,121.54C351.5,121.16 352.3,121.84 352.87,121.54C353.63,121.14 354.21,118.66 354.78,118.74C355.53,118.84 356.05,122.48 356.68,124.35C357.32,126.22 357.64,129.28 358.59,129.96C359.13,130.34 359.96,129.58 360.5,129.96C361.45,130.64 361.66,135.48 362.41,135.58C362.98,135.66 363.55,133.17 364.31,132.77C364.88,132.47 365.65,132.47 366.22,132.77C366.98,133.17 367.49,134.64 368.13,135.58C368.76,136.52 369.5,138.51 370.03,138.39C371.01,138.18 370.96,129.59 371.94,127.16C372.47,125.83 373.31,125.6 373.85,124.35C374.72,122.35 375.04,118.44 375.75,115.93C376.33,113.85 376.9,110.42 377.65,110.32C378.22,110.24 378.8,112.72 379.56,113.12C380.13,113.42 380.9,112.82 381.47,113.12C382.23,113.52 382.61,115.53 383.37,115.93C383.94,116.23 384.64,115.93 385.28,115.93C385.92,115.93 386.62,115.63 387.19,115.93C387.95,116.33 388.46,117.8 389.1,118.74C389.73,119.67 390.43,120.4 391,121.54C391.75,123.05 392.27,127.16 392.91,127.16C393.55,127.16 394.07,123.05 394.82,121.54C395.39,120.4 395.97,119.14 396.73,118.74C397.3,118.44 398,118.74 398.63,118.74C399.27,118.74 400,119.12 400.54,118.74C401.49,118.06 401.86,113.09 402.45,113.12C403.16,113.16 403.24,120.64 404.36,121.54C404.89,121.96 405.69,121.84 406.26,121.54C407.02,121.14 407.6,118.66 408.17,118.74C408.92,118.84 409.14,123.67 410.08,124.35C410.61,124.73 411.41,124.05 411.98,124.35C412.74,124.75 413.25,126.22 413.89,127.16C414.53,128.09 415.04,129.56 415.8,129.96C416.37,130.26 417.14,129.66 417.71,129.96C418.47,130.36 418.98,132.77 419.61,132.77C420.25,132.77 420.88,129.96 421.52,129.96C422.16,129.96 422.79,132.77 423.43,132.77C424.07,132.77 424.81,129.84 425.34,129.96C426.32,130.17 426.26,138.76 427.24,141.19C427.77,142.52 428.39,143.6 429.15,144C429.72,144.3 430.49,143.7 431.06,144C431.82,144.4 432.21,146.41 432.97,146.81C433.54,147.11 434.3,146.51 434.87,146.81C435.63,147.21 436.21,149.69 436.78,149.61C437.53,149.51 437.74,144.68 438.69,144C439.23,143.61 440.04,143.7 440.61,144C441.37,144.4 441.97,146.91 442.51,146.81C443.38,146.65 443.78,138.39 444.42,138.39C445.06,138.39 445.46,144.81 446.33,146.81C446.88,148.06 447.61,148.68 448.24,149.61C448.88,150.55 449.38,152.02 450.14,152.42C450.71,152.72 451.51,152.04 452.05,152.42C453,153.1 453.21,157.94 453.96,158.04C454.53,158.12 455.23,155.23 455.86,155.23C456.5,155.23 457.13,157.1 457.77,158.04C458.41,158.97 459.11,160.92 459.68,160.84C460.43,160.74 460.95,155.23 461.59,155.23C462.22,155.23 462.86,160.84 463.49,160.84C464.13,160.84 464.45,155.91 465.4,155.23C465.94,154.85 466.74,154.93 467.31,155.23Q468.07,155.63 469.22,158.04" style="vector-effect: non-scaling-stroke; fill: none; stroke: rgb(44, 160, 44); stroke-opacity: 1; stroke-width: 2px; opacity: 1;"/></g><g class="points"/><g class="text"/></g></g></g><g class="overplot"/><path class="xlines-above crisp" d="M0,0" style="fill: none;"/><path class="ylines-above crisp" d="M0,0" style="fill: none;"/><g class="overlines-above"/><g class="xaxislayer-above"><g class="xtick"><text text-anchor="middle" x="0" y="433" transform="translate(136.36,0)" style="font-family: 'Open Sans', verdana, arial, sans-serif; font-size: 12px; fill: rgb(68, 68, 68); fill-opacity: 1; white-space: pre;">2015</text></g><g class="xtick"><text text-anchor="middle" x="0" y="433" transform="translate(235.81,0)" style="font-family: 'Open Sans', verdana, arial, sans-serif; font-size: 12px; fill: rgb(68, 68, 68); fill-opacity: 1; white-space: pre;">2016</text></g><g class="xtick"><text text-anchor="middle" x="0" y="433" transform="translate(335.53999999999996,0)" style="font-family: 'Open Sans', verdana, arial, sans-serif; font-size: 12px; fill: rgb(68, 68, 68); fill-opacity: 1; white-space: pre;">2017</text></g><g class="xtick"><text text-anchor="middle" x="0" y="433" transform="translate(434.99,0)" style="font-family: 'Open Sans', verdana, arial, sans-serif; font-size: 12px; fill: rgb(68, 68, 68); fill-opacity: 1; white-space: pre;">2018</text></g><g class="xtick"><text text-anchor="middle" x="0" y="433" transform="translate(534.45,0)" style="font-family: 'Open Sans', verdana, arial, sans-serif; font-size: 12px; fill: rgb(68, 68, 68); fill-opacity: 1; white-space: pre;">2019</text></g></g><g class="yaxislayer-above"><g class="ytick"><text text-anchor="end" x="79" y="4.199999999999999" transform="translate(0,404)" style="font-family: 'Open Sans', verdana, arial, sans-serif; font-size: 12px; fill: rgb(68, 68, 68); fill-opacity: 1; white-space: pre;">0</text></g><g class="ytick"><text text-anchor="end" x="79" y="4.199999999999999" transform="translate(0,366.11)" style="font-family: 'Open Sans', verdana, arial, sans-serif; font-size: 12px; fill: rgb(68, 68, 68); fill-opacity: 1; white-space: pre;">0.5</text></g><g class="ytick"><text text-anchor="end" x="79" y="4.199999999999999" transform="translate(0,328.21000000000004)" style="font-family: 'Open Sans', verdana, arial, sans-serif; font-size: 12px; fill: rgb(68, 68, 68); fill-opacity: 1; white-space: pre;">1</text></g><g class="ytick"><text text-anchor="end" x="79" y="4.199999999999999" transform="translate(0,290.32)" style="font-family: 'Open Sans', verdana, arial, sans-serif; font-size: 12px; fill: rgb(68, 68, 68); fill-opacity: 1; white-space: pre;">1.5</text></g><g class="ytick"><text text-anchor="end" x="79" y="4.199999999999999" transform="translate(0,252.42)" style="font-family: 'Open Sans', verdana, arial, sans-serif; font-size: 12px; fill: rgb(68, 68, 68); fill-opacity: 1; white-space: pre;">2</text></g><g class="ytick"><text text-anchor="end" x="79" y="4.199999999999999" transform="translate(0,214.53)" style="font-family: 'Open Sans', verdana, arial, sans-serif; font-size: 12px; fill: rgb(68, 68, 68); fill-opacity: 1; white-space: pre;">2.5</text></g><g class="ytick"><text text-anchor="end" x="79" y="4.199999999999999" transform="translate(0,176.63)" style="font-family: 'Open Sans', verdana, arial, sans-serif; font-size: 12px; fill: rgb(68, 68, 68); fill-opacity: 1; white-space: pre;">3</text></g><g class="ytick"><text text-anchor="end" x="79" y="4.199999999999999" transform="translate(0,138.74)" style="font-family: 'Open Sans', verdana, arial, sans-serif; font-size: 12px; fill: rgb(68, 68, 68); fill-opacity: 1; white-space: pre;">3.5</text></g><g class="ytick"><text text-anchor="end" x="79" y="4.199999999999999" transform="translate(0,100.84)" style="font-family: 'Open Sans', verdana, arial, sans-serif; font-size: 12px; fill: rgb(68, 68, 68); fill-opacity: 1; white-space: pre;">4</text></g></g><g class="overaxes-above"/></g></g><g class="polarlayer"/><g class="ternarylayer"/><g class="geolayer"/><g class="pielayer"/><g class="glimages"/><defs id="topdefs-8231b7"><g class="clips"/><clipPath id="legend8231b7"><rect width="104" height="67" x="0" y="0"/></clipPath></defs><g class="layer-above"><g class="imagelayer"/><g class="shapelayer"/></g><g class="infolayer"><g class="legend" pointer-events="all" transform="translate(583.88, 100)"><rect class="bg" shape-rendering="crispEdges" style="stroke: rgb(68, 68, 68); stroke-opacity: 1; fill: rgb(229, 229, 229); fill-opacity: 1; stroke-width: 0px;" width="104" height="67" x="0" y="0"/><g class="scrollbox" transform="translate(0, 0)" clip-path="url(#legend8231b7)"><g class="groups"><g class="traces" transform="translate(0, 14.5)" style="opacity: 1;"><text class="legendtext user-select-none" text-anchor="start" x="40" y="4.680000000000001" style="font-family: 'Open Sans', verdana, arial, sans-serif; font-size: 12px; fill: rgb(68, 68, 68); fill-opacity: 1; white-space: pre;">5 Weeks</text><rect class="legendtoggle" pointer-events="all" style="cursor: pointer; fill: rgb(0, 0, 0); fill-opacity: 0;" x="0" y="-9.5" width="144" height="19"/><g class="layers" style="opacity: 1;"><g class="legendfill"/><g class="legendlines"><path class="js-line" d="M5,0h30" style="fill: none; stroke: rgb(31, 119, 180); stroke-opacity: 1; stroke-width: 2px;"/></g><g class="legendsymbols"><g class="legendpoints"/></g></g></g><g class="traces" transform="translate(0, 33.5)" style="opacity: 1;"><text class="legendtext user-select-none" text-anchor="start" x="40" y="4.680000000000001" style="font-family: 'Open Sans', verdana, arial, sans-serif; font-size: 12px; fill: rgb(68, 68, 68); fill-opacity: 1; white-space: pre;">15 Weeks</text><rect class="legendtoggle" pointer-events="all" style="cursor: pointer; fill: rgb(0, 0, 0); fill-opacity: 0;" x="0" y="-9.5" width="144" height="19"/><g class="layers" style="opacity: 1;"><g class="legendfill"/><g class="legendlines"><path class="js-line" d="M5,0h30" style="fill: none; stroke: rgb(255, 127, 14); stroke-opacity: 1; stroke-width: 2px;"/></g><g class="legendsymbols"><g class="legendpoints"/></g></g></g><g class="traces" transform="translate(0, 52.5)" style="opacity: 1;"><text class="legendtext user-select-none" text-anchor="start" x="40" y="4.680000000000001" style="font-family: 'Open Sans', verdana, arial, sans-serif; font-size: 12px; fill: rgb(68, 68, 68); fill-opacity: 1; white-space: pre;">27 Weeks</text><rect class="legendtoggle" pointer-events="all" x="0" y="-9.5" width="144" height="19" style="cursor: pointer; fill: rgb(0, 0, 0); fill-opacity: 0;"/><g class="layers" style="opacity: 1;"><g class="legendfill"/><g class="legendlines"><path class="js-line" d="M5,0h30" style="fill: none; stroke: rgb(44, 160, 44); stroke-opacity: 1; stroke-width: 2px;"/></g><g class="legendsymbols"><g class="legendpoints"/></g></g></g></g></g><rect class="scrollbar" rx="20" ry="3" width="0" height="0" style="fill: rgb(128, 139, 164); fill-opacity: 1;" x="0" y="0"/></g><g class="g-gtitle"><text class="gtitle" x="350" y="50" text-anchor="middle" dy="0em" style="font-family: 'Open Sans', verdana, arial, sans-serif; font-size: 17px; fill: rgb(68, 68, 68); opacity: 1; font-weight: normal; white-space: pre;"><tspan class="line" dy="0em" x="350" y="50"><tspan style="font-weight:bold">After June 2018, Workouts Per Week Declines Slightly</tspan></tspan><tspan class="line" dy="1.3em" x="350" y="50"><tspan style="font-style:italic">Workouts per Week, Centered Rolling Averages</tspan></tspan><tspan class="line" dy="2.6em" x="350" y="50"><tspan style="font-style:italic"></tspan></tspan></text></g><g class="g-xtitle"><text class="xtitle" x="327" y="472" text-anchor="middle" style="font-family: 'Open Sans', verdana, arial, sans-serif; font-size: 14px; fill: rgb(68, 68, 68); opacity: 1; font-weight: normal; white-space: pre;">Week of Year</text></g><g class="g-ytitle"><text class="ytitle" transform="rotate(-90,42,260)" x="42" y="260" text-anchor="middle" style="font-family: 'Open Sans', verdana, arial, sans-serif; font-size: 14px; fill: rgb(68, 68, 68); opacity: 1; font-weight: normal; white-space: pre;">Number of Workouts per Week</text></g></g></svg>