<svg class="main-svg" xmlns="http://www.w3.org/2000/svg" xmlns:xlink="http://www.w3.org/1999/xlink" width="1000" height="500" viewBox="0 0 1000 500"><rect x="0" y="0" width="1000" height="500" style="fill: rgb(229, 229, 229); fill-opacity: 1;"/><defs id="defs-ffcf9b"><g class="clips"><clipPath id="clipffcf9bxyplot" class="plotclip"><rect width="840" height="320"/></clipPath><clipPath class="axesclip" id="clipffcf9bx"><rect x="80" y="0" width="840" height="500"/></clipPath><clipPath class="axesclip" id="clipffcf9by"><rect x="0" y="100" width="1000" height="320"/></clipPath><clipPath class="axesclip" id="clipffcf9bxy"><rect x="80" y="100" width="840" height="320"/></clipPath></g><g class="gradients"/></defs><g class="bglayer"/><g class="layer-below"><g class="imagelayer"/><g class="shapelayer"/></g><g class="cartesianlayer"><g class="subplot xy"><g class="layer-subplot"><g class="shapelayer"/><g class="imagelayer"/></g><g class="gridlayer"><g class="x"/><g class="y"><path class="ygrid crisp" transform="translate(0,340.51)" d="M80,0h840" style="stroke: rgb(214, 214, 214); stroke-opacity: 1; stroke-width: 1px;"/><path class="ygrid crisp" transform="translate(0,276.83000000000004)" d="M80,0h840" style="stroke: rgb(214, 214, 214); stroke-opacity: 1; stroke-width: 1px;"/><path class="ygrid crisp" transform="translate(0,213.16)" d="M80,0h840" style="stroke: rgb(214, 214, 214); stroke-opacity: 1; stroke-width: 1px;"/><path class="ygrid crisp" transform="translate(0,149.49)" d="M80,0h840" style="stroke: rgb(214, 214, 214); stroke-opacity: 1; stroke-width: 1px;"/></g></g><g class="zerolinelayer"><path class="yzl zl crisp" transform="translate(0,404.18)" d="M80,0h840" style="stroke: rgb(68, 68, 68); stroke-opacity: 1; stroke-width: 1px;"/></g><path class="xlines-below"/><path class="ylines-below"/><g class="overlines-below"/><g class="xaxislayer-below"/><g class="yaxislayer-below"/><g class="overaxes-below"/><g class="plot" transform="translate(80, 100)" clip-path="url(#clipffcf9bxyplot)"><g class="scatterlayer mlayer"><g class="trace scatter trace851ebba9-cb37-4b47-bd42-f3abd2c34c21" style="stroke-miterlimit: 2; opacity: 0.5;"><g class="fills"/><g class="errorbars"/><g class="lines"><path class="js-line" d="M0,200.85L7.91,216.07L11.63,244.8L14.88,244.39L21.4,201.03L24.65,195.3L28.37,304L31.63,279.13L33.49,77L42.33,77L61.4,153.28L91.18,257.55L93.97,169.41L96.3,250.74L99.09,134.56L100.48,241.13L125.14,180.66L133.49,211.41L136.74,200.99L176.28,271.07L176.74,169.83L191.63,166.52L192.56,206.44L193.95,246.3L231.16,206.12L262.34,237.2L267,23L271.18,18.52L275.83,185.75L284.67,168.08L288.86,153.76L301.4,267.06L308.37,235.16L314.42,129.85L315.81,139.4L319.07,208.8L330.7,83.68L337.21,74.83L339.53,36.76L341.4,87.57L346.98,41.47L347.44,152.24L350.23,87.19L353.49,29.94L355.81,22.37L357.67,159.33L363.26,141.69L366.51,168.88L368.84,65.35L372.56,148.69L376.74,55.73L407.91,283.43L413.04,303.82L423.28,256.41L424.67,301.86L425.6,260.52L427,248.76L427.93,301.86L429.79,259.18L434.9,300.35L435.83,242.09L437.23,256.26L438.16,299.71L451.65,278.96L454.9,205.68L460.02,223.39L467,205.67L471.63,209.29L474.88,197.83L482.33,272.79L491.63,224.96L492.56,54.64L496.28,221.97L498.14,35.04L500.47,215.67L501.4,145.13L507.44,211.08L515.35,207.52L520.47,212.92L531.63,206.94L554.42,129.59L557.67,129.59L558.6,269.02L562.33,268.78L562.79,109.22L566.05,152.69L569.3,108.58L572.09,187.72L572.56,133.33L575.35,125.95L582.34,146.07L585.6,146.08L595.37,91.06L600.48,107.42L600.95,101.5L604.21,163.01L607.93,189.05L611.18,273.23L616.76,281.51L619.55,165.12L620.02,268.94L622.81,266.28L629.32,141.47L632.58,275.58L635.83,294.6L639.07,292.13L642.33,277.23L645.58,274.05L649.3,303.52L652.09,121.41L655.35,269.07L659.07,246.38L662.33,280.28L665.12,280.95L668.37,249.68L671.63,228.98L675.35,241.68L678.14,242.07L681.86,288.52L684.65,218.16L688.37,257.88L691.63,164.25L694.42,228.6L698.14,225.65L705.58,303.78L708.37,280.58L715.81,239.08L719.53,247.45L721.4,292.82L726.98,281.97L734.88,274.16L738.6,282.43L744.65,303.77L750.25,291.55L754.9,278.94L761.41,293.56L763.74,275.78L767.93,276.02L785.6,85.49L792.11,202.56L794.44,52.11L798.62,16.23L808.37,101.57L813.95,72.41L817.21,39.3L824.65,130.21L830.23,16.37L834.42,135.18L840,16" style="vector-effect: non-scaling-stroke; fill: none; stroke: rgb(91, 73, 115); stroke-opacity: 1; stroke-width: 2px; opacity: 1;"/></g><g class="points"/><g class="text"/></g><g class="trace scatter tracec266c432-24dd-4e75-99e5-4cbcfa7ecbed" style="stroke-miterlimit: 2; opacity: 1;"><g class="fills"/><g class="errorbars"/><g class="lines"><path class="js-line" d="M31.63,200.34Q32.44,202.65 33.49,203.03C35.24,203.67 38.79,201.34 42.33,200.66C47.45,199.68 54.33,199.2 61.4,198.44C70.22,197.5 86.68,193.27 91.18,195.54C93.1,196.51 92.96,200 93.97,200.21C94.7,200.36 95.62,199.48 96.3,198.52C97.54,196.77 98.33,191.92 99.09,189.35C99.64,187.48 99.09,185.15 100.48,184.51C103.71,183.03 119.34,191.7 125.14,195.79C129,198.51 131.46,201.72 133.49,204.4C134.98,206.37 134.52,209.23 136.74,210C142.44,211.98 171.75,200.7 176.28,194.36C178.48,191.27 174.87,186.68 176.74,184.3C179.06,181.35 189.66,179.03 191.63,179.97C192.41,180.34 192.26,182.22 192.56,182.2C193.04,182.16 192.21,177.55 193.95,176.38C198.32,173.45 219.27,180.92 231.16,182.14C241.98,183.25 256.75,185.9 262.34,183.72C264.92,182.72 265.63,180.94 267,178.98C268.66,176.61 269.38,170.77 271.18,170.2C272.51,169.78 274.05,172.84 275.83,172.8C278.32,172.74 282.49,169.72 284.67,167.27C286.78,164.91 286.79,161.6 288.86,158.5C291.74,154.19 297.84,148.53 301.4,144.53C304.07,141.53 306.32,139.77 308.37,136.63C310.76,132.97 313.2,123.41 314.42,123.58C315.37,123.71 314.85,129.86 315.81,132.19C316.58,134.06 317.45,136.47 319.07,136.77C321.62,137.24 327.59,132.07 330.7,129.05C333.49,126.34 335.73,123.01 337.21,119.84C338.54,117 338.8,113.86 339.53,111.08C340.19,108.57 340.23,106.08 341.4,103.9C342.64,101.58 346.14,97.42 346.98,97.66C347.45,97.8 347.09,100.21 347.44,100.27C347.95,100.36 349.61,96.93 350.23,95.33C350.76,93.96 350.52,92.33 351.16,91.32C351.7,90.46 352.85,89.21 353.49,89.46C354.89,90 355.14,98.44 355.81,103.37C356.56,108.93 356.22,115.93 357.67,121.17C358.92,125.67 361.8,128.88 363.26,133.13C364.8,137.61 365.51,143.12 366.51,147.46C367.34,151.09 367.89,154.01 368.84,157.44C369.87,161.17 371.26,165.12 372.56,168.99C373.89,172.94 373.58,177.09 376.74,180.92C382.08,187.39 402.21,191.99 407.91,199.05C411.78,203.84 410.6,210.44 413.04,214.83C415.14,218.61 419.23,221.21 420.95,224.23C422.26,226.53 422.65,228.76 423.28,230.93C423.86,232.92 424.31,234.32 424.67,236.75C425.25,240.68 425.11,247.94 425.6,252.38C425.97,255.71 426.62,258.06 427,261.06C427.41,264.27 427.24,270.94 427.93,271.06C428.38,271.14 428.91,268.5 429.79,267.06C431,265.08 433.94,262.5 434.9,260.51C435.56,259.14 435.45,257.95 435.83,256.67C436.22,255.36 436.78,253.83 437.23,252.76C437.55,251.99 437.43,251.37 438.16,250.82C440,249.43 448.86,251.04 451.65,248.45C454.4,245.89 453.12,238.72 454.9,235.51C456.22,233.12 458.37,232.58 460.02,230.18C462.48,226.59 464.68,218.93 467,215.24C468.55,212.79 470.31,211.62 471.63,209.6C472.94,207.59 473.18,204.7 474.88,203.13C476.67,201.48 479.78,201.46 482.33,200.12C485.34,198.54 490.13,196.18 491.63,193.97C492.58,192.57 491.7,190.25 492.56,189.57C493.34,188.95 495.37,190.32 496.28,189.66C497.48,188.79 497.41,185.35 498.14,183.4C498.82,181.6 499.92,178.27 500.47,178.33C500.94,178.38 500.6,181.06 501.4,182.31C502.5,184.03 505.44,187.32 507.44,187.04C510.09,186.67 512.87,178.95 515.35,176.14C517.14,174.11 518.25,171.82 520.47,171.32C523.34,170.67 527.19,174.45 531.63,174.92C537.83,175.58 550.45,170.43 554.42,172.63C556.66,173.87 556.98,179.3 557.67,179.19C558.3,179.09 557.58,174.06 558.6,173.2C559.4,172.52 561.62,173.9 562.33,173.27C563.1,172.59 562.37,170.55 562.79,168.93C563.37,166.68 564.94,163.68 566.05,161.17C567.11,158.76 568.29,156.5 569.3,154.14C570.3,151.81 571.58,147.07 572.09,147.11C572.37,147.13 572.21,148.52 572.56,149.33C573.07,150.51 573.96,152.54 575.35,153.3C577.02,154.21 580.46,153.3 582.34,153.58C583.64,153.77 584.24,153.99 585.6,154.43C588,155.2 592.86,156.14 595.37,158.15C597.74,160.05 599.53,162.97 600.48,165.9C601.49,169.02 599.88,175.99 600.95,176.42C601.65,176.7 603.23,173.11 604.21,173.33C605.69,173.66 606.8,179.5 607.93,182.82C609.14,186.38 609.68,190.53 611.18,194.06C612.64,197.52 615.34,200.57 616.76,203.8C618.05,206.72 618.99,209.34 619.55,212.54C620.2,216.23 619.51,220.63 620.02,224.74C620.56,229.04 620.62,235.64 622.81,237.81C624.35,239.34 627.71,237.86 629.32,239.14C631.06,240.52 631.35,244.28 632.58,246.21C633.57,247.76 634.61,249.35 635.83,250.03C636.82,250.58 637.99,250.43 639.07,250.5C640.15,250.57 641.38,249.92 642.33,250.47C643.68,251.24 644.28,255.82 645.58,256.1C646.67,256.34 648.13,254.2 649.3,253.44C650.28,252.8 651.25,251.54 652.09,251.8C653.37,252.19 653.89,257.34 655.35,258.51C656.4,259.34 658,259.81 659.07,259.37C660.42,258.82 661.18,255.57 662.33,254.27C663.22,253.27 664.27,253.11 665.12,251.99C666.4,250.3 667.06,246.31 668.37,244.46C669.33,243.09 670.57,242.64 671.63,241.43C672.9,239.98 674.35,236.04 675.35,236.24C676.75,236.52 676.36,246.65 678.14,248.39C679.12,249.35 680.71,249.14 681.86,249.16C682.86,249.18 683.69,249.03 684.65,248.68C685.84,248.24 687.13,246.67 688.37,246.49C689.46,246.33 690.63,246.8 691.63,247.28C692.65,247.77 693.43,248.65 694.42,249.43C695.58,250.34 696.6,251.57 698.14,252.44C700.12,253.56 703.83,253.79 705.58,255.16C706.97,256.24 706.95,258.49 708.37,259.27C710.11,260.22 713.89,258.59 715.81,259.47C717.46,260.22 718.52,262.34 719.53,263.53C720.28,264.41 720.62,264.89 721.4,265.91C722.77,267.69 724.66,271.57 726.98,273.34C729.2,275.04 732.96,277.32 734.88,276.5C736.97,275.6 736.91,269.89 738.6,267.16C740.21,264.57 742.9,263.32 744.65,260.41C746.99,256.52 748.53,250.25 750.25,245.18C751.94,240.22 752.84,234.62 754.9,230.32C756.69,226.59 759.94,224.36 761.41,220.6C763.07,216.36 762.7,210.89 763.74,205.9C764.84,200.61 764.64,193.94 767.93,189.73C771.54,185.11 781.56,184.8 785.6,180.13C789.51,175.6 790.6,167.68 792.11,162.39C793.29,158.27 793.53,155.35 794.44,151.15Q795.61,145.77 798.62,132.78" style="vector-effect: non-scaling-stroke; fill: none; stroke: rgb(0, 0, 0); stroke-opacity: 1; stroke-width: 2px; opacity: 1;"/></g><g class="points"/><g class="text"/></g></g></g><g class="overplot"/><path class="xlines-above crisp" d="M0,0" style="fill: none;"/><path class="ylines-above crisp" d="M0,0" style="fill: none;"/><g class="overlines-above"/><g class="xaxislayer-above"><g class="xtick"><text text-anchor="middle" x="0" y="433" transform="translate(91.09,0)" style="font-family: 'Open Sans', verdana, arial, sans-serif; font-size: 12px; fill: rgb(68, 68, 68); fill-opacity: 1; white-space: pre;">Jul 2014</text></g><g class="xtick"><text text-anchor="middle" x="0" y="433" transform="translate(176.67000000000002,0)" style="font-family: 'Open Sans', verdana, arial, sans-serif; font-size: 12px; fill: rgb(68, 68, 68); fill-opacity: 1; white-space: pre;">Jan 2015</text></g><g class="xtick"><text text-anchor="middle" x="0" y="433" transform="translate(260.85,0)" style="font-family: 'Open Sans', verdana, arial, sans-serif; font-size: 12px; fill: rgb(68, 68, 68); fill-opacity: 1; white-space: pre;">Jul 2015</text></g><g class="xtick"><text text-anchor="middle" x="0" y="433" transform="translate(346.43,0)" style="font-family: 'Open Sans', verdana, arial, sans-serif; font-size: 12px; fill: rgb(68, 68, 68); fill-opacity: 1; white-space: pre;">Jan 2016</text></g><g class="xtick"><text text-anchor="middle" x="0" y="433" transform="translate(431.09,0)" style="font-family: 'Open Sans', verdana, arial, sans-serif; font-size: 12px; fill: rgb(68, 68, 68); fill-opacity: 1; white-space: pre;">Jul 2016</text></g><g class="xtick"><text text-anchor="middle" x="0" y="433" transform="translate(516.6700000000001,0)" style="font-family: 'Open Sans', verdana, arial, sans-serif; font-size: 12px; fill: rgb(68, 68, 68); fill-opacity: 1; white-space: pre;">Jan 2017</text></g><g class="xtick"><text text-anchor="middle" x="0" y="433" transform="translate(600.85,0)" style="font-family: 'Open Sans', verdana, arial, sans-serif; font-size: 12px; fill: rgb(68, 68, 68); fill-opacity: 1; white-space: pre;">Jul 2017</text></g><g class="xtick"><text text-anchor="middle" x="0" y="433" transform="translate(686.43,0)" style="font-family: 'Open Sans', verdana, arial, sans-serif; font-size: 12px; fill: rgb(68, 68, 68); fill-opacity: 1; white-space: pre;">Jan 2018</text></g><g class="xtick"><text text-anchor="middle" x="0" y="433" transform="translate(770.62,0)" style="font-family: 'Open Sans', verdana, arial, sans-serif; font-size: 12px; fill: rgb(68, 68, 68); fill-opacity: 1; white-space: pre;">Jul 2018</text></g><g class="xtick"><text text-anchor="middle" x="0" y="433" transform="translate(856.2,0)" style="font-family: 'Open Sans', verdana, arial, sans-serif; font-size: 12px; fill: rgb(68, 68, 68); fill-opacity: 1; white-space: pre;">Jan 2019</text></g></g><g class="yaxislayer-above"><g class="ytick"><text text-anchor="end" x="79" y="4.199999999999999" transform="translate(0,404.18)" style="font-family: 'Open Sans', verdana, arial, sans-serif; font-size: 12px; fill: rgb(68, 68, 68); fill-opacity: 1; white-space: pre;">0</text></g><g class="ytick"><text text-anchor="end" x="79" y="4.199999999999999" transform="translate(0,340.51)" style="font-family: 'Open Sans', verdana, arial, sans-serif; font-size: 12px; fill: rgb(68, 68, 68); fill-opacity: 1; white-space: pre;">5k</text></g><g class="ytick"><text text-anchor="end" x="79" y="4.199999999999999" transform="translate(0,276.83000000000004)" style="font-family: 'Open Sans', verdana, arial, sans-serif; font-size: 12px; fill: rgb(68, 68, 68); fill-opacity: 1; white-space: pre;">10k</text></g><g class="ytick"><text text-anchor="end" x="79" y="4.199999999999999" transform="translate(0,213.16)" style="font-family: 'Open Sans', verdana, arial, sans-serif; font-size: 12px; fill: rgb(68, 68, 68); fill-opacity: 1; white-space: pre;">15k</text></g><g class="ytick"><text text-anchor="end" x="79" y="4.199999999999999" transform="translate(0,149.49)" style="font-family: 'Open Sans', verdana, arial, sans-serif; font-size: 12px; fill: rgb(68, 68, 68); fill-opacity: 1; white-space: pre;">20k</text></g></g><g class="overaxes-above"/></g></g><g class="polarlayer"/><g class="ternarylayer"/><g class="geolayer"/><g class="pielayer"/><g class="glimages"/><defs id="topdefs-ffcf9b"><g class="clips"/></defs><g class="layer-above"><g class="imagelayer"/><g class="shapelayer"/></g><g class="infolayer"><g class="g-gtitle"><text class="gtitle" x="500" y="50" text-anchor="middle" dy="0em" style="font-family: 'Open Sans', verdana, arial, sans-serif; font-size: 17px; fill: rgb(68, 68, 68); opacity: 1; font-weight: normal; white-space: pre;"><tspan class="line" dy="0em" x="500" y="50"><tspan style="font-weight:bold">Back Volume</tspan></tspan><tspan class="line" dy="1.3em" x="500" y="50"><tspan style="font-style:italic">15-Workout Average in Black<tspan style="font-style:italic"></tspan></tspan></tspan></text></g><g class="g-xtitle"/><g class="g-ytitle"><text class="ytitle" transform="rotate(-90,42,260)" x="42" y="260" text-anchor="middle" style="font-family: 'Open Sans', verdana, arial, sans-serif; font-size: 14px; fill: rgb(68, 68, 68); opacity: 1; font-weight: normal; white-space: pre;">Volume (lbs)</text></g></g></svg>