<svg class="main-svg" xmlns="http://www.w3.org/2000/svg" xmlns:xlink="http://www.w3.org/1999/xlink" width="1000" height="500" viewBox="0 0 1000 500"><rect x="0" y="0" width="1000" height="500" style="fill: rgb(245, 246, 249); fill-opacity: 1;"/><defs id="defs-5bdead"><g class="clips"><clipPath id="clip5bdeadxyplot" class="plotclip"><rect width="840" height="320"/></clipPath><clipPath class="axesclip" id="clip5bdeadx"><rect x="80" y="0" width="840" height="500"/></clipPath><clipPath class="axesclip" id="clip5bdeady"><rect x="0" y="100" width="1000" height="320"/></clipPath><clipPath class="axesclip" id="clip5bdeadxy"><rect x="80" y="100" width="840" height="320"/></clipPath></g><g class="gradients"/></defs><g class="bglayer"/><g class="layer-below"><g class="imagelayer"/><g class="shapelayer"/></g><g class="cartesianlayer"><g class="subplot xy"><g class="layer-subplot"><g class="shapelayer"/><g class="imagelayer"/></g><g class="gridlayer"><g class="x"/><g class="y"><path class="ygrid crisp" transform="translate(0,351.94)" d="M80,0h840" style="stroke: rgb(225, 229, 237); stroke-opacity: 1; stroke-width: 1px;"/><path class="ygrid crisp" transform="translate(0,286.87)" d="M80,0h840" style="stroke: rgb(225, 229, 237); stroke-opacity: 1; stroke-width: 1px;"/><path class="ygrid crisp" transform="translate(0,221.8)" d="M80,0h840" style="stroke: rgb(225, 229, 237); stroke-opacity: 1; stroke-width: 1px;"/><path class="ygrid crisp" transform="translate(0,156.73)" d="M80,0h840" style="stroke: rgb(225, 229, 237); stroke-opacity: 1; stroke-width: 1px;"/></g></g><g class="zerolinelayer"><path class="yzl zl crisp" transform="translate(0,417.01)" d="M80,0h840" style="stroke: rgb(225, 229, 237); stroke-opacity: 1; stroke-width: 1px;"/></g><path class="xlines-below"/><path class="ylines-below"/><g class="overlines-below"/><g class="xaxislayer-below"/><g class="yaxislayer-below"/><g class="overaxes-below"/><g class="plot" transform="translate(80, 100)" clip-path="url(#clip5bdeadxyplot)"><g class="scatterlayer mlayer"><g class="trace scatter trace891de30f-aa80-43be-94e7-8a533f6741c2" style="stroke-miterlimit: 2; opacity: 1;"><g class="fills"/><g class="errorbars"/><g class="lines"><path class="js-line" d="M0,295.54L4.2,291.05L10.75,292.16L13.55,284.28L16.35,300.1L17.75,291.64L22.89,248.87L28.5,261.57L32.7,134.43L40.65,134.43L61.67,248.04L81.76,236L90.17,238.21L95.77,199.71L98.58,272.12L101.85,304L117.73,267.11L132.68,255.98L136.42,289.36L176.13,235.03L193.41,263.46L238.73,279.92L262.56,160L264.43,119.53L266.3,160.2L268.63,66.79L271.43,144.12L283.11,139.37L301.8,240.88L306.01,235.74L314.88,189.28L319.56,210.88L331.23,124.21L334.51,132.35L339.64,136.18L342.91,272.12L346.18,73.85L349.45,16L352.73,165.08L353.66,190.78L356,217L359.27,34.14L369.08,221.04L371.88,22.05L376.55,62.79L378.89,205.35L381.69,163.64L385.43,156.81L405.05,219.01L448.5,254.68L458.78,249.08L483.07,198.33L486.34,180.04L490.08,243.75L508.3,151.2L516.24,162.98L521.38,194.16L525.58,170.87L530.26,167.09L534.46,100.72L538.67,162.6L541,165.79L544.74,43.85L581.18,271.4L593.33,247L609.68,164.28L612.01,106.17L617.15,104.42L620.42,203.6L623.23,168L626.96,219.4L632.1,173.14L635.37,224.21L638.64,223.25L642.85,92.2L645.18,223.44L648.45,225.4L652.19,231.19L654.99,198.12L658.73,107.16L662,217.12L665.27,202.17L672.75,238.79L675.08,228.79L678.82,257.28L682.56,255.24L685.36,211.87L688.16,303.22L689.1,232.8L691.43,243.46L694.71,195.03L698.44,255.57L701.71,196.97L704.52,190.62L708.72,256.97L711.99,195.2L717.6,255.48L721.33,250.32L723.67,197.02L727.41,187.58L730.68,270.42L736.28,203.92L740.49,198.77L746.56,160.59L751.23,238.02L755.91,144.06L762.45,229.38L765.72,173.82L768.99,189.02L776.46,192.07L779.73,146.66L782.54,152.36L787.68,148.86L793.75,141.44L798.42,179.18L804.03,179.17L809.17,212.37L815.71,179.05L821.31,175.93L826.92,203.4L831.12,186.35L836.73,181.46L840,208.13" style="vector-effect: non-scaling-stroke; fill: none; stroke: rgb(255, 153, 51); stroke-opacity: 1; stroke-width: 1.3px; opacity: 1;"/></g><g class="points"/><g class="text"/></g><g class="trace scatter trace3ab77cb1-4786-4e23-b670-b4a5f1d58c86" style="stroke-miterlimit: 2; opacity: 1;"><g class="fills"/><g class="errorbars"/><g class="lines"><path class="js-line" d="M28.5,248.54L32.7,249.11L40.65,247.51L61.67,245.1L81.76,245.44L90.17,241.1L95.77,239.22L98.58,241.29L101.85,234.52L117.73,233.53L132.68,235.24L136.42,223.16L176.13,217.03L193.41,210.45L238.73,213.19L262.56,210.77L264.43,203.12L266.3,199.37L268.63,190.59L271.43,180.12L283.11,173.53L301.8,174.11L306.01,160.37L314.88,150.77L319.56,153.8L331.23,155.84L334.51,165.86L339.64,158.52L342.91,163.97L349.45,137.85L352.73,138.92L353.66,135.77L356,137.94L359.27,143.72L369.08,151.62L371.88,150.09L376.55,159.36L378.89,171.51L381.69,172.51L385.43,176.04L405.05,171.65L448.5,180.24L458.78,178.45L475.6,188.37L483.07,195.33L486.34,188.35L490.08,188.28L508.3,188.88L516.24,177.2L521.38,178.32L525.58,178.18L530.26,174.94L534.46,168.79L541,161.08L544.74,162.2L581.18,165.96L593.33,164.56L609.68,168.11L612.01,171.86L617.15,171.29L620.42,175.34L623.23,179.32L626.96,191.81L632.1,186.92L635.37,177.6L638.64,181.12L642.85,187.52L645.18,196.48L648.45,198.16L652.19,204.11L654.99,206.5L658.73,209.08L662,214.35L665.27,214.99L672.75,225.07L675.08,223.18L678.82,225.19L682.56,222.91L685.36,222.41L688.16,232.39L689.1,230.93L691.43,234.49L694.71,235.26L698.44,233.14L701.71,228.49L704.52,229.5L708.72,228.97L711.99,222.01L717.6,217.2L721.33,216.83L723.67,213.43L730.68,210.14L736.28,210.04L740.49,205.71L746.56,202.48L755.91,188.84L762.45,185.13L765.72,184.57L768.99,178.49L776.46,179.05L779.73,177.74L782.54,178.76L787.68,176.45L793.75,179.27L798.42,176.08L804.03,178.36" style="vector-effect: non-scaling-stroke; fill: none; stroke: rgb(55, 128, 191); stroke-opacity: 1; stroke-width: 1.3px; opacity: 1;"/></g><g class="points"/><g class="text"/></g></g></g><g class="overplot"/><path class="xlines-above crisp" d="M0,0" style="fill: none;"/><path class="ylines-above crisp" d="M0,0" style="fill: none;"/><g class="overlines-above"/><g class="xaxislayer-above"><g class="xtick"><text text-anchor="middle" x="0" y="433" transform="translate(90.75,0)" style="font-family: 'Open Sans', verdana, arial, sans-serif; font-size: 12px; fill: rgb(77, 86, 99); fill-opacity: 1; white-space: pre;">Jul 2014</text></g><g class="xtick"><text text-anchor="middle" x="0" y="433" transform="translate(176.70999999999998,0)" style="font-family: 'Open Sans', verdana, arial, sans-serif; font-size: 12px; fill: rgb(77, 86, 99); fill-opacity: 1; white-space: pre;">Jan 2015</text></g><g class="xtick"><text text-anchor="middle" x="0" y="433" transform="translate(261.27,0)" style="font-family: 'Open Sans', verdana, arial, sans-serif; font-size: 12px; fill: rgb(77, 86, 99); fill-opacity: 1; white-space: pre;">Jul 2015</text></g><g class="xtick"><text text-anchor="middle" x="0" y="433" transform="translate(347.23,0)" style="font-family: 'Open Sans', verdana, arial, sans-serif; font-size: 12px; fill: rgb(77, 86, 99); fill-opacity: 1; white-space: pre;">Jan 2016</text></g><g class="xtick"><text text-anchor="middle" x="0" y="433" transform="translate(432.26,0)" style="font-family: 'Open Sans', verdana, arial, sans-serif; font-size: 12px; fill: rgb(77, 86, 99); fill-opacity: 1; white-space: pre;">Jul 2016</text></g><g class="xtick"><text text-anchor="middle" x="0" y="433" transform="translate(518.22,0)" style="font-family: 'Open Sans', verdana, arial, sans-serif; font-size: 12px; fill: rgb(77, 86, 99); fill-opacity: 1; white-space: pre;">Jan 2017</text></g><g class="xtick"><text text-anchor="middle" x="0" y="433" transform="translate(602.78,0)" style="font-family: 'Open Sans', verdana, arial, sans-serif; font-size: 12px; fill: rgb(77, 86, 99); fill-opacity: 1; white-space: pre;">Jul 2017</text></g><g class="xtick"><text text-anchor="middle" x="0" y="433" transform="translate(688.74,0)" style="font-family: 'Open Sans', verdana, arial, sans-serif; font-size: 12px; fill: rgb(77, 86, 99); fill-opacity: 1; white-space: pre;">Jan 2018</text></g><g class="xtick"><text text-anchor="middle" x="0" y="433" transform="translate(773.3,0)" style="font-family: 'Open Sans', verdana, arial, sans-serif; font-size: 12px; fill: rgb(77, 86, 99); fill-opacity: 1; white-space: pre;">Jul 2018</text></g><g class="xtick"><text text-anchor="middle" x="0" y="433" transform="translate(859.27,0)" style="font-family: 'Open Sans', verdana, arial, sans-serif; font-size: 12px; fill: rgb(77, 86, 99); fill-opacity: 1; white-space: pre;">Jan 2019</text></g></g><g class="yaxislayer-above"><g class="ytick"><text text-anchor="end" x="79" y="4.199999999999999" transform="translate(0,417.01)" style="font-family: 'Open Sans', verdana, arial, sans-serif; font-size: 12px; fill: rgb(77, 86, 99); fill-opacity: 1; white-space: pre;">0</text></g><g class="ytick"><text text-anchor="end" x="79" y="4.199999999999999" transform="translate(0,351.94)" style="font-family: 'Open Sans', verdana, arial, sans-serif; font-size: 12px; fill: rgb(77, 86, 99); fill-opacity: 1; white-space: pre;">5k</text></g><g class="ytick"><text text-anchor="end" x="79" y="4.199999999999999" transform="translate(0,286.87)" style="font-family: 'Open Sans', verdana, arial, sans-serif; font-size: 12px; fill: rgb(77, 86, 99); fill-opacity: 1; white-space: pre;">10k</text></g><g class="ytick"><text text-anchor="end" x="79" y="4.199999999999999" transform="translate(0,221.8)" style="font-family: 'Open Sans', verdana, arial, sans-serif; font-size: 12px; fill: rgb(77, 86, 99); fill-opacity: 1; white-space: pre;">15k</text></g><g class="ytick"><text text-anchor="end" x="79" y="4.199999999999999" transform="translate(0,156.73)" style="font-family: 'Open Sans', verdana, arial, sans-serif; font-size: 12px; fill: rgb(77, 86, 99); fill-opacity: 1; white-space: pre;">20k</text></g></g><g class="overaxes-above"/></g></g><g class="polarlayer"/><g class="ternarylayer"/><g class="geolayer"/><g class="pielayer"/><g class="glimages"/><defs id="topdefs-5bdead"><g class="clips"/></defs><g class="layer-above"><g class="imagelayer"/><g class="shapelayer"/></g><g class="infolayer"><g class="g-gtitle"><text class="gtitle" x="500" y="50" text-anchor="middle" dy="0em" style="font-family: 'Open Sans', verdana, arial, sans-serif; font-size: 17px; fill: rgb(77, 86, 99); opacity: 1; font-weight: normal; white-space: pre;"><tspan class="line" dy="0em" x="500" y="50"><tspan style="font-weight:bold">Chest Volume Peaked in the Summer of 2016, But Never Recovered Due to Injury</tspan></tspan><tspan class="line" dy="1.3em" x="500" y="50"><tspan style="font-style:italic">Chest Volume Lifted Over Time, 15-Workout Mean in Blue</tspan></tspan></text></g><g class="g-xtitle"/><g class="g-ytitle"><text class="ytitle" transform="rotate(-90,42,260)" x="42" y="260" text-anchor="middle" style="font-family: 'Open Sans', verdana, arial, sans-serif; font-size: 14px; fill: rgb(77, 86, 99); opacity: 1; font-weight: normal; white-space: pre;">Volume (lbs)</text></g></g></svg>