<svg class="main-svg" xmlns="http://www.w3.org/2000/svg" xmlns:xlink="http://www.w3.org/1999/xlink" width="1000" height="500" viewBox="0 0 1000 500"><rect x="0" y="0" width="1000" height="500" style="fill: rgb(229, 229, 229); fill-opacity: 1;"/><defs id="defs-012deb"><g class="clips"><clipPath id="clip012debxyplot" class="plotclip"><rect width="840" height="320"/></clipPath><clipPath class="axesclip" id="clip012debx"><rect x="80" y="0" width="840" height="500"/></clipPath><clipPath class="axesclip" id="clip012deby"><rect x="0" y="100" width="1000" height="320"/></clipPath><clipPath class="axesclip" id="clip012debxy"><rect x="80" y="100" width="840" height="320"/></clipPath></g><g class="gradients"/></defs><g class="bglayer"/><g class="layer-below"><g class="imagelayer"/><g class="shapelayer"/></g><g class="cartesianlayer"><g class="subplot xy"><g class="layer-subplot"><g class="shapelayer"/><g class="imagelayer"/></g><g class="gridlayer"><g class="x"/><g class="y"><path class="ygrid crisp" transform="translate(0,340)" d="M80,0h840" style="stroke: rgb(214, 214, 214); stroke-opacity: 1; stroke-width: 1px;"/><path class="ygrid crisp" transform="translate(0,276)" d="M80,0h840" style="stroke: rgb(214, 214, 214); stroke-opacity: 1; stroke-width: 1px;"/><path class="ygrid crisp" transform="translate(0,212)" d="M80,0h840" style="stroke: rgb(214, 214, 214); stroke-opacity: 1; stroke-width: 1px;"/><path class="ygrid crisp" transform="translate(0,148)" d="M80,0h840" style="stroke: rgb(214, 214, 214); stroke-opacity: 1; stroke-width: 1px;"/></g></g><g class="zerolinelayer"><path class="yzl zl crisp" transform="translate(0,404)" d="M80,0h840" style="stroke: rgb(68, 68, 68); stroke-opacity: 1; stroke-width: 1px;"/></g><path class="xlines-below"/><path class="ylines-below"/><g class="overlines-below"/><g class="xaxislayer-below"/><g class="yaxislayer-below"/><g class="overaxes-below"/><g class="plot" transform="translate(80, 100)" clip-path="url(#clip012debxyplot)"><g class="scatterlayer mlayer"><g class="trace scatter trace83ad166a-e0cb-4c4a-bbf9-c3c270aebe75" style="stroke-miterlimit: 2; opacity: 0.5;"><g class="fills"/><g class="errorbars"/><g class="lines"><path class="js-line" d="M0,304L5.92,54.4L5.92,16L26.62,233.6L29.58,304L32.54,281.6L32.54,303.36L41.41,304L41.41,150.4L47.32,304L47.32,227.2L47.32,303.62L85.77,227.2L180.42,92.8L180.42,283.52L192.25,304L198.17,304L198.17,303.36L198.17,303.49L207.04,169.6L207.04,211.84L210,121.6L257.32,150.4L257.32,196.48L387.46,83.2L387.46,121.6L390.42,150.4L390.42,169.6L517.73,284.8L517.73,284.8L517.73,201.6L570.97,240L570.97,259.2L594.63,263.68L594.63,131.2L603.5,240L609.42,269.44L609.42,233.6L618.29,240L624.21,227.2L627.17,302.46L627.17,131.2L627.17,304L627.17,181.12L636.04,240L636.04,233.6L636.04,303.87L644.91,240L647.87,304L745.48,246.4L745.48,284.8L792.8,176L792.8,150.4L792.8,196.48L828.17,246.4L828.17,80L840,131.2" style="vector-effect: non-scaling-stroke; fill: none; stroke: rgb(3, 127, 140); stroke-opacity: 1; stroke-width: 2px; opacity: 1;"/></g><g class="points"/><g class="text"/></g><g class="trace scatter trace9956fd0b-0f84-436d-a57d-ec61af242fca" style="stroke-miterlimit: 2; opacity: 1;"><g class="fills"/><g class="errorbars"/><g class="lines"><path class="js-line" d="M41.41,225.98Q41.41,225.98 41.41,225.98C41.41,225.98 46.31,236.79 47.32,242.62C48.37,248.7 47.32,257.56 47.32,261.78C47.32,263.86 46.19,265.55 47.32,266.44C50.6,269.04 70,259.77 85.77,257.48C110.22,253.92 173.63,259.01 180.42,251.8C182.28,249.83 179.2,246.68 180.42,244.68C182.08,241.94 188.93,239.92 192.25,238.53C194.52,237.58 197.02,238.19 198.17,236.61C199.78,234.4 198.17,227.64 198.17,224.45C198.17,222.38 197.37,220.99 198.17,219.33C199.36,216.85 205.62,215.15 207.04,212.19C208.34,209.48 207.04,202.59 207.04,202.59C207.04,202.59 207.04,204.51 207.04,204.51C207.04,204.51 206.57,198.57 207.04,195.64C207.53,192.62 209.73,188.33 210,186.68C210.1,186.07 209.63,185.78 210,185.4C212.23,183.11 252.99,188.61 257.32,184.16C258.96,182.48 255.48,179.15 257.32,177.37C265.38,169.59 380.87,175.23 387.46,182.06C388.64,183.28 387.05,184.88 387.46,186.24C387.92,187.78 389.93,190.87 390.42,190.72C390.91,190.57 388.93,186.82 390.42,185.34C397.66,178.14 509.27,177.47 517.73,185.98C519.84,188.1 517.73,191.24 517.73,193.88C517.73,196.52 515.82,199.81 517.73,201.81C522.67,206.99 565.52,198.58 570.97,204.29C573.38,206.82 568.96,211.96 570.97,214.74C574.07,219.04 592.17,219.22 594.63,222.63C595.74,224.18 594.63,226.17 594.63,227.75C594.63,229.12 593.86,230.71 594.63,231.59C595.8,232.93 600.85,232.31 603.5,232.77C605.68,233.15 608.55,234.75 609.42,234.04C610.12,233.48 608.79,231.52 609.42,230.2C610.5,227.91 617.29,222.47 618.29,222.94C618.8,223.18 617.84,225.73 618.29,225.93C619.04,226.25 623.44,220.08 624.21,220.42C624.7,220.64 623.96,222.46 624.21,223.75C624.6,225.74 626.98,231.05 627.17,231.01C627.21,231 627.17,230.58 627.17,230.58C627.17,230.58 627.17,232.41 627.17,232.87C627.17,233.07 627.17,233.08 627.17,233.3C627.17,233.99 627.17,236.89 627.17,237.57C627.17,237.78 627.17,237.81 627.17,237.99C627.17,238.3 626.87,238.86 627.17,239.27C627.97,240.36 635.06,242.81 636.04,242.09C636.53,241.73 636.04,240.51 636.04,239.8C636.04,239.17 635.74,238.15 636.04,238.03C636.84,237.71 642.73,245.17 644.91,247.42C646.15,248.7 645.9,249.68 647.87,250.4C657.4,253.87 741.37,246.03 745.48,241.53C746.07,240.88 745.48,239.48 745.48,239.48C745.48,239.48 745.48,240.23 745.48,240.5C745.48,240.67 745.48,240.93 745.48,240.93C745.48,240.93 745.48,239.17 745.48,237.94C745.48,235.97 743.66,232.14 745.48,230.27C750.01,225.62 787.13,234.82 792.8,228.99C795.99,225.72 792.8,218.22 792.8,214.06Q792.8,211.08 792.8,206.38" style="vector-effect: non-scaling-stroke; fill: none; stroke: rgb(0, 0, 0); stroke-opacity: 1; stroke-width: 2px; opacity: 1;"/></g><g class="points"/><g class="text"/></g></g></g><g class="overplot"/><path class="xlines-above crisp" d="M0,0" style="fill: none;"/><path class="ylines-above crisp" d="M0,0" style="fill: none;"/><g class="overlines-above"/><g class="xaxislayer-above"><g class="xtick"><text text-anchor="middle" x="0" y="433" transform="translate(147.54000000000002,0)" style="font-family: 'Open Sans', verdana, arial, sans-serif; font-size: 12px; fill: rgb(68, 68, 68); fill-opacity: 1; white-space: pre;">Jul 2014</text></g><g class="xtick"><text text-anchor="middle" x="0" y="433" transform="translate(239.23,0)" style="font-family: 'Open Sans', verdana, arial, sans-serif; font-size: 12px; fill: rgb(68, 68, 68); fill-opacity: 1; white-space: pre;">Aug 2014</text></g><g class="xtick"><text text-anchor="middle" x="0" y="433" transform="translate(330.91999999999996,0)" style="font-family: 'Open Sans', verdana, arial, sans-serif; font-size: 12px; fill: rgb(68, 68, 68); fill-opacity: 1; white-space: pre;">Sep 2014</text></g><g class="xtick"><text text-anchor="middle" x="0" y="433" transform="translate(419.65,0)" style="font-family: 'Open Sans', verdana, arial, sans-serif; font-size: 12px; fill: rgb(68, 68, 68); fill-opacity: 1; white-space: pre;">Oct 2014</text></g><g class="xtick"><text text-anchor="middle" x="0" y="433" transform="translate(511.34,0)" style="font-family: 'Open Sans', verdana, arial, sans-serif; font-size: 12px; fill: rgb(68, 68, 68); fill-opacity: 1; white-space: pre;">Nov 2014</text></g><g class="xtick"><text text-anchor="middle" x="0" y="433" transform="translate(600.07,0)" style="font-family: 'Open Sans', verdana, arial, sans-serif; font-size: 12px; fill: rgb(68, 68, 68); fill-opacity: 1; white-space: pre;">Dec 2014</text></g><g class="xtick"><text text-anchor="middle" x="0" y="433" transform="translate(691.76,0)" style="font-family: 'Open Sans', verdana, arial, sans-serif; font-size: 12px; fill: rgb(68, 68, 68); fill-opacity: 1; white-space: pre;">Jan 2015</text></g><g class="xtick"><text text-anchor="middle" x="0" y="433" transform="translate(783.45,0)" style="font-family: 'Open Sans', verdana, arial, sans-serif; font-size: 12px; fill: rgb(68, 68, 68); fill-opacity: 1; white-space: pre;">Feb 2015</text></g><g class="xtick"><text text-anchor="middle" x="0" y="433" transform="translate(866.27,0)" style="font-family: 'Open Sans', verdana, arial, sans-serif; font-size: 12px; fill: rgb(68, 68, 68); fill-opacity: 1; white-space: pre;">Mar 2015</text></g></g><g class="yaxislayer-above"><g class="ytick"><text text-anchor="end" x="79" y="4.199999999999999" transform="translate(0,404)" style="font-family: 'Open Sans', verdana, arial, sans-serif; font-size: 12px; fill: rgb(68, 68, 68); fill-opacity: 1; white-space: pre;">0</text></g><g class="ytick"><text text-anchor="end" x="79" y="4.199999999999999" transform="translate(0,340)" style="font-family: 'Open Sans', verdana, arial, sans-serif; font-size: 12px; fill: rgb(68, 68, 68); fill-opacity: 1; white-space: pre;">500</text></g><g class="ytick"><text text-anchor="end" x="79" y="4.199999999999999" transform="translate(0,276)" style="font-family: 'Open Sans', verdana, arial, sans-serif; font-size: 12px; fill: rgb(68, 68, 68); fill-opacity: 1; white-space: pre;">1000</text></g><g class="ytick"><text text-anchor="end" x="79" y="4.199999999999999" transform="translate(0,212)" style="font-family: 'Open Sans', verdana, arial, sans-serif; font-size: 12px; fill: rgb(68, 68, 68); fill-opacity: 1; white-space: pre;">1500</text></g><g class="ytick"><text text-anchor="end" x="79" y="4.199999999999999" transform="translate(0,148)" style="font-family: 'Open Sans', verdana, arial, sans-serif; font-size: 12px; fill: rgb(68, 68, 68); fill-opacity: 1; white-space: pre;">2000</text></g></g><g class="overaxes-above"/></g></g><g class="polarlayer"/><g class="ternarylayer"/><g class="geolayer"/><g class="pielayer"/><g class="glimages"/><defs id="topdefs-012deb"><g class="clips"/></defs><g class="layer-above"><g class="imagelayer"/><g class="shapelayer"/></g><g class="infolayer"><g class="g-gtitle"><text class="gtitle" x="500" y="50" text-anchor="middle" dy="0em" style="font-family: 'Open Sans', verdana, arial, sans-serif; font-size: 17px; fill: rgb(68, 68, 68); opacity: 1; font-weight: normal; white-space: pre;"><tspan class="line" dy="0em" x="500" y="50"><tspan style="font-weight:bold">Abs Volume</tspan></tspan><tspan class="line" dy="1.3em" x="500" y="50"><tspan style="font-style:italic">15-Workout Average in Black<tspan style="font-style:italic"></tspan></tspan></tspan></text></g><g class="g-xtitle"/><g class="g-ytitle"><text class="ytitle" transform="rotate(-90,42,260)" x="42" y="260" text-anchor="middle" style="font-family: 'Open Sans', verdana, arial, sans-serif; font-size: 14px; fill: rgb(68, 68, 68); opacity: 1; font-weight: normal; white-space: pre;">Volume (lbs)</text></g></g></svg>