<svg class="main-svg" xmlns="http://www.w3.org/2000/svg" xmlns:xlink="http://www.w3.org/1999/xlink" width="1000" height="500" viewBox="0 0 1000 500"><rect x="0" y="0" width="1000" height="500" style="fill: rgb(229, 229, 229); fill-opacity: 1;"/><defs id="defs-6c0087"><g class="clips"><clipPath id="clip6c0087xyplot" class="plotclip"><rect width="840" height="320"/></clipPath><clipPath class="axesclip" id="clip6c0087x"><rect x="80" y="0" width="840" height="500"/></clipPath><clipPath class="axesclip" id="clip6c0087y"><rect x="0" y="100" width="1000" height="320"/></clipPath><clipPath class="axesclip" id="clip6c0087xy"><rect x="80" y="100" width="840" height="320"/></clipPath></g><g class="gradients"/></defs><g class="bglayer"/><g class="layer-below"><g class="imagelayer"/><g class="shapelayer"/></g><g class="cartesianlayer"><g class="subplot xy"><g class="layer-subplot"><g class="shapelayer"/><g class="imagelayer"/></g><g class="gridlayer"><g class="x"/><g class="y"><path class="ygrid crisp" transform="translate(0,344)" d="M80,0h840" style="stroke: rgb(214, 214, 214); stroke-opacity: 1; stroke-width: 1px;"/><path class="ygrid crisp" transform="translate(0,284)" d="M80,0h840" style="stroke: rgb(214, 214, 214); stroke-opacity: 1; stroke-width: 1px;"/><path class="ygrid crisp" transform="translate(0,224)" d="M80,0h840" style="stroke: rgb(214, 214, 214); stroke-opacity: 1; stroke-width: 1px;"/><path class="ygrid crisp" transform="translate(0,164)" d="M80,0h840" style="stroke: rgb(214, 214, 214); stroke-opacity: 1; stroke-width: 1px;"/><path class="ygrid crisp" transform="translate(0,104)" d="M80,0h840" style="stroke: rgb(214, 214, 214); stroke-opacity: 1; stroke-width: 1px;"/></g></g><g class="zerolinelayer"><path class="yzl zl crisp" transform="translate(0,404)" d="M80,0h840" style="stroke: rgb(68, 68, 68); stroke-opacity: 1; stroke-width: 1px;"/></g><path class="xlines-below"/><path class="ylines-below"/><g class="overlines-below"/><g class="xaxislayer-below"/><g class="yaxislayer-below"/><g class="overaxes-below"/><g class="plot" transform="translate(80, 100)" clip-path="url(#clip6c0087xyplot)"><g class="scatterlayer mlayer"><g class="trace scatter trace07d10038-d147-41cd-a268-6c80d343f968" style="stroke-miterlimit: 2; opacity: 0.5;"><g class="fills"/><g class="errorbars"/><g class="lines"><path class="js-line" d="M0,124L0,303.4L2.99,238L8.97,52L29.89,270.4L35.87,304L35.87,232L35.87,303.52L35.87,16L35.87,220L44.84,142L44.84,303.52L50.82,283L50.82,124L68.75,304L71.74,304L71.74,304L71.74,232L71.74,262L74.73,304L74.73,118L83.7,303.88L89.68,232L89.68,262L89.68,287.2L95.66,304L95.66,188.8L95.66,303.52L98.65,303.88L107.62,244L113.59,303.88L134.52,304L134.52,160L134.52,303.4L137.51,304L137.51,124L143.49,304L149.47,250L149.47,304L152.46,304L158.43,142L197.3,303.88L203.27,303.04L203.27,226L203.27,226L206.26,262L206.26,304L212.24,160L212.24,217.6L215.23,133L215.23,181.6L215.23,181.6L263.06,160L263.06,236.8L263.06,217.6L272.03,133L272.03,181.6L272.03,181.6L394.59,97L394.59,191.8L397.58,178L526.25,244L526.25,268L526.25,199L580.05,304L580.05,244L580.05,262L583.04,184L586.03,303.64L586.03,286L586.03,174.4L592.01,303.88L603.97,238L603.97,303.64L603.97,142L606.96,256L606.96,244L612.94,250L615.93,174.4L615.93,150.4L615.93,303.76L615.93,185.2L618.91,304L618.91,124L618.91,238L627.88,238L633.86,238L633.86,238L636.85,304L636.85,136L636.85,181.6L645.82,304L645.82,148L654.79,244L756.42,274L756.42,268L756.42,293.2L804.25,304L804.25,160L804.25,188.8L840,304L840,94" style="vector-effect: non-scaling-stroke; fill: none; stroke: rgb(91, 73, 115); stroke-opacity: 1; stroke-width: 2px; opacity: 1;"/></g><g class="points"/><g class="text"/></g><g class="trace scatter tracec23da04e-bd46-477d-ba8d-3f5b93b3a74a" style="stroke-miterlimit: 2; opacity: 1;"><g class="fills"/><g class="errorbars"/><g class="lines"><path class="js-line" d="M35.87,211.46Q35.87,220.66 35.87,220.66C35.87,220.66 35.87,219.31 35.87,218.3C35.87,216.49 35.14,210.88 35.87,210.7C37.03,210.41 44.08,224.45 44.84,227.5C45.1,228.55 44.84,229.74 44.84,229.74C44.84,229.74 44.84,229.74 44.84,229.74C44.84,229.74 50.01,230.55 50.82,229.74C51.37,229.19 50.82,226.97 50.82,226.97C50.82,226.97 50.82,241.68 50.82,246.17C50.82,248.59 49.69,250.99 50.82,251.77C52.92,253.22 65.42,243.28 68.75,244.97C71.29,246.26 71.35,252.86 71.74,255.76C72,257.66 71.74,260.56 71.74,260.56C71.74,260.56 71.74,257.79 71.74,257.79C71.74,257.79 71.69,257.95 71.74,258.07C71.95,258.55 74.2,261.1 74.73,260.87C75.33,260.61 74.73,255.59 74.73,255.59C74.73,255.59 73.46,261.53 74.73,262.79C76.14,264.2 81.01,262.77 83.7,262.76C85.89,262.75 88.78,263.65 89.68,262.75C90.41,262.02 89.68,258.75 89.68,258.75C89.68,258.75 88.9,262.31 89.68,263.54C90.6,264.98 95.66,266.34 95.66,266.34C95.66,266.34 95.66,266.34 95.66,266.34C95.66,266.34 95.66,266.34 95.66,266.34C95.66,266.34 95.48,269.11 95.66,269.14C96,269.19 96.67,260.36 98.65,259.54C100.64,258.72 104.92,262.95 107.62,264.3C109.8,265.39 111.07,267.1 113.59,267.1C117.97,267.09 128.91,262.75 131.53,258.62C133.56,255.41 130.87,246.74 131.53,246.62C132.08,246.52 134.24,252.83 134.52,254.3C134.63,254.86 134.52,255.38 134.52,255.5C134.52,255.52 134.52,255.54 134.52,255.54C134.52,255.54 134.52,255.54 134.52,255.54C134.52,255.54 136.92,259.74 137.51,259.54C138.38,259.25 137.51,248.96 137.51,248.75C137.51,248.74 137.51,248.74 137.51,248.74C137.59,248.66 141.62,249.4 143.49,248.69C145.64,247.87 148.62,243.1 149.47,243.49C150.1,243.78 149.47,246.26 149.47,247.89C149.47,249.91 148.65,254.2 149.47,254.69C150.05,255.04 151.26,253.54 152.46,253.05C154.08,252.39 155.55,251.47 158.43,251.37C165.71,251.12 190.37,254.46 197.3,259.53C201.13,262.33 203.27,270.09 203.27,270.09C203.27,270.09 203.27,270.09 203.27,270.09C203.27,270.09 202.93,266.3 203.27,264.09C203.7,261.23 205.77,257.73 206.26,254.49C206.74,251.33 206.26,247.98 206.26,244.89C206.26,242 206.26,236.49 206.26,236.49C206.26,236.49 206.26,238.89 206.26,238.89C206.26,238.89 206.26,235.38 206.26,233.14C206.26,230 205.04,224.83 206.26,221.8C207.33,219.16 211.44,217.59 212.24,215.6C212.78,214.26 212.24,213.09 212.24,211.68C212.24,210.03 212.24,208.19 212.24,206.32C212.24,204.26 212.24,202.11 212.24,199.84C212.24,197.33 212.24,194.58 212.24,191.92C212.24,189.22 211.76,186.44 212.24,183.76C212.73,181 214.81,177.95 215.23,175.6C215.53,173.91 215.23,171.12 215.23,171.12C215.23,171.12 215.23,171.92 215.23,172.32C215.23,172.72 215.23,173.01 215.23,173.52C215.23,174.44 214.23,176.31 215.23,177.36C218.75,181.08 259.87,183.02 263.06,180C263.86,179.24 263.06,177.94 263.06,177C263.06,176.16 263.06,174.6 263.06,174.6C263.06,174.6 263.06,177.84 263.06,177.84C263.06,177.84 263.06,176.23 263.06,175.44C263.06,174.67 263.06,173.99 263.06,173.16C263.06,172.17 263.06,169.92 263.06,169.92C263.06,169.92 262.88,170.4 263.06,170.6C263.7,171.34 270.71,170.3 272.03,171.8C273.07,172.98 272.03,175.53 272.03,177.4C272.03,179.27 270.49,181.44 272.03,183C279.22,190.32 387.61,177.98 394.59,185.08C396.03,186.54 394.59,189.1 394.59,190.28C394.59,190.89 394.59,191.05 394.59,191.68C394.59,192.95 393.87,196.18 394.59,197.44C395.15,198.42 395.73,198.64 397.58,199.2C408.84,202.62 519.22,199.15 526.25,206.6C527.63,208.06 526.25,209.85 526.25,211.56C526.25,213.38 526.25,215.01 526.25,217.2C526.25,220.26 526.25,224.76 526.25,228.2C526.25,231.24 524.21,234.62 526.25,236.8C531.37,242.25 578.45,241.71 580.05,240.2C580.21,240.05 580.05,239.68 580.05,239.68C580.05,239.68 580.05,245.73 580.05,248C580.05,249.57 580.05,250.77 580.05,251.98C580.05,253 580.05,254.78 580.05,254.78C580.05,254.78 580.05,248.54 580.05,248.54C580.05,248.54 579.63,250.8 580.05,251.73C580.52,252.76 582.59,254.53 583.04,254.33C583.41,254.16 582.59,252.2 583.04,251.69C583.52,251.14 585.76,251.59 586.03,251.29C586.13,251.18 586.03,250.89 586.03,250.89C586.03,250.89 586.03,251.35 586.03,251.69C586.03,252.28 585.57,253.41 586.03,254.13C586.78,255.31 589.73,257.08 592.01,256.9C595.38,256.64 602.51,248.12 603.97,248.9C604.81,249.35 603.97,252.17 603.97,253.7C603.97,255.09 603.97,257.7 603.97,257.7C603.97,257.7 603.97,255.61 603.97,254.18C603.97,251.94 603.97,248.47 603.97,245.57C603.97,242.59 603.97,236.53 603.97,236.53C603.97,236.53 603.97,245.15 603.97,245.15C603.97,245.15 603.4,241.12 603.97,239.56C604.49,238.14 606.53,235.88 606.96,236.04C607.28,236.16 606.51,237.81 606.96,238.68C607.71,240.14 611.46,243.45 612.94,243.02C614.5,242.56 615.6,237.16 615.93,235.42C616.09,234.56 615.93,234.21 615.93,233.42C615.93,232.25 615.93,230.54 615.93,229.1C615.93,227.65 615.93,224.72 615.93,224.72C615.93,224.72 615.27,229.45 615.93,231.12C616.47,232.5 618.36,234.54 618.91,234.32C619.6,234.05 618.91,229.85 618.91,227.52C618.91,225.06 618.91,219.92 618.91,219.92C618.91,219.92 618.82,220.16 618.91,220.4C619.38,221.66 625.03,230.26 627.88,230.64C629.95,230.91 633.28,226.35 633.86,226.66C634.1,226.79 633.66,227.77 633.86,227.86C634.22,228.03 636.35,226.45 636.85,225.38C637.36,224.3 636.85,222.47 636.85,221.38C636.85,220.62 636.85,219.44 636.85,219.44C636.85,219.44 635.37,226.83 636.85,229.04C638.34,231.26 644.62,230.93 645.82,232.72C646.63,233.93 645.82,237.12 645.82,237.12C645.82,237.12 645.82,233.45 645.82,231.92C645.82,230.7 645.14,229.32 645.82,228.64C646.95,227.51 650.18,228.56 654.79,228.64C670.31,228.91 750.81,226.43 756.42,232.24C757.53,233.39 756.42,235.01 756.42,236.24C756.42,237.3 755.66,238.63 756.42,239.2Q759.54,241.54 804.25,225.2" style="vector-effect: non-scaling-stroke; fill: none; stroke: rgb(0, 0, 0); stroke-opacity: 1; stroke-width: 2px; opacity: 1;"/></g><g class="points"/><g class="text"/></g></g></g><g class="overplot"/><path class="xlines-above crisp" d="M0,0" style="fill: none;"/><path class="ylines-above crisp" d="M0,0" style="fill: none;"/><g class="overlines-above"/><g class="xaxislayer-above"><g class="xtick"><text text-anchor="middle" x="0" y="433" transform="translate(151.25,0)" style="font-family: 'Open Sans', verdana, arial, sans-serif; font-size: 12px; fill: rgb(68, 68, 68); fill-opacity: 1; white-space: pre;">Jul 2014</text></g><g class="xtick"><text text-anchor="middle" x="0" y="433" transform="translate(243.91,0)" style="font-family: 'Open Sans', verdana, arial, sans-serif; font-size: 12px; fill: rgb(68, 68, 68); fill-opacity: 1; white-space: pre;">Aug 2014</text></g><g class="xtick"><text text-anchor="middle" x="0" y="433" transform="translate(336.58,0)" style="font-family: 'Open Sans', verdana, arial, sans-serif; font-size: 12px; fill: rgb(68, 68, 68); fill-opacity: 1; white-space: pre;">Sep 2014</text></g><g class="xtick"><text text-anchor="middle" x="0" y="433" transform="translate(426.26,0)" style="font-family: 'Open Sans', verdana, arial, sans-serif; font-size: 12px; fill: rgb(68, 68, 68); fill-opacity: 1; white-space: pre;">Oct 2014</text></g><g class="xtick"><text text-anchor="middle" x="0" y="433" transform="translate(518.9300000000001,0)" style="font-family: 'Open Sans', verdana, arial, sans-serif; font-size: 12px; fill: rgb(68, 68, 68); fill-opacity: 1; white-space: pre;">Nov 2014</text></g><g class="xtick"><text text-anchor="middle" x="0" y="433" transform="translate(608.61,0)" style="font-family: 'Open Sans', verdana, arial, sans-serif; font-size: 12px; fill: rgb(68, 68, 68); fill-opacity: 1; white-space: pre;">Dec 2014</text></g><g class="xtick"><text text-anchor="middle" x="0" y="433" transform="translate(701.28,0)" style="font-family: 'Open Sans', verdana, arial, sans-serif; font-size: 12px; fill: rgb(68, 68, 68); fill-opacity: 1; white-space: pre;">Jan 2015</text></g><g class="xtick"><text text-anchor="middle" x="0" y="433" transform="translate(793.95,0)" style="font-family: 'Open Sans', verdana, arial, sans-serif; font-size: 12px; fill: rgb(68, 68, 68); fill-opacity: 1; white-space: pre;">Feb 2015</text></g><g class="xtick"><text text-anchor="middle" x="0" y="433" transform="translate(877.65,0)" style="font-family: 'Open Sans', verdana, arial, sans-serif; font-size: 12px; fill: rgb(68, 68, 68); fill-opacity: 1; white-space: pre;">Mar 2015</text></g></g><g class="yaxislayer-above"><g class="ytick"><text text-anchor="end" x="79" y="4.199999999999999" transform="translate(0,404)" style="font-family: 'Open Sans', verdana, arial, sans-serif; font-size: 12px; fill: rgb(68, 68, 68); fill-opacity: 1; white-space: pre;">0</text></g><g class="ytick"><text text-anchor="end" x="79" y="4.199999999999999" transform="translate(0,344)" style="font-family: 'Open Sans', verdana, arial, sans-serif; font-size: 12px; fill: rgb(68, 68, 68); fill-opacity: 1; white-space: pre;">500</text></g><g class="ytick"><text text-anchor="end" x="79" y="4.199999999999999" transform="translate(0,284)" style="font-family: 'Open Sans', verdana, arial, sans-serif; font-size: 12px; fill: rgb(68, 68, 68); fill-opacity: 1; white-space: pre;">1000</text></g><g class="ytick"><text text-anchor="end" x="79" y="4.199999999999999" transform="translate(0,224)" style="font-family: 'Open Sans', verdana, arial, sans-serif; font-size: 12px; fill: rgb(68, 68, 68); fill-opacity: 1; white-space: pre;">1500</text></g><g class="ytick"><text text-anchor="end" x="79" y="4.199999999999999" transform="translate(0,164)" style="font-family: 'Open Sans', verdana, arial, sans-serif; font-size: 12px; fill: rgb(68, 68, 68); fill-opacity: 1; white-space: pre;">2000</text></g><g class="ytick"><text text-anchor="end" x="79" y="4.199999999999999" transform="translate(0,104)" style="font-family: 'Open Sans', verdana, arial, sans-serif; font-size: 12px; fill: rgb(68, 68, 68); fill-opacity: 1; white-space: pre;">2500</text></g></g><g class="overaxes-above"/></g></g><g class="polarlayer"/><g class="ternarylayer"/><g class="geolayer"/><g class="pielayer"/><g class="glimages"/><defs id="topdefs-6c0087"><g class="clips"/></defs><g class="layer-above"><g class="imagelayer"/><g class="shapelayer"/></g><g class="infolayer"><g class="g-gtitle"><text class="gtitle" x="500" y="50" text-anchor="middle" dy="0em" style="font-family: 'Open Sans', verdana, arial, sans-serif; font-size: 17px; fill: rgb(68, 68, 68); opacity: 1; font-weight: normal; white-space: pre;"><tspan class="line" dy="0em" x="500" y="50"><tspan style="font-weight:bold">Back Volume</tspan></tspan><tspan class="line" dy="1.3em" x="500" y="50"><tspan style="font-style:italic">15-Workout Average in Black<tspan style="font-style:italic"></tspan></tspan></tspan></text></g><g class="g-xtitle"/><g class="g-ytitle"><text class="ytitle" transform="rotate(-90,42,260)" x="42" y="260" text-anchor="middle" style="font-family: 'Open Sans', verdana, arial, sans-serif; font-size: 14px; fill: rgb(68, 68, 68); opacity: 1; font-weight: normal; white-space: pre;">Volume (lbs)</text></g></g></svg>